P3
64 64
255
65  66  75  61  62  68  59  59  64  67  69  76  61  63  68  61  61  66  68  70  77  67  69  75  63  63  72  63  63  70  68  70  76  65  67  73  65  68  74  62  63  70  69  70  80  67  68  78  71  74  84  78  83  93  76  79  89  66  67  73  67  69  75  69  71  79  66  67  74  68  69  77  73  75  87  64  65  74  65  65  74  66  69  75  66  67  73  70  71  79  70  73  81  68  72  78  69  72  78  66  68  75  65  66  72  72  75  83  66  69  76  64  66  73  68  70  79  71  75  84  70  73  82  74  78  89  67  69  76  58  60  64  65  68  75  67  70  80  70  74  84  70  74  83  66  70  77  72  75  86  70  72  84  73  75  88  73  76  88  68  71  81  63  64  73  67  69  80  74  76  90  74  76  90  70  73  84  69  71  81  68  71  80  64  65  72  63  64  71  56  56  59  
66  67  76  60  60  66  63  63  69  68  70  77  64  65  69  65  66  71  68  70  76  66  68  72  66  66  71  65  66  71  66  67  72  66  67  72  67  69  74  70  73  81  69  72  80  71  74  83  75  79  86  73  76  82  72  74  81  70  72  78  73  75  82  68  69  75  65  66  70  72  75  82  67  68  74  62  63  67  58  58  62  62  63  66  67  68  73  71  73  79  72  74  81  71  73  80  72  75  81  70  74  79  70  72  78  74  76  85  72  75  82  74  76  85  75  78  86  73  76  84  77  81  91  75  78  87  68  70  76  70  72  78  70  73  79  74  78  86  77  80  90  75  79  88  73  76  84  73  75  83  79  81  93  76  78  89  82  85  98  83  87  97  80  83  93  79  83  94  78  80  91  71  72  80  72  74  83  77  79  91  74  74  85  65  65  69  62  62  65  62  62  65  
68  69  78  67  67  76  69  70  79  73  76  84  67  69  74  69  70  77  67  69  74  72  74  81  67  68  73  66  67  72  63  64  68  66  68  72  67  69  73  72  75  82  71  74  80  79  82  91  73  76  83  73  76  84  73  75  83  72  73  80  70  73  79  63  64  67  63  64  68  68  71  76  71  74  80  69  71  77  65  66  71  65  65  69  66  68  72  70  73  79  70  72  79  69  71  76  69  72  78  72  75  83  68  70  75  75  76  85  76  78  89  75  78  86  75  77  86  75  76  85  75  76  86  67  68  73  70  72  78  73  75  82  70  72  78  73  74  81  77  80  89  75  76  85  72  74  81  76  79  88  78  80  91  76  78  86  77  80  88  69  71  77  72  74  81  72  74  83  64  63  68  67  67  71  74  75  83  68  69  74  64  64  68  61  61  65  65  66  69  69  71  76  
72  74  86  70  73  84  75  77  91  70  72  80  71  74  81  71  73  80  65  65  69  72  76  83  66  66  71  61  62  64  68  70  74  63  64  68  70  73  79  66  68  72  65  67  71  70  72  77  65  65  69  67  68  74  69  70  76  67  68  73  62  63  67  64  65  70  67  70  76  70  74  80  71  74  81  68  71  77  70  71  79  69  71  77  67  69  72  70  70  76  68  69  75  67  69  74  69  72  79  68  69  79  65  66  71  72  73  80  68  69  76  67  67  72  71  71  79  69  69  76  62  60  65  66  67  73  67  68  74  65  65  69  67  68  72  68  69  74  72  75  82  73  75  84  69  70  75  77  80  90  77  80  91  71  73  80  69  70  75  70  71  76  68  69  75  60  59  61  64  63  67  67  68  71  68  70  75  63  63  66  59  58  61  64  65  68  71  73  78  71  72  78  
76  79  89  68  70  78  72  74  84  67  68  74  76  78  86  70  71  76  69  70  74  74  77  83  66  68  71  68  69  75  73  75  83  72  75  81  74  77  82  65  67  69  67  69  73  70  72  77  70  71  77  73  76  81  73  76  81  73  75  82  72  74  81  67  68  74  69  72  78  73  76  85  71  73  82  71  73  82  71  72  82  69  71  81  68  71  77  71  73  80  72  75  83  69  71  79  74  76  86  71  72  82  69  70  79  73  75  85  66  66  73  67  68  74  64  65  69  61  60  64  64  65  69  66  68  73  62  63  66  64  64  68  64  65  70  67  69  76  74  77  87  77  80  91  75  77  88  74  76  86  77  79  93  68  70  77  72  74  81  77  79  87  74  75  80  71  71  77  68  67  72  68  67  72  69  70  75  62  62  66  64  63  67  68  70  75  74  77  85  76  78  86  
71  75  84  70  74  83  70  74  84  72  75  85  79  83  94  78  82  91  81  85  96  75  79  88  72  75  82  74  76  85  74  77  85  79  83  93  81  85  97  81  85  97  84  89  100 87  92  105 82  87  99  78  82  90  74  78  85  76  80  91  91  94  103 79  81  87  82  85  93  81  83  91  78  81  88  84  88  97  88  91  102 85  87  97  75  76  83  70  72  77  75  78  83  76  77  84  76  78  86  77  80  88  81  84  93  78  81  88  83  85  91  93  98  107 94  99  110 87  91  98  79  82  87  79  81  87  83  86  93  81  84  90  84  87  94  90  95  104 86  90  99  82  84  93  85  87  96  87  90  99  88  92  101 87  90  97  66  67  76  69  71  78  72  75  82  77  79  89  72  74  81  77  80  88  71  73  80  68  70  73  75  79  86  76  80  87  78  81  88  79  82  90  
60  62  64  62  64  67  63  66  71  61  63  70  66  68  76  64  66  71  63  64  70  65  68  74  68  71  78  72  74  82  74  76  84  80  84  96  85  88  103 75  78  89  73  75  86  74  76  87  68  67  78  69  69  78  74  77  88  67  70  79  88  91  100 74  76  83  74  76  82  66  68  73  65  68  72  70  74  80  75  78  86  73  75  81  58  57  58  58  59  64  63  64  68  66  67  73  65  67  71  63  66  68  69  72  77  67  71  75  75  80  86  81  86  96  88  94  109 67  69  74  60  60  65  64  63  69  68  70  76  70  73  79  74  78  86  75  79  87  73  76  83  74  77  86  73  76  83  73  75  81  69  71  77  75  76  82  60  63  71  61  63  69  68  71  79  69  72  81  73  77  86  72  77  85  68  71  79  66  68  72  69  72  75  73  76  80  72  75  79  71  73  77  
65  66  67  69  72  73  69  73  76  65  67  70  66  68  72  63  66  71  67  70  77  71  73  80  73  74  81  74  77  85  84  87  99  79  82  94  66  67  73  66  67  73  65  65  70  65  65  72  66  65  70  63  63  67  60  59  63  57  56  59  87  90  99  72  73  82  67  68  74  66  69  74  67  71  78  69  73  81  70  73  80  58  58  60  62  64  67  67  70  79  59  60  65  66  69  76  66  68  75  65  67  74  71  76  84  76  81  91  74  78  88  76  81  92  75  78  91  57  58  63  61  62  69  69  72  84  67  70  77  73  77  87  73  77  89  76  81  93  76  80  90  68  69  76  66  68  76  67  69  79  66  68  75  75  76  82  60  63  70  67  70  77  72  76  85  73  78  86  67  70  76  64  66  71  61  62  65  66  67  71  69  71  75  72  75  78  76  80  84  73  77  81  
71  73  77  75  79  83  73  76  80  74  76  81  72  75  78  71  74  78  71  74  83  74  77  85  68  70  75  64  64  67  66  66  70  64  65  68  63  62  68  67  67  75  68  68  76  69  69  76  64  64  69  59  59  61  57  57  57  56  56  61  83  86  95  71  74  81  62  62  66  68  70  76  70  73  79  71  74  80  67  70  76  61  62  65  61  62  66  55  55  58  52  52  53  64  65  72  64  66  72  62  64  68  63  66  70  70  74  80  73  77  86  72  76  85  76  80  92  62  64  72  63  65  74  65  67  77  70  73  84  73  75  84  72  74  84  66  69  78  65  67  74  66  67  75  71  75  85  71  74  84  68  71  79  72  74  79  60  62  70  70  73  82  69  71  79  64  66  72  61  62  66  62  64  65  71  74  78  69  71  74  66  69  71  75  80  84  78  83  89  74  78  82  
69  72  78  72  76  83  70  75  79  73  78  85  70  74  80  70  74  80  65  67  74  59  61  67  55  56  61  60  61  67  62  64  70  62  64  71  63  65  72  69  70  80  68  68  79  55  53  58  51  49  50  55  55  58  54  54  59  61  64  75  86  90  100 67  68  75  65  65  71  61  62  64  64  67  71  65  67  72  70  74  81  72  75  82  58  58  61  56  57  60  66  67  72  75  77  85  67  69  73  66  68  72  76  80  88  75  79  86  69  71  77  79  83  93  85  90  102 72  76  84  69  71  80  72  74  84  68  70  79  68  69  75  70  72  78  68  70  76  71  74  81  76  80  89  77  82  93  74  78  87  74  75  81  85  88  95  66  70  79  68  72  81  63  64  71  66  69  75  69  72  80  70  73  78  72  76  81  71  74  78  71  75  79  70  73  79  67  72  76  73  78  84  
72  75  84  71  74  81  67  71  76  62  66  70  64  68  74  65  69  74  63  66  73  62  64  68  61  63  68  60  61  67  60  63  71  59  61  69  64  67  75  60  62  69  56  56  62  59  60  67  59  61  65  61  63  69  62  64  72  60  62  70  72  75  82  65  67  74  66  67  74  61  63  68  62  64  69  63  66  72  66  68  76  66  67  75  59  59  63  64  67  72  69  71  78  71  73  78  68  69  74  70  72  77  78  83  89  69  71  75  65  66  70  69  70  74  72  73  80  65  65  69  69  70  75  73  75  83  70  71  78  71  72  79  78  81  88  73  75  82  72  74  78  70  72  78  69  69  76  68  70  76  70  71  76  77  79  84  64  67  74  65  68  75  56  57  60  58  59  64  63  64  71  62  63  69  63  64  68  65  66  73  61  62  67  62  65  70  64  67  73  63  66  74  
80  85  92  74  77  82  80  83  92  82  85  94  81  85  93  80  82  91  79  81  89  74  75  82  75  76  82  65  65  68  64  66  70  68  71  77  72  75  82  61  61  66  71  73  84  86  91  106 85  90  100 83  85  94  76  78  84  63  62  64  63  65  71  65  67  74  64  66  73  69  73  83  69  73  83  69  72  81  64  67  75  66  68  79  66  69  75  67  68  76  61  63  69  69  72  80  69  71  78  71  73  81  64  65  70  59  60  64  65  67  75  61  60  67  64  64  72  70  70  80  71  72  83  70  72  81  62  63  69  68  70  79  76  78  88  68  71  79  65  68  73  61  62  66  62  62  69  62  63  70  57  57  61  60  61  65  65  66  69  64  65  69  57  56  58  58  57  59  61  59  64  70  69  78  70  70  78  67  68  74  66  65  73  68  68  76  64  64  69  63  65  71  
69  73  80  76  80  89  85  90  102 85  89  101 78  82  92  78  81  90  74  76  85  69  69  75  66  66  71  58  58  62  62  65  71  68  70  79  64  68  75  64  66  74  79  84  98  85  90  103 85  89  102 71  73  79  63  63  67  68  68  74  67  69  76  66  69  77  69  73  82  70  75  83  69  73  82  76  79  90  78  82  92  65  68  76  63  64  69  64  65  71  63  64  69  67  68  72  67  69  74  63  63  66  61  60  64  64  64  70  64  64  69  61  60  64  65  64  70  71  71  79  72  73  82  75  78  88  74  76  85  74  77  84  77  78  88  70  72  81  70  73  79  70  73  78  68  71  76  63  64  67  62  63  66  66  67  71  66  67  72  64  65  69  60  59  60  64  63  68  71  71  80  73  73  82  69  68  76  67  68  74  74  74  87  71  72  80  68  70  76  63  63  71  
82  85  98  85  90  101 73  75  83  68  70  76  76  79  88  83  88  99  71  75  82  63  62  66  61  60  62  61  62  68  67  70  79  71  76  86  70  74  84  71  75  86  80  84  96  79  81  91  85  90  103 77  81  91  74  77  85  71  72  80  69  70  77  69  72  81  67  71  78  63  65  71  70  73  81  78  81  90  78  80  88  62  63  67  57  56  59  62  63  68  60  61  66  66  67  72  62  62  66  61  60  64  64  63  68  65  63  69  63  62  66  63  62  67  65  65  69  70  71  78  76  77  88  77  79  89  72  73  79  74  76  83  76  78  88  67  68  77  71  73  82  70  73  78  65  67  71  64  65  68  63  64  67  65  65  70  70  73  78  63  64  67  61  60  64  68  68  76  71  72  81  72  74  83  67  66  73  70  70  78  68  68  78  73  74  82  70  72  77  63  64  68  
67  68  76  65  66  73  60  60  63  65  65  70  73  75  82  67  69  74  56  56  57  61  60  63  65  66  71  66  68  75  70  74  83  75  79  89  70  73  81  69  70  77  83  86  97  77  80  89  86  92  105 76  79  89  73  74  83  75  78  87  74  77  86  71  72  79  73  75  84  72  76  85  81  85  97  75  78  87  67  68  72  58  59  60  60  61  64  63  63  68  62  63  69  66  68  73  65  64  70  63  62  68  67  66  71  66  66  71  66  66  71  64  64  69  70  72  78  76  80  88  79  82  93  73  76  82  68  70  75  80  82  91  70  72  79  66  67  72  66  67  74  66  68  76  70  73  80  69  71  77  67  69  75  70  72  80  64  66  72  64  64  70  62  62  66  64  66  71  69  71  78  65  66  72  66  66  73  70  70  80  70  72  83  67  68  75  62  61  65  59  59  64  
71  72  79  63  63  66  63  62  66  66  67  71  68  70  74  62  63  66  63  63  66  63  63  66  67  70  75  70  73  80  74  77  84  69  72  78  72  75  82  74  76  84  81  84  92  80  84  91  85  90  100 77  80  87  77  78  86  76  77  86  77  79  86  79  82  89  78  80  86  79  80  88  79  81  88  75  76  82  71  71  75  55  53  54  59  59  59  63  63  68  62  64  71  62  61  66  60  59  64  63  62  67  65  67  72  64  65  68  64  64  68  64  66  71  73  76  84  75  76  87  74  77  87  64  66  71  68  70  76  72  74  81  67  69  76  67  69  75  62  63  70  66  68  78  66  70  78  65  67  75  61  63  69  63  66  73  61  63  70  61  63  71  62  63  69  62  64  71  65  67  77  68  70  80  67  69  79  66  68  77  64  67  78  66  67  76  62  61  66  64  65  71  
73  79  89  72  76  87  74  77  88  66  68  76  66  68  76  71  74  85  65  68  76  58  59  64  64  67  72  68  70  77  64  65  73  65  68  76  69  72  83  69  72  82  67  70  80  73  78  89  65  67  73  59  60  66  61  62  68  54  54  56  56  56  59  56  56  60  58  58  62  63  63  70  62  62  66  64  65  70  61  62  66  59  59  64  62  62  69  64  65  72  66  67  72  67  68  74  66  66  73  67  67  75  69  68  76  70  72  80  67  69  75  70  72  77  71  73  78  78  80  88  74  77  85  64  65  69  66  68  73  69  72  76  71  73  79  70  71  80  72  74  82  77  81  85  71  73  78  76  80  87  70  73  77  73  77  81  77  82  88  79  83  91  77  81  88  81  86  94  77  80  88  81  84  94  75  77  84  79  83  92  74  78  86  69  72  79  72  76  85  67  68  75  
77  82  94  77  80  92  71  74  85  68  72  81  69  73  83  69  72  83  57  56  60  59  60  64  63  66  70  63  65  71  61  62  68  61  62  67  63  65  72  60  62  69  67  70  78  64  66  73  63  64  68  66  68  73  59  59  61  58  59  61  58  58  61  64  64  70  65  67  72  65  64  68  66  66  70  68  68  74  66  67  72  66  67  72  66  67  73  66  67  75  69  71  78  67  69  74  68  69  76  68  69  76  69  70  78  71  72  81  71  73  82  72  75  82  73  75  82  80  83  92  77  81  90  66  68  73  67  70  75  68  71  76  68  70  75  68  71  77  68  70  80  80  85  91  69  74  80  69  73  80  72  77  84  75  80  89  74  79  88  69  74  82  70  74  82  71  75  83  80  85  97  75  80  92  77  81  95  75  79  93  67  70  80  75  78  92  73  76  90  60  61  65  
84  90  105 73  75  87  69  72  83  63  65  73  60  61  67  56  56  59  58  59  61  59  61  65  58  58  61  58  59  61  65  68  73  62  64  68  57  59  62  67  71  78  64  66  70  64  65  70  64  65  69  60  60  63  62  62  66  61  62  65  59  58  61  67  67  71  63  62  64  61  60  62  66  67  71  71  73  79  74  76  83  70  72  78  69  71  77  69  71  78  68  70  77  66  67  74  69  71  78  71  74  82  69  71  79  69  71  79  74  78  86  78  81  90  78  80  89  81  84  96  79  82  93  64  65  69  67  69  74  68  70  75  69  72  77  70  73  79  71  75  84  82  88  96  73  79  86  75  81  91  69  74  81  68  72  78  70  75  83  70  73  82  73  76  86  73  75  84  82  87  102 72  75  89  74  79  91  77  81  94  71  74  87  78  82  95  71  75  84  64  66  74  
69  73  83  59  60  68  58  58  63  55  55  56  59  61  64  59  60  63  60  62  65  59  61  64  59  60  62  67  70  75  66  69  75  59  60  63  62  64  69  70  74  81  74  77  84  61  62  66  59  59  62  60  60  64  63  62  67  66  67  72  67  68  72  66  66  69  64  64  67  62  63  66  64  65  70  65  66  71  67  67  72  67  67  72  66  68  73  65  67  72  71  74  80  71  73  80  72  73  81  74  76  85  68  70  77  68  69  77  78  82  90  80  82  91  70  71  80  75  79  90  76  80  89  66  68  73  66  68  73  69  71  77  70  74  80  71  75  81  67  69  75  82  86  96  75  78  89  66  70  75  65  68  75  69  73  79  74  79  89  71  74  84  68  69  78  73  76  86  71  75  85  65  68  78  80  85  99  83  88  100 77  80  91  77  80  90  70  72  79  69  72  80  
66  67  74  61  61  65  58  58  60  62  63  67  61  63  66  68  71  76  69  71  77  66  67  73  68  70  77  70  72  78  72  75  83  67  69  74  69  69  77  77  82  90  81  86  94  64  66  71  67  68  75  68  68  75  73  74  81  76  77  86  77  79  87  77  78  86  75  77  85  70  72  79  74  76  85  71  74  81  72  74  82  69  71  76  69  70  76  69  71  76  68  70  75  73  76  83  81  84  93  77  79  87  73  75  82  77  79  88  82  84  95  71  73  81  75  77  88  81  85  95  72  75  82  70  72  77  68  70  75  71  73  80  69  72  76  71  73  79  62  63  67  79  81  89  64  65  69  68  71  76  69  72  78  69  72  78  70  73  79  72  74  81  68  69  76  71  73  81  69  71  77  68  71  79  82  87  100 76  79  88  72  74  79  74  76  82  72  73  81  76  78  85  
72  73  83  70  72  80  76  80  89  73  75  85  75  78  89  79  83  95  76  78  89  74  75  85  73  74  84  76  79  90  74  78  88  70  72  81  71  73  81  76  78  90  77  79  90  73  74  83  73  74  82  81  83  93  86  89  101 85  88  100 85  88  101 81  84  93  82  85  95  78  80  89  79  82  91  78  81  88  79  82  90  84  89  99  79  82  89  70  72  79  71  74  82  70  73  80  75  79  88  70  72  78  72  73  81  74  75  84  72  74  82  65  67  76  73  76  86  75  79  88  70  73  80  74  77  86  74  77  87  74  77  86  69  71  78  65  66  73  68  69  79  63  64  71  57  57  64  59  61  67  61  62  69  61  63  71  61  63  70  65  67  76  64  65  74  64  66  74  66  68  76  69  71  81  66  68  77  64  66  74  63  64  71  78  81  90  80  83  93  78  81  91  
58  57  62  60  61  64  65  66  70  66  67  75  74  76  88  74  77  89  64  64  73  62  62  70  60  60  68  62  62  70  56  55  60  57  57  61  63  64  70  60  59  65  57  55  59  61  62  66  67  68  74  73  73  83  73  76  85  74  77  87  61  60  66  67  67  75  66  67  75  65  66  74  66  68  74  63  64  69  67  69  76  68  72  79  69  72  79  71  75  82  75  78  87  74  76  85  72  75  84  68  70  77  69  70  76  70  71  78  69  71  78  72  75  82  72  74  82  70  71  78  75  78  86  74  76  84  70  73  80  71  74  82  71  73  81  71  71  80  68  67  76  60  59  64  62  61  67  61  61  67  64  65  73  62  63  69  67  69  78  65  67  73  70  72  79  65  65  71  65  66  71  64  65  70  60  60  63  72  74  83  73  75  84  77  80  88  70  75  80  68  72  80  
67  68  74  69  70  75  67  68  74  71  74  80  76  78  89  73  75  85  63  63  69  62  63  69  65  66  74  61  61  66  59  60  62  68  70  77  63  63  70  64  64  70  64  64  68  70  72  78  73  75  84  76  78  91  74  76  86  65  67  72  64  65  71  67  67  76  68  68  77  70  73  83  65  67  74  66  68  75  65  67  73  69  72  79  69  72  78  72  75  84  74  77  87  74  76  86  72  72  81  71  74  81  78  81  91  78  81  90  77  80  88  74  76  84  73  75  83  72  74  82  74  76  85  77  80  88  73  76  83  77  80  88  77  79  90  72  73  82  68  68  75  69  71  77  71  73  79  71  73  78  69  70  76  63  63  67  68  69  74  68  70  76  76  80  88  70  70  75  61  60  62  63  62  66  60  59  63  70  71  78  63  63  67  75  79  85  72  75  82  73  77  87  
65  65  72  62  63  66  69  71  77  72  75  82  70  71  81  68  69  77  61  61  65  63  63  69  65  66  74  61  61  67  66  68  74  66  67  74  58  57  62  62  63  67  67  69  74  74  77  85  70  71  82  73  74  84  65  66  72  60  59  65  68  69  77  68  70  76  74  77  87  70  72  82  60  61  68  68  70  80  73  76  86  70  73  80  64  65  70  75  77  87  76  79  88  73  74  83  78  80  91  80  82  93  78  79  91  77  78  89  77  79  89  76  79  88  80  83  93  80  83  94  77  80  89  79  81  92  81  83  94  81  84  96  71  72  80  71  70  80  72  72  82  72  72  82  74  75  84  75  78  87  70  71  79  65  64  69  65  65  69  68  69  76  68  69  76  63  62  65  58  55  59  59  59  61  63  64  67  65  65  71  61  62  67  70  71  77  71  75  80  74  79  88  
69  70  75  67  67  72  74  76  82  74  78  84  79  82  94  69  68  76  69  69  76  73  75  81  77  79  89  70  70  78  66  66  71  65  66  71  68  68  74  71  73  78  76  80  88  79  79  91  74  75  84  65  65  70  65  65  70  69  70  75  76  78  88  75  77  86  74  76  84  71  74  83  63  65  73  62  64  71  64  66  75  61  62  69  66  67  75  75  77  89  77  79  93  81  84  98  86  91  105 84  88  102 78  81  92  73  75  86  74  77  89  71  73  83  74  76  87  75  77  89  75  77  88  73  73  85  69  70  81  63  63  70  69  69  78  74  75  86  67  67  75  61  60  65  64  63  70  65  64  72  65  64  72  65  67  72  64  66  71  70  72  80  63  64  70  61  60  66  61  59  63  65  65  69  71  72  77  74  76  83  72  73  81  75  76  82  78  82  87  69  72  78  
67  68  71  67  67  69  71  72  75  71  72  75  72  73  80  69  69  74  71  72  77  75  77  85  73  76  83  67  68  73  67  68  73  65  65  70  64  65  68  68  70  74  70  71  77  64  64  68  66  67  70  65  66  69  64  65  67  68  69  71  68  69  74  68  69  73  72  74  79  66  68  73  61  63  69  66  68  75  66  68  76  60  61  67  62  63  69  65  66  75  62  62  70  70  72  82  74  77  89  73  76  88  69  71  80  64  65  72  64  65  73  61  62  69  62  62  68  57  56  60  60  59  65  62  60  68  62  61  67  63  64  71  59  60  65  59  59  64  61  61  68  59  60  64  58  58  62  57  57  61  58  59  64  56  56  59  56  56  59  62  63  68  63  64  71  64  63  69  64  66  69  67  70  73  71  74  78  70  73  77  72  74  81  75  78  82  77  80  84  71  73  76  
67  69  71  68  70  74  66  68  71  67  69  73  67  68  71  68  71  74  76  80  86  71  75  83  68  71  80  77  82  95  73  77  87  62  63  70  58  59  63  66  68  76  65  66  72  58  60  60  64  67  69  69  73  76  67  69  73  66  67  72  66  68  71  67  70  74  66  68  71  58  60  63  66  68  74  77  80  88  72  74  82  67  69  75  70  72  79  67  68  76  64  64  71  65  65  71  64  65  71  64  64  70  67  68  74  67  68  74  69  69  78  69  68  76  65  65  71  68  68  75  67  66  73  64  63  69  70  71  79  73  75  83  68  69  74  69  71  78  70  72  81  66  67  75  66  68  74  67  69  74  63  64  67  63  65  68  61  61  65  59  60  64  64  65  71  69  69  73  66  70  74  72  76  80  69  73  75  70  73  76  73  78  83  73  76  83  70  73  78  73  77  83  
75  78  83  72  74  79  71  73  77  69  71  73  71  74  78  75  78  85  81  87  93  73  75  84  71  73  83  71  73  82  67  69  74  62  63  68  68  71  77  64  66  72  64  64  68  67  69  71  66  69  70  67  70  72  71  75  78  73  76  82  72  74  81  71  73  78  69  73  77  63  64  69  70  72  82  73  76  85  72  73  83  67  68  75  64  66  70  67  69  75  67  68  78  62  62  67  59  58  62  59  59  63  59  59  64  61  62  66  65  66  72  62  61  67  63  62  67  66  66  73  67  68  76  72  73  82  72  73  83  70  73  81  78  82  91  75  78  90  72  74  85  64  65  72  65  67  74  65  67  74  65  67  75  66  68  75  61  63  67  61  62  69  66  68  77  72  72  79  70  74  80  75  79  85  73  77  81  74  78  82  78  82  90  75  78  83  75  80  84  78  84  90  
71  74  77  69  70  74  67  68  73  68  69  72  71  73  78  79  83  91  80  86  92  75  78  87  67  70  77  68  70  77  68  69  76  69  71  79  66  68  75  64  65  71  66  68  72  70  73  76  71  74  77  71  73  77  71  75  78  74  78  82  73  77  81  69  71  75  69  71  75  64  66  72  66  68  76  60  60  64  67  69  76  64  65  69  62  62  68  67  68  77  67  68  75  59  59  62  62  62  68  60  60  64  62  63  67  61  61  65  59  59  60  63  64  68  66  67  71  66  68  73  65  67  72  71  73  82  72  72  83  76  79  89  79  82  95  75  77  90  74  77  89  68  69  79  64  64  72  65  67  76  65  67  77  58  59  65  59  60  66  66  68  77  73  76  87  67  68  74  69  71  77  73  75  80  73  76  80  80  84  92  81  84  91  75  79  83  78  84  89  84  89  100 
67  69  72  71  73  77  69  70  74  74  76  82  80  83  90  79  85  91  72  76  81  74  78  85  68  70  76  72  75  83  77  81  92  73  75  83  69  71  79  70  73  81  64  66  71  66  68  71  69  72  75  69  71  73  70  73  75  72  75  78  70  72  76  70  72  75  71  73  78  66  69  76  59  59  64  61  61  66  68  70  77  64  64  70  64  64  72  70  71  81  64  63  70  63  62  66  65  65  70  62  63  66  69  71  76  62  63  66  63  64  67  66  68  72  69  70  77  69  70  75  68  71  76  74  76  87  76  79  90  78  81  93  81  84  99  77  80  93  69  73  82  66  68  78  63  63  69  67  68  76  64  66  73  60  62  67  67  67  76  65  66  73  63  64  69  64  65  68  67  69  75  73  76  81  80  84  91  82  88  96  77  81  89  77  82  89  82  88  97  74  77  86  
70  73  76  74  77  81  69  71  75  73  75  79  80  85  91  77  81  88  73  76  83  71  74  79  67  69  75  71  74  83  75  78  88  71  74  79  67  69  74  66  67  73  64  65  70  68  70  74  73  77  82  75  79  84  72  75  78  75  78  83  71  75  78  68  71  74  74  78  82  68  71  76  65  67  71  68  68  73  69  70  77  67  67  71  68  68  74  73  73  80  70  70  77  72  74  79  67  69  73  69  70  76  68  70  74  65  67  69  71  72  77  67  69  72  70  73  78  75  77  84  77  80  88  81  84  95  77  80  88  77  79  91  71  73  82  68  71  79  62  63  69  62  62  67  67  68  75  70  71  80  65  65  71  65  66  72  65  65  71  67  68  75  65  65  71  70  70  76  67  69  76  73  78  84  78  83  90  67  70  76  68  72  81  74  78  90  72  75  84  66  68  75  
69  73  76  70  73  77  69  72  74  71  74  78  73  77  81  72  75  79  76  81  87  65  67  68  70  73  77  71  74  77  74  77  81  68  70  72  74  78  82  77  82  88  74  79  84  65  67  69  65  67  69  69  71  74  66  67  68  70  72  76  70  72  74  67  69  72  70  73  77  68  71  74  65  68  72  64  69  73  63  67  71  64  69  73  68  73  78  67  70  75  66  69  75  65  66  70  63  64  70  63  63  68  69  70  76  68  70  76  68  70  77  64  66  71  65  67  74  67  68  77  68  69  77  68  70  76  72  74  83  71  74  84  66  67  74  67  67  74  67  68  75  66  68  75  60  61  64  64  65  69  66  67  74  68  70  76  74  75  82  70  70  77  67  68  74  67  67  70  67  68  71  71  73  77  70  71  76  66  67  72  68  69  73  70  71  75  69  70  74  73  76  85  
69  72  76  69  71  75  68  71  74  74  77  81  72  76  79  73  76  80  72  75  78  66  68  70  70  72  75  72  76  78  73  76  80  74  79  83  80  85  92  73  77  83  68  72  75  64  66  67  63  64  64  62  63  65  65  66  69  68  70  73  71  72  76  68  69  73  66  67  71  68  70  72  70  73  75  70  75  79  68  72  76  69  73  77  74  79  84  72  76  79  68  71  75  61  61  62  64  65  71  69  70  77  67  67  72  66  66  69  64  64  69  63  65  70  65  66  72  65  66  72  66  67  73  67  69  75  73  75  81  71  73  79  64  65  69  70  71  77  77  80  89  67  68  75  66  67  71  70  71  76  66  67  71  72  74  80  68  69  74  70  70  76  67  68  72  67  68  71  73  74  79  75  76  84  72  73  80  70  71  79  65  66  72  64  65  70  65  66  69  71  73  79  
69  71  77  69  72  78  67  68  73  73  76  81  70  74  77  74  79  83  68  71  73  66  68  69  72  75  78  76  81  86  73  77  81  78  83  89  74  78  83  68  71  73  69  72  74  66  68  69  63  63  64  64  65  68  68  70  73  69  71  74  68  70  73  68  70  74  68  70  73  68  70  74  71  75  79  72  75  78  74  78  83  71  75  80  74  80  84  72  77  80  68  71  74  69  71  75  63  64  68  65  63  68  60  60  62  61  62  65  64  65  71  65  66  73  66  67  74  66  67  74  68  70  77  68  69  76  64  65  70  63  64  68  66  67  72  72  74  80  76  79  89  68  69  79  69  69  77  68  68  73  64  64  68  69  71  77  66  67  71  63  64  68  64  65  69  69  70  76  67  68  72  65  65  70  68  69  74  66  67  70  69  69  73  70  70  77  67  67  72  68  70  77  
70  73  80  67  69  75  65  66  69  76  79  85  69  72  75  73  76  81  65  67  68  68  71  73  74  77  81  77  82  87  74  79  83  75  79  85  70  72  76  70  73  77  65  68  70  65  67  68  62  63  65  67  68  73  68  71  73  66  68  71  67  69  71  67  70  73  67  69  72  67  70  73  68  71  75  70  73  78  72  76  79  72  76  79  76  80  85  74  78  83  70  74  77  68  69  73  64  65  69  68  68  73  69  70  75  71  73  80  70  72  80  67  68  75  73  77  85  70  73  81  69  71  78  64  65  70  66  66  72  70  72  79  77  80  89  72  73  79  73  74  81  66  67  74  61  61  64  62  61  63  63  63  67  64  66  71  65  65  70  67  68  74  75  77  85  64  64  68  64  65  70  70  71  79  72  73  80  71  72  78  72  73  79  76  77  84  71  72  77  69  71  78  
71  74  83  65  68  73  69  73  76  75  78  84  72  76  81  69  72  76  65  67  69  73  76  80  77  82  88  77  81  87  72  75  80  74  78  84  75  80  85  76  80  86  69  72  76  65  68  69  67  69  72  69  71  77  71  74  79  71  75  79  70  73  76  72  76  79  70  74  77  70  74  76  70  74  77  71  73  78  70  73  76  71  74  76  72  76  80  75  79  86  68  71  75  60  61  62  61  61  65  70  71  77  72  73  77  68  69  75  71  73  79  77  80  90  73  75  82  66  68  73  65  66  72  65  65  71  64  64  69  66  66  72  67  67  73  68  70  76  70  71  77  63  64  67  63  64  68  68  70  75  71  72  79  64  64  70  72  73  81  65  66  70  64  64  67  65  66  70  69  71  78  74  77  84  73  74  80  72  73  79  74  74  81  72  72  78  72  74  77  72  76  83  
76  78  83  76  77  82  80  82  88  83  85  93  79  81  87  80  82  88  79  81  86  83  86  91  85  89  95  83  87  93  81  83  89  80  82  88  83  87  92  84  88  95  87  91  98  85  89  95  88  92  99  88  92  101 84  87  94  86  89  97  91  96  104 88  93  102 84  87  96  88  92  102 88  92  100 83  87  92  80  83  89  82  85  92  88  92  100 79  83  92  74  77  85  71  73  80  75  77  86  68  68  75  63  63  67  60  60  64  65  66  73  68  69  77  65  66  72  68  68  76  66  66  73  67  68  75  65  66  73  67  68  75  68  70  78  68  69  76  72  74  84  73  75  83  72  74  82  73  75  84  70  72  79  69  70  77  69  70  78  65  66  73  72  73  82  71  73  82  66  68  74  66  68  74  66  68  74  63  66  71  66  68  75  74  75  83  77  79  87  79  82  91  
64  65  70  61  60  65  67  67  73  69  70  77  68  69  75  66  66  73  70  71  78  69  71  76  69  70  76  67  67  73  68  70  75  67  69  73  68  69  73  69  71  76  69  71  77  72  74  81  78  81  92  75  78  86  72  74  81  76  79  87  79  82  92  70  70  79  72  74  83  78  82  94  76  79  88  69  71  78  67  69  77  70  72  81  70  72  78  71  74  82  72  75  82  73  74  81  66  67  72  64  65  69  59  58  60  65  65  70  61  60  64  63  62  68  70  70  78  66  66  73  61  60  64  64  65  69  70  72  79  71  71  80  64  63  69  67  67  74  72  73  83  75  76  85  74  76  82  68  68  76  64  64  68  69  69  73  59  57  61  68  68  75  72  73  81  68  68  76  66  67  72  69  71  77  73  75  82  68  70  77  69  72  79  72  73  83  69  70  80  71  72  82  
64  65  73  63  63  70  71  72  82  76  78  91  73  76  88  68  69  79  66  67  76  65  67  74  69  71  78  72  76  83  69  72  79  70  73  81  66  68  74  66  68  74  67  68  74  69  71  78  73  75  86  67  68  76  72  74  85  78  81  94  77  81  93  70  72  83  78  82  97  77  82  95  69  72  79  70  73  81  67  70  78  67  70  78  66  67  72  70  72  81  70  72  78  66  68  72  65  66  71  67  69  74  70  72  80  67  68  74  63  63  68  68  68  76  66  64  71  64  63  68  64  64  67  71  73  78  72  74  80  65  65  71  64  64  69  68  68  74  69  70  75  74  75  84  76  77  84  71  73  80  69  71  76  72  72  78  62  62  66  69  70  78  69  70  77  69  68  76  69  71  77  72  74  80  72  74  82  75  78  86  72  75  83  72  74  84  69  70  80  70  72  82  
59  58  63  67  68  77  68  69  78  65  65  73  59  58  64  61  61  66  60  60  65  63  63  70  70  72  78  70  72  78  70  72  80  70  71  80  69  71  78  68  70  76  72  75  83  75  78  86  70  73  82  71  73  83  78  81  94  77  80  94  72  75  86  78  82  95  81  87  101 70  74  80  66  68  75  74  77  86  67  69  75  61  62  69  63  63  68  70  71  78  66  67  72  69  71  77  68  70  74  65  67  71  70  72  78  61  61  65  63  63  67  63  62  67  60  58  62  66  66  70  68  69  75  69  70  76  66  67  72  63  64  67  65  66  70  64  64  69  67  68  73  74  76  84  76  78  86  75  76  83  68  69  75  68  68  72  62  61  66  68  67  75  68  69  76  66  66  72  70  70  78  72  72  80  70  71  78  72  74  81  75  78  86  72  74  82  66  67  75  69  70  79  
65  67  76  65  66  75  62  61  68  58  59  64  61  62  69  68  70  80  64  66  75  64  65  74  63  64  70  68  69  77  69  71  78  72  75  84  70  72  79  66  67  73  73  77  87  75  78  89  68  71  82  73  76  89  72  75  88  66  69  79  70  73  82  73  77  87  67  71  78  63  66  71  67  70  78  67  70  77  61  62  67  57  57  61  65  65  72  68  71  79  67  69  76  65  67  72  61  62  67  60  61  66  61  61  65  63  62  68  67  67  75  61  61  66  62  61  65  66  68  71  70  72  79  67  67  72  64  65  69  69  70  75  70  71  78  70  72  78  70  73  78  76  79  88  79  82  92  73  74  80  68  69  73  68  69  72  64  63  69  70  70  79  72  71  80  68  68  76  69  70  78  67  68  75  65  65  70  68  69  73  68  70  75  71  74  79  67  69  75  70  71  81  
67  68  78  67  68  77  59  60  66  57  57  61  60  61  65  62  63  69  60  61  67  58  58  64  63  65  71  63  66  72  61  61  67  60  61  65  64  66  72  60  61  67  61  61  66  64  65  73  63  65  72  66  67  76  62  64  71  62  62  69  67  69  76  64  66  72  60  61  66  62  64  69  64  67  74  57  58  62  58  59  64  55  55  59  62  63  68  62  64  70  64  64  71  62  64  70  58  59  63  62  63  69  68  68  76  72  72  80  68  69  75  63  62  66  69  70  74  66  66  70  60  61  63  65  66  71  67  69  73  63  63  66  67  68  72  63  64  69  65  66  70  72  74  81  70  71  77  67  67  70  69  70  75  64  64  67  61  60  63  65  64  71  66  65  71  69  70  76  65  66  72  68  69  76  64  64  69  63  64  68  64  66  70  67  69  73  66  67  72  65  66  72  
83  85  95  70  72  78  58  59  61  64  67  71  65  68  72  66  69  73  66  69  73  67  70  76  68  71  78  69  72  80  61  61  68  62  64  70  71  75  85  68  71  81  61  62  67  70  71  77  66  68  74  67  70  76  68  70  76  68  68  75  61  61  65  63  63  67  71  73  81  70  72  79  64  66  72  64  66  72  63  65  71  60  63  68  63  65  72  67  69  75  74  78  85  77  79  87  60  59  59  71  76  81  81  87  100 81  83  94  76  78  86  67  67  72  67  67  70  58  57  59  59  59  63  61  61  66  63  62  68  63  63  68  63  64  69  60  60  63  59  58  62  70  72  78  69  70  74  80  82  92  71  73  82  64  64  68  60  60  62  60  59  62  65  67  71  64  64  68  66  67  72  71  74  82  68  70  77  67  68  77  64  66  72  64  66  72  69  72  79  68  72  80  
78  81  90  68  71  77  64  67  73  68  72  79  69  73  80  69  72  79  69  73  80  68  72  77  64  67  71  61  63  67  63  66  71  68  70  78  71  75  86  63  65  73  66  68  78  63  65  70  58  59  63  67  71  78  63  65  70  59  61  65  59  60  65  68  71  80  64  66  72  61  62  66  64  65  71  64  66  71  63  64  70  65  67  74  62  65  73  67  71  81  72  74  83  61  61  63  64  66  68  76  81  88  77  80  91  67  68  75  63  62  66  60  59  61  57  56  58  58  57  60  63  62  67  64  63  69  63  62  67  67  66  74  67  66  74  61  59  65  64  63  70  71  71  80  74  75  82  78  80  89  67  68  75  63  63  66  61  60  62  66  66  72  73  76  81  67  69  74  73  75  82  74  77  84  67  70  75  70  72  78  69  72  81  69  71  79  73  76  86  73  76  85  
72  74  81  70  73  82  66  70  78  65  68  75  71  75  85  71  75  84  67  72  77  62  64  68  63  66  70  69  73  78  72  77  86  66  67  74  68  70  78  64  67  74  58  59  63  57  58  62  60  62  66  61  64  67  61  63  67  65  68  74  71  74  84  61  63  68  62  64  69  70  74  83  73  77  85  69  71  79  68  70  78  76  79  89  67  69  76  64  67  75  63  65  73  64  66  72  68  70  73  73  75  81  67  68  74  58  57  58  57  56  57  60  59  63  60  58  63  64  63  69  65  64  70  64  64  68  67  68  72  68  69  74  69  70  77  67  68  74  68  69  76  73  74  83  76  78  86  71  72  78  70  70  76  64  64  66  67  67  71  63  62  67  70  72  76  71  73  79  70  72  78  68  69  74  66  68  73  69  71  77  68  69  76  69  69  80  75  78  88  71  73  81  
71  74  79  66  69  73  67  70  78  74  78  88  70  73  81  64  67  73  60  62  65  61  63  66  62  63  68  64  67  71  65  67  72  67  70  76  69  73  80  68  70  78  63  64  69  62  64  70  69  73  81  60  62  65  64  68  72  61  63  67  59  61  65  61  63  68  65  69  74  71  75  84  67  69  75  68  70  78  65  67  73  67  68  75  66  67  72  65  67  72  62  64  71  65  68  77  67  70  75  73  77  84  63  64  69  59  59  63  65  66  72  61  60  65  70  70  79  69  69  76  65  66  70  65  66  69  68  69  75  74  75  83  69  70  77  65  66  68  71  73  77  72  73  81  74  75  83  74  75  81  71  71  77  67  67  71  67  67  73  63  63  68  71  73  79  70  71  78  69  70  76  67  69  75  71  73  79  71  73  80  68  71  78  69  71  79  72  74  82  72  74  82  
77  80  87  75  78  85  68  70  76  67  69  75  65  66  71  63  65  69  67  69  74  68  70  76  69  72  78  69  71  77  73  76  83  77  83  91  68  72  77  72  76  84  72  74  81  73  75  83  66  67  72  62  63  66  70  73  77  67  69  73  67  69  73  73  77  83  70  73  79  69  72  78  61  62  65  63  64  69  64  64  68  67  70  75  67  69  74  71  73  79  78  81  90  81  86  99  81  84  93  77  81  90  64  65  73  71  73  81  66  67  74  69  68  78  66  66  73  60  60  64  63  64  69  67  68  76  69  71  79  69  70  76  65  65  70  66  67  71  67  68  74  71  72  78  74  76  84  72  72  79  70  71  76  69  70  75  67  67  72  62  61  66  70  70  77  69  70  77  69  71  77  71  73  80  69  71  78  70  73  78  75  77  85  75  78  87  74  78  86  75  78  87  
64  65  74  64  65  74  62  62  70  61  60  67  60  60  68  63  63  70  63  65  71  71  75  83  68  69  79  66  67  77  66  68  75  69  72  78  68  70  78  68  70  77  66  67  75  70  73  82  53  53  57  54  53  56  58  59  63  61  62  66  60  61  65  61  62  69  61  61  68  60  60  66  64  64  70  62  62  66  64  65  70  68  69  75  68  70  75  65  67  72  64  65  71  67  68  76  72  74  82  73  74  81  72  72  78  74  75  82  76  80  88  72  74  82  65  65  69  66  67  70  69  71  76  71  73  79  68  70  74  71  74  79  69  70  76  68  70  75  68  71  74  71  74  80  69  70  78  69  69  77  68  67  74  69  68  75  71  71  79  69  69  75  68  67  74  68  69  75  73  74  83  72  73  82  72  73  82  74  74  83  76  77  87  74  75  85  73  73  83  72  72  82  
66  66  75  65  66  75  64  66  73  67  68  76  64  65  73  66  67  76  71  73  81  71  73  80  69  71  79  63  63  70  60  59  63  66  66  73  71  73  81  68  70  77  69  69  78  69  71  80  56  56  58  57  56  57  62  63  66  64  66  70  61  62  67  63  63  68  68  68  74  67  67  72  70  71  75  69  69  74  68  67  73  70  71  76  69  71  75  68  69  74  68  69  74  68  69  75  69  71  76  72  73  80  75  77  83  75  77  83  77  80  90  73  76  83  64  66  70  68  70  76  69  71  77  69  71  77  68  70  75  71  73  80  72  74  82  71  73  80  71  74  79  73  76  83  68  67  77  68  69  76  68  69  76  66  65  73  64  64  69  72  74  81  78  79  91  74  75  84  71  71  79  73  74  83  73  74  84  68  68  76  71  72  81  73  74  84  70  70  79  72  71  80  
70  70  81  67  67  76  65  65  73  67  68  78  67  68  76  66  67  76  66  67  75  71  73  79  69  71  77  69  71  79  64  65  71  69  70  78  70  72  80  67  70  75  72  74  82  72  76  83  62  63  66  60  61  63  66  68  72  63  64  68  59  58  62  68  69  75  73  73  82  74  75  83  71  73  78  71  71  77  72  72  79  73  74  81  72  74  80  71  73  78  72  75  81  73  74  81  74  76  83  79  81  89  78  81  89  76  78  88  79  82  93  77  80  90  64  65  71  68  69  75  65  66  72  68  71  77  73  75  84  72  75  82  73  76  83  69  72  78  73  76  82  76  78  88  70  71  79  72  73  83  72  72  81  69  69  78  72  73  83  80  82  94  75  76  87  66  65  72  66  66  73  74  75  85  70  72  80  68  68  76  78  80  91  75  78  88  74  77  87  74  75  86  
68  68  78  68  69  79  72  74  86  77  82  96  76  79  92  69  71  81  74  77  90  69  71  81  71  74  83  68  70  79  62  63  68  70  73  81  72  74  83  71  73  82  73  75  82  74  77  85  59  60  63  60  61  64  62  63  67  58  58  60  61  60  62  68  68  73  69  70  77  67  67  75  69  70  77  71  72  79  72  72  77  73  73  78  71  71  76  74  74  81  74  76  83  74  77  83  74  75  82  79  81  91  78  81  92  72  74  81  77  81  90  74  76  86  63  63  69  66  68  73  66  68  73  66  68  73  71  74  83  68  69  77  67  68  73  68  71  75  72  75  81  75  78  86  69  71  78  74  74  84  74  75  87  75  77  88  75  78  89  70  71  79  65  65  71  66  65  73  70  71  79  69  70  78  71  72  81  72  74  84  71  73  81  68  70  77  73  75  82  71  73  79  
76  79  92  75  80  91  82  86  101 83  87  100 73  75  83  79  83  95  74  77  88  67  68  77  65  66  74  63  64  69  68  70  75  71  73  79  77  81  91  74  76  87  75  77  86  80  84  93  72  75  80  73  76  84  68  70  77  72  74  80  73  75  81  74  75  80  75  76  82  73  74  79  70  70  76  71  72  78  74  75  80  76  78  84  77  79  86  81  83  93  79  82  92  77  78  87  79  82  91  83  86  98  77  81  90  76  80  88  81  86  96  75  78  88  70  73  81  70  72  78  69  72  79  69  71  78  73  76  85  63  64  70  69  71  77  71  74  80  74  75  83  79  83  93  76  78  90  76  77  90  82  85  99  79  82  92  67  68  74  65  65  71  68  67  76  69  69  78  73  73  84  73  75  86  73  75  86  72  74  83  70  72  82  70  72  80  73  75  83  75  77  86  
89  94  112 82  87  101 76  79  91  76  80  89  70  72  80  67  68  75  67  67  74  75  77  87  80  84  95  76  80  88  76  79  87  77  80  89  72  75  82  79  83  94  80  83  95  81  85  96  82  86  94  74  77  83  73  75  83  78  80  90  78  80  88  79  81  91  78  81  89  78  82  90  80  84  94  81  85  94  81  83  93  83  86  96  82  85  95  83  88  98  78  80  89  80  83  92  85  88  99  87  92  103 80  84  93  80  83  92  82  86  94  80  83  93  77  79  88  83  87  95  85  89  99  78  82  91  80  83  93  71  73  80  78  81  90  81  84  93  80  82  92  81  84  96  82  85  94  82  84  91  81  84  92  87  90  100 81  84  91  79  81  90  83  85  96  84  86  98  85  88  99  86  89  99  88  92  102 86  90  98  85  89  97  86  91  100 87  91  100 84  87  95  
68  70  81  59  59  64  58  59  65  58  59  65  53  52  55  55  54  57  57  56  61  67  69  76  73  76  85  65  66  73  69  71  78  66  67  75  60  60  66  65  66  74  67  68  79  67  69  80  69  72  80  54  52  55  58  57  61  60  59  65  66  67  75  69  71  79  64  64  73  67  68  78  68  69  80  64  64  71  67  68  76  69  70  80  69  69  79  66  67  73  68  70  76  72  74  83  77  78  90  66  67  72  66  67  72  64  65  69  59  59  62  66  68  73  63  63  67  71  73  81  76  80  91  70  73  82  66  68  77  66  68  77  64  66  73  70  72  82  71  74  86  70  73  83  67  70  77  67  70  75  71  74  80  76  78  87  71  74  80  72  76  83  74  77  86  72  75  83  76  80  89  79  83  93  81  86  96  70  73  80  74  78  86  71  75  81  71  74  82  74  77  86  
65  68  76  60  62  69  60  61  66  58  58  63  60  60  66  60  60  65  59  60  65  73  77  86  72  75  81  68  69  78  69  70  79  63  63  68  70  72  80  66  68  76  68  70  79  72  74  86  69  71  78  60  60  63  64  65  72  67  68  78  71  72  83  70  72  81  68  71  80  69  70  80  63  62  70  64  64  71  66  67  73  69  71  79  70  71  81  72  74  84  69  70  79  75  77  89  68  70  78  59  60  62  67  69  74  63  65  67  60  61  64  67  69  76  64  66  70  63  65  70  76  79  92  68  70  79  70  73  83  73  78  90  67  71  81  74  78  91  74  78  91  65  67  75  58  59  65  63  65  73  74  78  89  76  81  92  75  81  90  75  80  90  72  76  85  74  78  88  76  81  91  75  81  91  70  75  83  63  65  71  66  70  76  66  70  77  72  76  85  73  77  87  
61  63  71  55  55  58  58  57  62  59  59  63  59  59  65  63  64  72  63  64  70  63  65  69  70  72  79  69  71  80  62  63  68  67  69  75  67  68  76  67  67  75  71  74  82  67  67  78  66  68  75  56  56  59  62  62  69  71  73  84  72  73  85  65  67  75  61  62  67  56  55  59  58  58  63  66  67  75  63  63  70  68  70  78  73  76  85  72  75  82  68  69  77  74  75  87  62  63  68  65  65  70  70  72  79  66  68  72  63  63  69  67  68  77  64  65  73  64  66  73  69  72  80  56  58  63  65  68  76  64  67  74  65  68  76  65  68  76  61  63  70  58  59  66  62  64  72  62  65  73  68  71  82  77  81  95  71  75  84  71  76  83  71  76  83  72  78  85  73  78  85  69  72  80  66  69  74  63  66  71  66  69  74  71  74  83  67  69  78  74  77  88  
62  63  68  64  64  70  65  65  71  67  68  75  71  72  81  73  75  85  70  72  81  67  70  75  73  75  82  65  64  68  68  69  73  72  75  80  74  76  85  73  74  84  75  78  86  69  70  77  67  68  74  60  59  64  68  68  77  74  76  86  70  72  80  66  66  73  64  65  71  68  69  77  69  71  79  66  68  75  65  66  72  69  71  79  71  73  83  74  76  85  76  79  88  73  76  84  68  68  74  65  66  71  67  69  72  65  67  69  68  68  75  71  73  81  63  64  69  72  74  79  71  73  81  71  73  82  76  80  92  71  74  83  70  74  81  62  62  69  67  67  76  67  70  77  73  76  86  73  76  87  71  75  86  69  71  82  67  69  79  73  75  84  69  72  78  70  74  80  69  73  80  72  77  85  70  73  80  66  70  75  71  75  81  74  78  84  71  76  83  80  84  95  
65  65  71  64  64  68  62  61  66  68  69  74  71  72  77  72  73  79  69  69  75  67  69  74  65  65  68  64  64  67  70  71  75  70  71  76  70  71  77  65  64  70  66  65  69  70  70  75  65  65  70  63  63  66  68  68  75  68  67  74  64  63  68  67  67  73  67  68  74  68  67  75  66  65  71  70  70  79  68  68  75  66  66  71  69  69  77  75  76  86  74  76  86  72  75  82  70  71  77  67  66  72  64  63  66  65  65  69  67  67  72  64  64  68  62  62  65  68  69  73  71  73  77  69  71  76  70  71  78  72  74  82  70  73  79  69  71  77  71  73  81  70  72  79  68  70  75  71  74  81  70  72  78  73  75  83  66  67  72  65  65  69  64  66  70  64  65  68  68  69  75  73  75  82  70  72  77  66  68  73  63  65  69  71  73  79  71  74  81  74  77  85  
70  71  82  68  68  77  64  63  70  61  62  66  66  67  73  65  67  72  66  69  74  69  70  77  71  72  81  67  69  76  67  68  75  67  69  76  65  66  71  66  67  71  66  68  74  65  68  72  59  59  62  62  62  66  66  64  72  68  66  75  71  73  83  69  70  80  63  62  69  61  60  66  67  66  76  70  71  80  66  65  73  63  62  69  68  68  78  69  69  79  70  70  79  73  75  85  76  77  89  71  72  81  65  65  72  65  64  72  70  71  79  65  66  70  61  61  65  61  63  69  62  64  70  62  64  71  63  67  74  69  72  82  67  71  79  65  68  74  65  68  75  67  69  76  71  74  83  68  69  76  82  85  94  76  79  88  59  58  60  68  69  74  65  65  71  64  63  67  70  72  76  66  67  72  73  74  80  73  75  85  62  62  67  67  67  74  68  70  78  70  73  80  
67  67  73  67  68  74  58  57  59  63  63  66  68  71  76  72  74  80  73  76  83  74  76  84  72  72  79  69  70  76  70  71  76  72  74  81  73  75  82  68  70  75  67  69  74  63  64  68  61  62  66  66  67  72  69  70  78  72  71  81  75  76  87  69  69  78  64  63  69  69  69  77  71  71  80  71  72  80  71  73  82  71  72  81  72  72  82  73  74  84  67  67  74  67  66  74  69  68  77  63  62  67  71  71  79  73  73  82  67  68  73  65  65  69  65  67  71  69  71  80  69  71  78  72  74  84  78  83  94  78  82  92  71  73  80  67  68  73  69  70  77  68  69  74  67  69  75  70  72  77  77  79  88  67  67  75  67  67  70  72  73  78  72  73  78  71  71  77  67  68  72  74  75  83  81  84  93  74  76  83  70  71  77  70  70  76  73  75  84  74  78  86  
66  67  72  64  65  68  62  62  66  66  67  71  65  67  70  63  64  67  66  67  71  68  69  73  67  68  72  70  72  77  74  76  83  67  68  74  65  67  70  62  63  67  63  64  67  60  60  65  63  64  68  62  63  67  67  68  73  76  77  87  75  75  86  65  64  71  66  66  73  68  68  75  68  67  75  72  72  82  73  74  83  68  68  77  65  65  72  68  68  76  69  69  77  69  68  76  66  66  73  69  71  79  71  72  81  67  68  74  61  61  64  68  69  75  64  64  68  68  69  78  64  65  70  68  71  79  71  73  83  73  75  82  75  78  86  70  72  79  69  72  78  69  71  77  66  67  74  68  69  74  66  66  71  68  69  74  76  77  84  75  77  84  72  73  79  71  72  77  74  76  82  78  81  89  81  83  93  74  75  83  69  69  75  69  70  74  74  76  84  68  70  77  
64  65  69  66  67  71  62  62  65  60  60  64  62  63  67  60  60  65  60  61  64  62  63  67  62  63  67  64  66  70  61  62  65  63  64  67  58  58  60  59  60  64  61  62  67  60  61  64  65  67  69  66  68  71  74  76  84  80  83  94  70  71  80  62  61  65  64  62  67  68  68  75  73  73  83  71  72  82  68  67  76  63  63  69  69  70  77  70  71  79  72  72  80  68  68  77  70  72  81  69  70  79  59  58  61  66  67  72  64  64  67  67  68  72  65  66  70  61  63  69  65  67  72  71  74  81  73  76  87  72  75  82  67  69  73  66  67  71  71  74  80  75  78  86  71  74  82  69  71  78  68  68  73  71  72  78  70  71  76  70  70  75  71  72  78  73  74  80  79  81  90  78  81  91  71  73  80  72  73  80  74  75  83  72  73  81  72  73  81  71  73  81  
57  58  63  58  59  64  55  55  60  57  58  63  59  61  66  56  57  62  58  59  63  61  62  67  58  59  63  59  61  67  57  59  64  56  58  63  59  60  66  63  65  74  62  64  72  64  67  74  67  71  76  66  70  74  65  66  72  68  71  78  65  65  73  61  60  67  60  60  65  70  72  81  72  73  85  62  62  70  58  58  64  63  63  72  67  67  77  69  70  81  66  67  76  70  71  82  66  65  73  56  56  57  64  65  70  66  67  72  67  69  74  66  67  73  61  62  67  64  66  74  67  69  77  68  70  79  70  73  82  63  64  70  63  64  71  65  66  72  67  68  73  66  68  73  68  70  77  68  69  76  73  74  81  72  74  81  69  69  73  72  73  78  77  79  86  78  79  87  77  78  86  77  78  87  70  72  78  68  67  73  73  74  81  71  72  79  74  76  84  72  74  85  
