P3
64 64
255
99  79  70  101 81  71  99  79  71  92  74  66  95  76  67  92  73  65  90  72  64  102 82  74  95  77  68  89  71  63  92  74  65  91  73  65  99  80  71  103 82  73  101 91  84  95  79  71  94  76  68  95  78  70  91  75  67  90  74  66  91  73  65  89  72  64  90  74  66  92  74  66  90  73  65  94  77  70  92  75  67  92  75  67  93  76  68  92  74  66  101 90  84  99  91  85  99  89  82  97  88  80  96  82  74  95  76  68  95  78  69  95  78  69  94  77  68  92  75  67  97  86  80  98  91  85  94  85  80  93  84  78  97  87  81  99  91  85  102 100 95  99  95  89  102 93  86  102 92  86  95  85  79  91  83  77  91  83  77  92  83  77  95  86  80  91  82  76  98  91  85  101 94  89  94  86  81  90  82  76  100 91  85  106 100 94  96  92  88  98  80  72  
102 83  74  101 80  70  98  79  69  100 80  71  98  77  68  99  78  70  100 80  71  105 83  74  99  79  70  97  77  68  97  77  69  97  77  69  99  79  70  99  77  68  100 90  83  97  82  75  91  74  65  94  77  69  92  75  68  91  75  67  90  73  65  90  72  65  88  71  64  86  69  61  86  69  61  94  77  70  92  75  67  96  79  70  93  76  68  95  76  68  99  89  83  95  81  74  94  75  66  94  75  66  96  78  70  96  78  70  97  80  72  95  77  69  94  78  70  97  79  71  92  74  66  91  74  66  91  74  66  92  74  66  93  74  66  96  78  70  105 98  93  97  85  79  98  79  70  107 88  78  106 87  79  92  75  67  90  74  66  91  75  66  94  75  67  90  73  65  92  75  67  96  79  71  89  73  65  91  75  67  99  82  75  89  71  64  94  87  82  97  82  74  
99  80  71  98  79  70  100 81  72  94  75  66  91  72  64  96  76  67  101 80  71  105 82  73  97  76  67  90  72  63  97  77  69  97  78  69  103 84  76  97  77  68  103 87  79  95  79  72  88  72  64  91  75  67  97  80  73  97  80  73  90  72  65  88  72  64  87  70  62  87  70  63  97  81  74  96  79  70  102 85  76  98  80  71  92  75  67  97  79  71  97  86  80  95  79  71  97  78  69  99  81  72  103 85  76  105 87  78  95  78  70  100 81  73  102 82  73  102 84  75  106 88  79  97  79  70  94  77  68  93  75  66  95  78  69  99  82  74  95  86  80  90  77  70  93  76  68  98  81  73  97  78  69  95  79  70  100 83  76  93  76  68  94  78  69  93  77  69  94  78  70  96  79  71  97  80  72  97  81  73  99  82  74  96  79  70  98  88  82  102 85  77  
97  77  68  97  77  68  96  75  66  95  75  66  97  77  68  97  77  68  105 84  75  107 84  75  108 86  77  100 80  72  95  74  65  97  77  68  101 80  71  97  76  67  92  73  64  90  72  65  88  70  63  89  71  63  90  73  66  92  74  66  94  77  69  88  70  63  88  69  62  86  69  60  101 83  75  99  80  72  94  75  67  87  68  60  95  77  69  94  75  66  92  84  79  92  77  70  91  72  63  93  76  67  94  75  67  97  78  69  98  80  72  95  76  67  98  76  66  103 85  76  103 83  74  99  81  72  96  78  70  95  77  69  97  78  70  98  80  71  99  90  84  97  83  76  92  74  66  94  78  70  92  74  65  90  73  65  98  81  73  93  76  69  94  77  69  93  76  68  95  78  70  96  79  71  95  78  70  92  75  68  92  75  67  96  80  71  99  91  84  99  82  74  
103 88  81  102 86  78  109 95  87  102 86  78  98  80  72  101 81  71  103 82  73  104 81  73  107 84  74  100 80  71  101 84  76  98  83  75  97  81  74  106 89  82  110 94  87  105 92  84  103 89  82  102 89  82  102 88  81  103 89  81  100 86  79  100 86  79  103 89  82  101 87  80  104 88  81  110 94  86  107 93  86  93  79  72  97  83  75  95  83  75  92  89  84  93  86  80  96  82  75  103 89  81  105 92  83  105 92  84  99  84  76  99  82  73  95  78  69  98  81  72  102 83  74  93  75  66  94  76  67  96  78  70  96  78  70  93  73  64  99  89  83  98  83  75  91  74  66  94  77  69  97  79  71  94  77  69  99  81  72  98  80  73  100 82  73  92  75  66  92  75  67  94  77  68  93  76  68  98  80  72  93  76  68  89  72  64  95  88  82  103 94  89  
98  89  83  94  85  79  94  85  79  95  86  78  98  87  79  94  76  68  91  73  65  96  77  69  99  79  70  99  83  75  96  86  81  94  88  83  93  91  86  95  91  86  89  84  79  90  85  81  86  81  77  89  84  80  99  94  89  86  81  76  89  84  79  83  78  73  84  79  74  83  79  74  87  82  77  95  89  83  92  87  82  93  90  86  96  93  89  96  89  84  100 94  88  90  84  78  90  82  76  92  83  77  94  86  80  95  87  81  96  87  81  99  86  79  95  85  77  97  87  80  94  78  70  90  73  65  95  78  71  94  77  69  94  77  70  91  75  67  100 87  80  92  79  72  97  86  80  102 93  87  104 96  89  99  91  85  101 92  85  103 94  88  104 95  89  102 93  86  95  82  75  87  73  65  91  76  68  93  78  71  97  84  77  96  78  69  104 90  82  97  89  84  
92  73  65  95  77  68  91  73  65  89  69  62  91  72  64  91  73  65  91  73  65  96  77  69  105 85  76  95  76  68  90  70  61  94  81  74  95  91  87  74  66  61  72  65  60  72  64  59  70  62  58  74  66  62  81  73  68  70  63  58  71  63  58  70  62  57  76  68  63  68  61  55  71  63  58  72  63  58  71  63  58  81  76  72  97  91  85  88  72  65  88  73  65  88  73  66  88  73  66  87  72  64  85  70  63  89  73  65  90  74  66  96  80  72  91  75  67  88  72  65  88  72  65  91  75  67  88  73  66  93  77  69  91  77  69  88  75  69  90  75  69  84  72  66  89  78  70  83  72  66  78  67  61  79  68  62  83  73  67  80  70  65  85  73  67  97  85  78  90  78  71  84  71  65  85  72  65  87  77  71  97  88  81  97  78  69  103 82  73  94  75  66  
93  76  68  96  78  69  98  80  71  93  75  68  92  75  67  92  75  67  91  74  66  96  77  69  98  79  70  92  74  66  91  73  65  94  78  70  86  81  76  72  65  60  78  70  66  77  70  65  76  68  64  76  68  64  75  67  62  75  67  62  73  66  61  75  66  62  78  71  66  73  65  60  74  67  61  73  66  61  78  70  65  82  76  71  90  80  75  92  75  68  95  79  72  89  74  66  92  77  70  93  78  70  96  82  74  94  79  72  92  77  70  93  77  70  96  80  72  85  70  62  88  72  65  87  72  64  88  72  65  94  80  73  97  88  82  86  73  66  82  69  61  87  74  67  87  73  67  86  73  66  86  73  66  87  75  68  87  73  66  83  70  63  94  81  74  89  75  68  86  73  66  85  73  67  85  72  64  87  76  70  97  88  82  97  77  69  98  80  72  94  77  68  
95  77  69  92  75  67  93  75  67  95  76  68  91  73  65  90  71  63  90  71  63  90  71  63  88  70  62  91  73  65  91  72  64  94  78  70  88  82  78  73  65  60  75  68  63  79  70  65  77  68  64  78  69  65  76  68  63  76  68  63  75  68  63  76  68  64  75  67  62  75  67  62  75  67  63  74  67  62  76  68  63  82  76  71  99  90  83  91  74  67  88  73  66  89  74  66  93  77  70  92  77  70  91  76  68  93  78  70  92  76  68  91  75  67  91  75  68  86  70  61  85  70  62  84  69  61  87  72  64  92  79  72  96  88  82  83  69  62  81  70  63  85  72  65  88  75  68  86  73  67  86  73  66  88  75  68  83  70  63  86  73  67  91  77  69  87  74  67  89  76  69  86  73  67  85  72  65  87  77  71  101 90  84  95  76  68  94  76  69  95  77  69  
94  76  68  93  75  67  94  76  68  96  79  72  101 86  78  102 89  82  107 92  85  107 93  86  102 89  82  94  78  72  92  75  67  93  80  72  87  82  78  71  64  60  78  71  66  84  77  72  82  76  71  75  68  63  74  67  62  75  69  64  74  67  63  72  65  60  79  72  67  73  67  63  71  64  60  75  66  62  75  67  63  83  78  74  89  83  77  89  74  67  91  76  68  91  75  68  94  79  72  96  80  73  93  77  70  92  77  69  92  76  69  94  77  69  93  78  71  92  76  68  87  72  64  87  72  64  89  72  64  95  82  75  96  90  86  85  72  65  88  74  67  81  68  61  86  73  65  85  72  65  87  74  67  87  74  67  95  82  75  91  76  69  86  73  66  88  74  67  92  78  71  88  75  68  83  69  63  85  77  71  91  84  79  96  77  69  99  80  72  95  76  68  
99  88  81  93  76  68  92  75  67  99  88  81  98  89  82  94  85  79  98  89  83  96  88  82  96  87  81  97  87  81  92  79  72  92  78  71  89  78  71  81  68  62  89  75  68  105 93  85  100 88  81  87  73  66  85  70  63  94  78  70  88  73  67  83  69  62  95  80  73  92  77  70  91  81  74  90  85  80  89  84  80  95  92  87  99  96  92  93  87  81  107 99  93  108 100 94  91  84  79  96  89  84  102 94  88  110 102 97  110 103 97  107 99  92  103 96  90  102 94  89  104 97  91  100 92  86  100 91  85  99  91  85  105 99  93  102 95  89  103 96  91  98  92  87  96  91  86  94  88  83  98  92  87  100 93  88  104 97  91  107 100 95  105 98  92  104 94  87  99  92  87  99  93  88  94  89  83  94  89  85  102 99  94  99  91  86  101 92  86  101 92  86  
89  76  70  90  73  64  92  76  68  90  72  64  92  75  66  93  74  67  87  69  62  89  71  63  89  71  63  91  72  64  88  70  62  87  69  62  87  69  61  89  72  63  93  74  66  91  71  63  96  80  72  97  78  69  103 80  70  103 79  70  97  75  67  95  75  67  102 79  70  108 85  75  106 85  76  99  82  74  93  77  69  97  81  74  99  84  76  97  81  73  97  81  72  98  85  77  101 97  93  94  87  82  86  74  67  91  77  70  93  79  71  97  82  74  94  79  72  88  73  66  83  68  60  82  68  61  89  75  67  93  79  71  91  76  68  99  82  74  100 85  77  92  80  72  97  88  83  93  85  80  86  76  70  82  73  67  82  73  67  89  75  68  88  78  71  81  71  66  78  69  63  81  72  66  81  72  66  84  76  70  88  79  74  84  75  69  79  70  65  84  74  69  
87  72  65  92  75  67  93  76  68  93  76  68  96  79  71  93  76  69  89  71  63  93  76  69  89  72  64  94  76  67  93  75  67  89  72  64  87  70  63  89  72  65  87  71  64  85  68  60  99  89  83  102 85  77  95  74  66  93  73  65  94  75  66  95  75  66  100 79  70  105 84  74  105 83  74  98  78  69  99  79  70  97  77  69  99  79  70  101 80  70  96  76  68  94  74  65  99  91  85  92  79  72  91  74  66  91  75  67  90  74  66  93  77  69  97  80  71  90  73  65  88  71  63  88  71  64  90  73  65  90  75  67  88  73  65  89  72  65  104 86  78  99  81  73  87  73  65  86  74  68  88  75  69  90  79  73  86  74  67  78  64  57  84  71  65  86  74  68  91  81  75  83  72  66  84  72  66  84  73  67  80  69  63  81  69  63  81  70  64  84  72  66  
89  75  69  92  75  67  92  75  67  93  76  69  93  77  69  90  73  65  92  74  66  93  76  69  89  73  65  85  69  61  89  71  63  90  73  65  90  74  66  90  73  65  88  71  64  87  69  62  93  84  76  98  81  73  95  74  66  101 81  72  103 83  73  99  80  71  97  77  68  95  77  68  99  79  70  103 83  73  107 88  78  102 82  74  96  77  68  95  76  67  98  80  70  99  79  70  101 90  83  94  81  74  91  76  67  92  77  70  93  78  70  91  76  68  93  77  70  91  75  68  91  76  67  92  76  68  91  75  67  91  75  67  90  75  66  91  75  68  88  73  66  91  75  67  87  74  67  81  70  65  81  70  64  88  77  71  85  74  68  80  70  64  81  70  64  81  70  64  84  73  67  82  72  66  82  71  65  85  73  67  86  74  68  84  73  66  82  70  65  83  72  66  
91  76  70  95  78  69  95  78  69  95  77  70  97  79  71  100 82  74  94  77  69  92  75  67  94  76  67  92  75  67  88  70  63  89  72  64  89  71  63  97  78  70  92  74  65  90  73  64  85  78  72  95  81  74  98  77  68  103 82  72  106 83  73  94  73  65  96  76  67  102 80  70  100 79  70  97  76  66  101 81  71  107 86  77  97  78  69  100 80  71  106 85  75  106 84  74  97  88  82  93  80  74  90  73  65  90  74  66  90  73  65  91  74  67  88  72  64  89  73  65  89  73  65  87  70  63  89  72  65  90  74  66  91  75  67  91  75  67  90  74  66  89  72  65  85  71  64  80  69  62  83  72  65  84  70  64  86  73  67  82  72  66  82  72  66  79  68  63  81  69  64  82  71  64  83  72  66  82  71  66  84  73  67  77  66  60  84  72  65  85  73  67  
100 92  87  102 93  88  102 94  89  103 95  90  103 95  89  105 96  89  111 102 95  104 96  90  95  87  81  100 92  86  104 94  88  98  88  81  95  85  79  102 92  85  97  87  81  91  83  77  98  95  90  95  90  85  98  87  80  101 81  71  107 85  75  107 94  86  100 91  85  110 100 94  117 107 100 107 96  90  98  83  75  99  79  69  106 85  76  99  80  70  103 84  75  109 93  85  96  92  87  94  85  78  100 86  78  103 90  84  103 89  81  101 86  79  100 87  80  98  83  76  103 89  82  98  86  79  97  84  78  94  80  73  101 88  81  97  84  77  101 89  82  101 89  82  95  85  79  92  83  78  95  86  80  93  85  80  90  81  76  81  71  65  80  68  62  82  70  64  84  72  66  82  71  66  82  70  65  83  70  63  89  79  72  92  85  80  102 95  89  103 97  92  
80  70  64  78  69  64  79  69  64  77  68  63  78  69  64  79  71  65  85  75  70  85  75  69  93  89  85  87  79  75  81  70  63  80  70  64  81  70  64  80  69  63  76  66  60  80  70  64  97  86  79  97  85  78  92  81  75  95  81  74  94  79  72  94  82  76  90  79  73  86  75  69  87  76  70  82  76  71  79  72  68  76  68  63  77  69  63  76  69  64  92  86  81  94  90  85  103 99  95  91  87  82  88  83  79  88  83  79  88  82  78  86  82  77  87  83  78  94  88  84  91  86  80  94  85  77  93  84  77  97  87  80  110 98  91  104 93  86  99  89  83  100 90  84  96  87  80  95  85  79  100 91  84  107 97  90  101 91  84  98  87  80  96  78  70  97  78  68  99  81  73  86  75  68  78  67  62  84  72  66  82  72  66  91  82  77  87  78  71  85  75  69  
88  77  71  84  71  65  83  71  65  80  68  62  82  70  64  82  71  65  82  71  65  78  66  60  90  83  78  87  76  69  82  69  62  83  70  63  90  75  68  92  78  71  85  73  66  81  68  61  85  71  64  93  79  71  93  78  71  97  81  74  99  85  77  93  79  72  90  75  69  88  74  67  85  72  66  73  65  61  75  68  64  74  67  63  75  68  63  74  67  62  72  65  61  74  67  62  77  69  64  77  70  65  77  69  64  74  67  62  75  67  63  72  65  61  76  69  64  82  73  68  76  68  62  94  74  64  97  76  66  101 79  70  111 88  78  105 84  75  98  78  69  103 83  75  99  80  71  97  78  69  100 80  71  104 82  72  101 80  71  101 81  72  98  78  70  98  79  70  103 83  75  85  72  66  82  71  65  82  71  65  82  71  65  84  72  66  82  71  65  86  73  67  
84  72  66  81  71  65  82  70  65  78  68  62  81  71  65  87  75  70  85  74  68  85  74  68  93  86  81  87  76  71  88  75  68  85  72  65  87  74  68  97  83  76  87  74  67  87  74  68  85  72  65  88  74  68  93  79  72  92  78  70  97  81  74  90  77  70  85  73  66  84  70  63  89  76  68  87  81  75  74  66  62  71  64  60  78  71  66  77  70  65  74  67  62  82  75  70  84  76  71  79  71  66  78  70  66  77  70  65  78  70  65  74  68  64  75  68  63  76  69  64  80  71  66  95  77  69  98  78  70  99  80  71  100 81  72  107 88  78  111 91  81  107 88  80  102 83  74  105 86  78  102 83  74  101 81  72  103 83  74  102 83  75  98  79  70  97  78  69  101 82  74  87  75  69  87  75  69  83  72  67  86  75  69  81  71  65  81  70  64  85  73  67  
81  70  64  83  71  65  81  70  63  79  68  62  81  70  64  88  73  66  87  74  68  86  74  67  93  86  81  84  73  66  82  67  59  84  71  65  82  69  62  83  70  62  80  66  60  90  77  70  90  76  69  91  76  70  92  77  69  89  74  67  85  71  64  83  70  63  85  72  65  83  69  62  89  77  71  92  88  83  73  65  60  78  71  66  78  70  65  77  69  64  77  71  65  80  71  66  79  70  64  76  69  64  79  72  67  71  64  59  72  65  61  81  74  70  78  71  66  73  66  62  72  65  60  96  77  69  99  79  70  101 82  73  99  80  71  101 82  73  102 84  74  102 83  74  100 81  73  99  79  71  98  78  69  100 79  70  105 83  74  97  77  68  98  79  70  100 80  71  104 94  87  86  77  71  82  70  64  82  71  65  80  68  62  80  68  63  80  68  62  81  69  63  
92  83  77  86  75  68  86  75  69  88  78  72  97  88  82  99  87  81  96  85  78  98  87  80  93  91  86  87  81  75  92  81  75  99  88  82  95  85  78  93  83  76  100 88  82  99  88  82  90  80  73  81  71  64  90  79  72  96  86  80  95  85  79  95  85  79  96  86  79  94  84  77  92  86  81  89  87  83  84  79  75  78  72  67  79  73  69  77  70  66  73  67  63  74  67  62  77  69  63  79  71  66  77  70  65  76  69  65  78  71  67  81  74  70  79  71  66  79  72  68  80  72  67  99  81  71  103 83  73  103 83  74  104 85  76  98  78  69  97  78  69  103 84  75  99  79  70  105 85  76  104 86  78  110 92  84  112 94  87  109 94  86  108 92  85  101 87  80  93  88  84  92  87  82  90  81  75  96  87  81  95  86  81  94  86  80  92  83  78  95  86  80  
99  96  91  96  88  83  86  78  72  97  91  86  90  85  81  89  84  79  86  81  76  94  87  82  95  92  87  94  90  86  93  87  83  92  86  81  87  82  77  88  83  78  92  86  82  96  90  85  98  93  89  98  96  92  101 95  90  98  89  82  95  85  79  95  86  80  99  90  83  98  88  82  101 93  87  104 97  91  94  85  78  99  88  81  93  80  74  90  76  69  88  75  69  83  69  63  91  81  75  92  88  84  89  85  80  101 97  92  100 96  91  97  93  88  95  90  85  98  94  89  101 97  92  104 95  88  108 99  93  107 98  92  107 98  91  98  88  82  104 90  83  97  80  72  94  77  70  93  82  75  90  84  78  88  81  76  88  82  77  87  82  77  91  85  80  92  87  82  95  91  86  90  86  81  86  81  75  99  93  88  94  88  83  88  83  78  88  82  77  93  88  82  
98  90  84  96  93  88  74  66  61  81  73  67  78  69  64  79  70  65  75  67  62  75  67  62  80  72  67  87  79  74  76  67  62  71  63  59  76  67  61  75  67  62  83  74  70  82  73  69  81  72  67  99  95  90  105 90  82  97  76  67  96  76  68  98  78  69  97  78  69  99  79  70  98  78  69  99  80  71  97  77  68  97  77  68  102 81  72  105 84  74  101 81  72  102 81  72  98  79  70  102 97  92  99  93  87  89  78  71  85  74  67  84  72  66  82  71  65  84  73  67  85  74  68  85  74  68  81  71  65  79  69  62  82  72  66  93  82  75  88  76  70  87  75  69  84  72  66  80  69  63  74  64  59  74  65  59  76  66  61  82  72  66  85  74  68  79  68  63  81  70  63  78  67  61  81  70  64  84  71  66  77  66  60  77  67  62  80  69  63  87  75  69  
91  82  75  96  90  84  80  71  66  80  72  67  77  69  64  76  68  62  79  71  66  80  72  66  87  79  73  80  72  66  78  70  65  75  67  62  77  70  64  76  69  64  81  72  66  83  75  69  80  72  66  92  86  81  98  81  73  99  79  70  98  79  70  100 82  73  98  80  72  94  76  67  98  80  71  98  79  71  103 84  76  102 84  75  98  80  71  95  78  68  100 82  73  100 81  73  96  77  69  103 94  88  94  82  75  83  70  64  87  74  67  87  75  67  85  72  65  85  72  65  84  71  65  94  80  72  89  76  70  86  73  67  88  75  68  87  73  67  85  72  66  86  73  67  88  75  68  85  73  67  83  74  68  77  67  62  79  68  62  85  74  68  82  72  66  79  70  64  81  71  65  80  71  65  86  75  69  86  75  69  78  68  62  78  68  63  78  69  63  86  76  70  
86  77  71  96  87  82  79  69  64  77  70  65  76  69  64  76  68  63  78  69  64  78  70  66  81  73  68  77  68  64  74  66  62  74  66  61  73  66  61  75  67  62  77  69  63  78  69  64  77  68  64  90  85  80  101 84  76  97  78  69  97  79  71  99  80  72  100 81  71  101 82  74  99  81  72  98  80  71  105 85  76  103 84  75  97  78  69  100 81  72  99  80  71  97  79  70  98  78  68  105 95  88  93  82  76  83  69  62  86  74  67  86  73  67  88  76  69  86  73  67  85  73  67  90  76  69  95  82  74  89  76  70  87  74  68  86  74  67  84  71  64  87  74  67  84  71  65  82  71  65  87  77  72  83  73  68  79  69  63  77  66  61  84  75  70  81  71  66  79  69  64  80  70  64  82  71  66  81  71  65  78  68  63  79  69  64  80  70  65  83  73  68  
84  75  69  90  85  81  75  67  62  76  69  64  75  68  64  77  69  65  75  68  64  78  70  66  76  68  64  78  70  65  78  70  66  77  69  64  78  69  65  78  71  66  78  70  66  77  69  64  78  69  64  87  84  79  98  84  77  101 80  72  101 83  73  102 83  73  102 82  73  103 83  74  99  80  71  104 84  75  107 86  76  105 86  77  103 82  74  105 85  76  102 83  74  103 83  75  103 82  73  95  88  82  87  78  72  84  69  62  90  76  68  86  73  67  84  70  64  87  73  67  85  72  65  85  71  65  88  74  67  90  77  70  89  76  70  88  75  69  87  75  68  91  78  71  85  73  66  83  72  65  84  73  67  83  72  66  81  71  65  82  71  66  83  73  67  82  71  66  79  69  63  78  69  63  77  68  63  79  69  64  78  69  64  81  71  66  85  76  69  86  77  71  
90  77  71  95  84  76  85  73  66  84  72  67  82  71  65  83  71  65  86  74  68  84  71  65  88  79  73  98  94  89  98  94  89  100 95  91  102 97  92  100 95  90  98  93  88  92  88  83  89  86  81  97  95  91  95  90  85  103 93  86  111 102 95  106 96  90  104 94  88  104 94  88  94  86  81  93  86  80  105 96  90  105 96  90  105 96  89  109 100 92  108 99  92  104 94  88  96  88  82  97  94  90  95  92  88  94  87  82  87  76  70  90  79  73  95  87  81  94  87  81  89  84  79  94  87  81  91  81  74  96  88  82  101 94  89  102 95  90  102 96  91  101 95  89  103 97  92  103 97  92  100 94  89  97  92  87  96  90  85  99  94  89  100 95  90  97  93  87  93  87  82  83  70  64  86  73  67  85  72  65  82  69  62  83  70  64  90  75  68  92  77  70  
94  77  69  91  74  66  93  75  66  97  80  71  94  77  69  93  76  68  94  77  69  92  75  67  100 92  86  94  87  82  87  75  69  90  77  71  90  78  71  88  76  69  81  69  62  81  68  62  89  77  71  96  85  78  84  73  68  87  76  70  89  78  71  86  72  66  89  76  70  86  76  70  96  93  88  91  85  79  85  74  67  85  74  67  83  71  66  81  70  63  88  77  70  84  73  67  84  73  67  91  81  74  90  78  71  92  80  73  90  77  70  91  78  71  92  80  72  88  78  71  101 98  94  91  85  80  85  74  68  84  76  70  78  69  64  82  73  67  83  74  69  78  69  64  83  73  67  81  72  67  78  70  65  77  68  63  76  68  62  77  68  62  81  72  66  82  74  69  92  89  84  92  77  70  93  75  67  90  74  66  90  73  66  89  73  65  92  74  66  95  77  69  
92  76  68  92  75  68  90  74  66  97  80  72  93  76  69  91  75  67  90  74  67  94  77  68  96  87  81  85  74  68  85  71  63  92  77  70  94  78  71  88  74  68  84  71  64  83  69  63  90  75  68  95  80  72  89  75  69  93  79  73  93  78  71  91  76  68  88  74  67  85  71  64  94  85  79  86  73  67  89  73  65  91  75  67  87  74  66  88  74  66  97  81  73  90  75  68  85  71  64  86  72  65  89  74  66  94  78  71  95  79  71  94  78  70  90  75  68  91  75  67  97  88  81  88  78  73  80  69  63  83  73  67  81  70  64  87  75  69  87  76  70  80  70  64  83  71  65  83  72  66  80  70  64  79  69  63  78  68  62  78  67  62  78  67  62  77  66  60  89  83  78  93  78  71  87  71  64  87  72  64  88  73  65  91  74  67  90  73  66  89  73  65  
91  75  68  92  75  68  98  81  73  99  82  74  93  77  70  90  75  67  94  78  70  96  77  68  95  86  80  87  76  70  85  71  65  89  74  67  91  76  69  85  72  66  84  71  64  84  71  64  87  73  66  90  75  67  93  77  70  95  81  74  95  81  74  89  75  67  86  73  66  89  75  68  91  78  70  89  74  68  87  72  65  84  70  63  85  72  65  89  75  67  91  76  69  88  74  67  87  73  66  87  73  66  90  76  69  93  78  71  95  81  72  90  76  69  90  76  70  91  76  69  90  77  70  85  74  69  82  71  65  81  71  65  82  71  66  85  75  69  83  73  67  84  74  69  83  72  66  85  74  68  81  71  65  83  72  66  81  71  66  79  69  64  80  69  64  84  72  67  96  90  84  92  78  71  88  72  64  90  74  66  90  74  66  91  74  66  90  73  66  90  74  67  
93  76  68  95  77  68  101 83  75  103 85  76  99  81  73  100 82  74  98  80  72  93  76  68  93  87  81  86  75  69  84  71  64  89  75  68  94  80  73  90  76  69  85  72  65  88  74  67  91  77  71  85  71  63  88  74  67  95  80  73  92  78  71  88  75  68  86  73  66  87  74  67  82  68  62  94  80  72  91  77  70  82  68  62  86  71  64  87  72  65  87  72  65  89  75  68  84  70  63  88  73  65  85  71  64  86  71  64  86  71  64  91  77  70  90  75  68  86  72  65  88  73  66  82  71  65  81  70  64  80  69  62  86  74  68  85  74  68  82  70  64  81  70  64  82  72  66  89  77  70  82  71  66  77  67  61  80  70  64  81  71  65  78  68  62  81  70  65  96  90  85  97  85  78  91  74  66  92  76  68  90  74  65  91  74  66  89  73  65  92  75  67  
104 97  91  106 98  92  107 98  91  106 97  91  102 92  86  106 98  92  100 92  87  96  89  83  95  91  86  86  74  67  86  73  66  84  71  64  83  69  63  85  71  64  92  76  69  97  80  73  96  81  74  87  74  66  92  77  70  93  79  71  88  75  67  85  72  65  88  74  67  86  72  65  85  74  68  96  82  75  93  78  71  86  73  67  90  78  72  95  84  78  88  78  71  87  76  70  95  83  76  98  86  79  99  88  81  101 90  83  102 91  85  99  88  81  98  87  81  99  87  81  102 91  85  96  87  82  97  88  82  91  81  75  98  89  83  97  87  82  100 91  85  90  82  77  82  73  67  85  74  67  88  77  71  84  73  67  83  73  67  80  69  64  83  72  68  78  67  61  90  84  79  97  93  88  97  89  84  100 92  86  108 99  93  101 94  88  88  81  76  92  85  79  
94  79  72  93  78  70  93  77  70  90  75  68  89  73  66  88  73  66  89  74  67  95  79  71  95  78  70  88  71  63  93  75  66  95  77  69  91  73  65  85  67  59  98  86  79  104 86  77  99  78  69  99  80  71  98  79  70  105 86  78  102 83  74  97  77  69  101 81  72  106 84  74  105 91  84  105 93  86  102 86  77  98  83  74  100 90  83  99  91  85  95  93  88  97  94  89  99  93  89  94  87  82  91  86  81  92  87  82  94  89  84  90  85  80  87  83  78  90  86  81  90  85  80  89  84  79  87  83  79  88  83  77  88  83  78  94  88  83  98  92  87  93  86  80  96  87  81  93  79  72  89  75  68  88  74  68  85  70  64  90  76  69  89  76  69  84  72  65  85  72  65  84  72  67  83  71  66  79  68  62  84  73  66  87  78  72  97  93  90  95  86  81  
96  77  68  100 81  73  100 80  72  100 81  72  95  77  69  94  75  67  93  75  66  95  76  67  97  77  67  90  72  65  93  76  68  96  77  69  95  76  68  91  72  65  96  86  80  100 82  74  103 82  72  106 85  77  103 83  74  107 88  79  100 79  71  100 80  71  101 81  72  101 79  69  101 79  70  98  76  68  100 80  71  101 81  72  99  79  70  99  79  70  103 95  90  90  84  80  82  73  68  82  73  68  76  68  63  81  72  66  85  76  71  77  68  63  75  67  62  77  69  64  75  66  62  78  68  63  79  68  62  80  70  65  78  68  62  77  68  62  87  78  72  90  76  70  88  73  66  86  72  66  84  71  65  86  72  66  87  73  66  86  72  66  86  73  65  85  72  65  84  70  64  85  71  65  88  74  67  86  72  64  89  75  68  83  68  61  90  82  78  92  76  70  
95  77  68  95  78  69  97  77  68  98  79  70  93  75  67  95  77  68  92  74  65  99  80  72  99  80  72  101 83  74  101 81  73  95  76  68  94  76  68  93  74  66  94  84  78  97  80  72  98  77  69  115 95  86  107 86  76  104 84  75  104 84  76  98  79  70  106 85  75  100 79  70  98  78  69  98  78  69  100 80  71  106 85  77  102 82  74  106 84  75  105 95  88  96  88  84  86  76  71  84  75  70  88  79  73  86  78  72  84  75  70  80  72  67  81  73  69  83  76  70  80  72  67  78  69  64  81  72  66  81  72  67  80  72  66  77  68  63  92  87  82  98  85  78  94  79  72  88  74  67  88  74  68  86  73  66  88  74  67  87  74  67  87  74  67  89  76  69  87  74  67  86  73  66  90  77  70  90  76  69  92  78  72  85  70  63  90  81  76  93  77  70  
97  77  68  95  76  67  92  74  66  92  74  65  95  75  67  97  78  69  93  74  65  95  76  67  97  79  71  99  79  70  97  76  67  99  79  70  93  73  65  92  73  65  94  85  79  102 85  77  107 83  73  108 87  77  114 90  80  101 79  69  103 82  74  104 83  73  108 86  76  101 79  69  102 80  71  98  77  68  99  77  68  99  77  69  99  78  69  104 82  71  100 91  85  90  82  77  85  75  69  80  71  66  79  70  65  81  72  67  83  74  69  77  69  64  78  70  65  78  70  65  77  68  63  78  69  64  78  70  65  77  69  64  77  68  63  77  68  63  89  84  79  94  81  74  91  75  67  86  72  65  84  71  64  86  72  65  88  74  67  83  69  61  88  74  67  86  72  65  88  73  66  84  71  64  84  70  64  91  76  69  90  74  67  83  69  62  90  83  78  95  80  72  
100 86  78  101 86  78  102 87  79  109 92  84  113 96  88  109 92  84  107 92  84  102 87  79  91  77  69  93  79  72  102 86  78  107 91  84  102 87  80  97  84  77  95  91  87  98  88  82  108 90  81  117 99  91  119 101 92  111 95  86  107 90  81  118 99  90  111 94  85  100 84  76  94  78  70  99  83  76  107 90  83  109 92  85  108 91  83  101 86  78  95  91  86  88  84  79  89  82  76  91  84  78  90  84  79  93  86  80  103 96  90  96  90  84  94  88  82  87  80  76  84  76  71  81  73  68  83  76  71  89  83  78  90  84  79  85  80  75  93  90  87  96  89  84  100 87  80  98  87  80  100 89  83  99  87  80  100 88  81  96  86  80  99  88  82  93  81  74  87  76  70  90  79  73  96  85  79  97  85  79  92  79  72  89  78  72  93  89  85  92  83  78  
89  84  79  97  91  86  89  83  78  88  82  77  92  87  81  90  84  78  91  85  80  93  88  84  95  93  88  95  92  87  93  85  80  89  81  76  91  84  78  92  85  79  98  92  87  93  86  81  93  84  78  90  82  76  93  86  80  95  87  82  92  83  78  98  89  82  93  85  79  91  85  80  93  90  86  91  88  84  84  78  73  83  78  72  87  82  77  90  84  80  95  91  87  93  89  84  88  84  79  88  84  79  86  81  76  88  83  79  99  93  88  98  92  86  94  88  83  92  89  85  96  94  90  89  82  78  98  89  83  96  88  82  95  88  82  92  86  80  100 95  90  95  89  84  99  90  85  101 92  87  93  87  81  91  84  78  91  84  79  90  83  78  91  84  78  95  89  84  95  93  88  95  92  87  90  85  80  94  88  83  86  80  75  87  82  77  94  90  85  92  87  83  
77  67  62  82  72  66  79  70  64  76  66  61  78  68  63  77  67  61  80  70  65  77  67  62  95  90  86  93  82  76  87  71  64  84  70  63  83  68  61  86  71  64  90  75  68  86  71  64  81  66  59  81  66  59  86  71  64  85  69  62  85  70  63  86  71  64  85  69  62  81  67  60  95  89  83  81  75  70  70  61  56  72  64  60  73  64  59  74  66  61  78  70  65  81  72  67  76  67  62  77  70  65  84  75  70  76  67  62  82  73  68  79  70  64  74  64  58  76  68  63  93  90  85  90  79  72  90  75  68  85  71  64  85  71  64  90  76  69  86  72  65  90  75  68  92  77  70  91  76  68  85  71  64  89  75  68  83  69  62  82  68  61  82  69  62  80  67  61  100 94  89  84  77  71  79  67  61  83  72  66  74  65  60  74  64  59  75  65  60  75  66  61  
82  72  67  82  73  67  86  75  68  83  73  67  80  71  65  80  71  65  80  71  66  76  66  61  89  83  78  91  78  71  87  72  65  84  69  63  87  73  66  85  71  64  85  70  63  90  75  68  87  73  66  90  75  68  90  76  68  88  74  67  87  73  65  88  73  66  86  72  64  84  69  62  89  80  74  78  72  67  77  69  64  77  69  64  77  69  64  77  69  64  82  73  68  88  80  74  79  71  66  82  73  68  80  72  67  80  72  67  82  74  69  80  72  67  79  71  65  79  71  66  88  84  79  88  77  70  87  73  67  88  75  68  87  74  67  92  78  71  86  72  66  90  77  69  96  81  74  94  79  72  91  78  71  91  77  70  88  75  68  87  73  66  88  75  69  87  73  66  92  84  78  79  72  66  76  67  61  88  79  73  92  83  78  81  71  66  79  69  63  82  72  68  
77  68  63  80  70  64  82  71  65  83  73  68  80  71  66  81  71  65  85  75  70  78  68  63  89  84  79  91  79  72  93  78  71  92  77  71  90  75  67  91  76  68  83  69  62  88  72  65  87  72  65  90  75  68  89  74  66  88  73  66  87  73  65  89  74  67  87  72  66  85  70  63  91  82  78  81  74  70  75  67  63  77  68  63  77  68  62  78  70  65  81  73  69  84  75  69  82  73  66  77  68  63  79  70  66  81  73  68  79  71  66  79  71  66  81  73  68  76  68  63  92  86  82  90  78  72  86  72  66  89  75  68  87  73  66  86  73  66  89  75  69  83  71  64  86  73  66  85  72  65  91  77  70  86  73  66  86  72  65  84  71  64  86  73  66  89  75  68  94  87  81  80  73  68  77  67  62  79  69  64  76  67  62  77  67  62  81  70  64  85  75  70  
79  70  64  78  68  63  80  71  65  82  72  67  81  72  67  83  74  68  87  76  70  86  76  70  90  85  81  91  80  74  89  73  66  99  83  76  97  80  72  92  76  67  91  77  69  89  73  67  90  74  66  85  71  64  89  74  66  89  73  66  88  73  66  89  75  67  87  72  64  86  71  64  92  85  79  82  75  71  77  69  64  80  71  67  83  73  68  79  71  66  81  72  67  81  72  67  84  75  71  80  72  67  82  73  68  86  78  72  83  75  70  81  73  68  81  72  67  78  69  65  86  83  79  92  82  76  90  75  68  90  76  69  91  78  71  90  76  69  93  79  72  88  74  67  86  73  66  85  71  64  88  74  68  90  75  69  88  74  68  89  75  68  87  74  67  85  72  65  92  87  81  80  73  68  81  71  65  74  65  60  72  63  57  77  68  63  76  67  62  75  67  61  
80  71  65  97  92  86  108 103 98  97  91  86  98  93  88  101 95  90  104 97  92  98  93  87  105 102 98  106 101 97  100 93  86  105 97  91  104 96  90  101 93  88  100 93  88  104 97  92  98  92  86  91  84  79  96  90  84  97  89  83  101 93  87  102 95  89  100 92  86  91  85  80  102 99  95  93  90  85  88  83  77  93  87  82  96  92  87  98  94  89  98  93  88  100 96  91  98  93  88  99  94  89  98  94  89  99  95  90  100 96  90  100 96  91  99  94  90  98  93  90  100 97  94  94  90  86  97  91  85  106 99  93  101 94  87  106 99  93  107 100 95  95  87  82  92  86  81  88  83  78  101 96  90  102 96  90  103 97  91  101 95  90  99  92  86  91  85  80  98  95  91  92  89  84  91  86  80  89  84  78  85  77  72  76  66  61  76  67  62  74  66  61  
79  71  66  104 95  88  103 85  76  102 85  76  97  79  71  95  79  70  94  77  69  97  80  72  107 90  82  108 91  81  97  80  72  99  81  72  98  81  73  95  78  70  94  76  68  100 83  74  108 98  91  107 102 97  97  83  76  99  82  74  97  81  72  92  76  68  94  77  70  98  82  74  104 88  81  100 82  74  93  75  66  94  78  70  99  82  74  98  81  73  97  80  72  103 86  77  100 83  74  82  71  65  83  73  67  83  72  67  85  76  70  81  72  66  80  71  65  82  73  68  90  81  75  85  76  70  81  73  66  82  73  68  78  68  64  80  71  66  89  80  73  83  74  68  92  88  83  98  96  91  84  78  73  79  71  67  78  70  65  77  69  64  78  70  65  78  71  65  87  79  74  81  74  68  78  71  65  79  71  66  81  72  66  75  67  61  76  67  61  80  71  65  
76  67  61  95  76  67  99  78  68  109 88  78  105 85  76  98  78  69  97  77  68  98  78  69  99  78  69  100 78  68  99  79  69  98  78  69  97  76  68  104 83  73  101 80  71  99  76  68  97  81  72  100 91  84  99  78  68  100 80  71  100 79  71  100 80  71  100 80  70  112 89  79  115 92  81  111 88  78  99  79  70  109 89  80  113 91  81  105 84  75  101 81  72  105 85  75  100 81  72  84  72  65  92  80  73  87  75  69  89  78  72  85  73  66  87  76  69  85  73  67  82  71  65  82  71  65  86  74  69  83  73  66  84  73  67  81  69  63  80  69  63  81  69  63  83  74  69  92  86  82  78  67  62  80  71  65  79  70  64  85  75  70  78  69  63  79  70  64  82  72  66  76  67  61  74  65  60  75  66  60  76  67  61  77  69  64  77  68  63  78  69  63  
78  68  61  96  77  68  98  79  70  97  78  68  105 84  75  105 84  75  98  79  70  95  76  67  97  78  69  102 82  73  103 83  75  98  78  69  99  79  70  104 83  74  99  78  69  101 78  69  101 84  76  97  86  80  99  79  70  100 81  72  99  80  71  100 81  72  103 82  74  101 81  71  107 86  76  103 84  75  95  75  66  106 85  76  112 90  80  101 82  72  100 82  73  102 82  73  102 83  74  92  79  72  82  71  65  84  73  68  87  77  71  81  69  63  85  74  68  87  76  70  85  74  68  84  72  66  86  75  69  82  71  65  81  70  64  82  72  66  80  70  65  80  69  63  83  73  68  91  85  81  78  68  63  80  71  65  80  71  66  84  74  69  82  73  67  85  76  71  84  75  70  77  69  63  76  67  62  80  71  65  77  68  62  78  68  62  76  67  61  78  69  63  
83  73  67  100 81  72  100 78  68  100 80  71  104 83  73  105 83  73  99  77  68  100 80  70  103 83  73  102 81  71  100 80  71  102 80  70  110 87  77  108 85  75  109 86  77  101 78  68  102 83  75  98  87  80  97  77  68  98  80  71  100 80  71  100 81  72  100 80  71  97  76  66  101 80  70  100 79  71  104 83  75  102 80  71  102 80  71  101 80  71  100 80  71  98  80  71  104 85  76  89  77  70  81  72  66  84  73  67  83  73  67  84  74  68  84  73  67  88  77  70  83  71  65  81  69  63  83  72  65  82  71  64  79  68  61  80  69  63  80  69  62  72  61  55  82  73  67  91  86  81  82  72  66  80  71  66  84  74  69  81  71  66  86  76  71  82  72  66  76  67  61  77  68  63  77  67  62  79  70  64  78  68  63  77  68  63  81  72  66  78  68  62  
99  92  88  107 98  91  103 93  87  106 96  90  106 97  91  105 96  89  117 107 101 115 105 99  105 96  90  107 97  90  100 92  86  98  89  84  105 96  90  114 103 96  114 101 94  103 86  78  95  76  68  101 88  80  98  78  69  98  79  71  99  79  70  101 82  72  99  80  71  103 91  83  105 94  88  109 99  93  112 102 95  115 104 97  115 106 99  105 95  88  104 92  85  107 86  76  114 94  83  101 92  85  89  77  71  87  76  69  85  73  66  89  77  70  88  78  72  99  90  84  98  88  82  96  88  83  97  89  83  95  86  81  97  88  83  98  90  84  95  87  82  87  79  73  93  87  82  94  88  83  79  70  63  83  73  67  80  70  65  77  68  62  81  71  66  90  81  75  90  84  78  91  86  81  93  89  84  85  80  76  89  84  80  96  91  87  97  92  87  96  91  86  
83  73  66  81  71  65  81  70  63  81  70  64  81  70  65  79  68  62  89  78  72  93  81  74  86  76  69  82  72  66  88  79  74  106 103 99  111 101 94  107 89  80  111 92  83  113 92  82  100 81  71  99  79  71  100 80  71  101 81  72  99  79  70  103 83  74  98  79  70  101 83  75  100 83  74  96  79  70  103 86  77  105 87  79  104 86  77  96  80  72  105 88  79  104 84  73  105 85  75  102 83  74  98  79  70  95  76  68  100 82  73  103 84  75  105 94  86  109 98  91  114 102 95  102 92  85  97  88  82  101 92  86  90  84  79  89  83  78  91  85  80  88  82  76  93  87  82  90  76  69  92  75  67  84  73  66  84  72  67  81  70  64  82  71  66  91  78  71  86  76  70  78  69  64  82  74  69  98  96  91  94  88  82  83  72  66  79  68  62  83  72  66  
84  70  64  87  74  67  85  71  64  85  70  63  87  73  66  86  73  67  80  66  59  87  72  66  92  78  72  86  72  66  80  66  60  95  83  77  105 86  76  109 86  77  107 85  76  104 82  72  99  79  70  96  77  68  99  80  71  99  80  70  98  78  68  106 85  76  102 82  73  99  78  68  99  79  70  104 82  73  111 89  80  111 88  78  102 80  69  101 81  72  106 85  76  109 89  79  101 82  73  102 83  74  103 83  74  106 86  77  103 83  74  98  78  69  99  80  71  99  79  69  105 84  73  100 80  71  97  77  67  102 81  72  81  70  64  76  66  60  81  70  64  80  69  63  80  69  63  84  72  66  89  77  71  83  72  66  83  71  65  80  69  63  82  72  66  85  73  67  78  67  62  79  68  62  79  68  62  89  83  79  86  76  69  82  69  61  84  71  65  85  72  65  
85  72  66  85  72  66  84  71  65  84  71  64  83  70  63  83  71  64  84  72  65  87  74  68  89  75  69  86  72  66  82  70  64  86  71  64  103 82  73  106 85  76  102 83  73  101 82  73  99  79  70  98  79  70  100 81  72  100 80  71  98  78  68  101 81  72  101 79  69  103 82  72  97  79  71  104 84  75  107 86  76  108 87  76  104 83  73  102 82  72  112 91  81  105 86  76  101 82  74  99  80  70  106 84  73  109 88  77  102 82  72  102 83  74  100 81  71  101 81  71  103 85  75  108 89  80  109 87  77  106 86  77  86  75  69  77  67  61  82  72  66  83  73  67  82  72  66  83  73  67  83  73  67  83  72  66  84  73  67  83  72  66  82  72  66  82  72  66  81  71  66  83  72  67  80  69  63  89  83  78  85  74  68  83  71  64  86  74  67  87  74  68  
85  72  66  85  72  65  83  70  63  81  68  61  81  68  61  81  68  61  83  69  63  78  65  58  88  74  67  92  77  70  82  69  62  82  69  62  97  77  68  101 79  70  98  78  69  102 81  72  101 81  72  107 85  75  101 80  71  99  78  69  96  76  66  101 80  71  103 79  68  103 81  71  99  79  70  99  79  70  98  77  68  103 85  76  105 94  87  103 82  72  92  73  63  99  79  70  103 84  74  100 80  70  99  79  68  101 80  71  101 80  71  99  80  71  98  79  69  100 81  71  114 93  83  109 88  78  99  79  69  105 84  75  88  76  69  86  74  68  79  68  62  83  71  65  83  72  66  81  70  63  81  70  63  80  69  63  81  71  65  81  70  64  82  71  65  83  72  66  78  66  61  79  69  63  82  71  65  91  85  80  87  77  71  83  70  63  80  67  60  86  72  66  
84  74  68  87  77  70  95  85  80  97  86  81  99  88  82  95  85  79  96  86  80  94  84  78  96  85  79  95  84  77  98  87  80  99  88  81  109 94  86  114 98  90  108 92  84  103 88  80  96  80  72  102 86  77  111 95  87  108 93  85  110 94  86  111 95  87  118 98  88  111 92  83  105 90  82  110 95  87  102 86  78  95  86  79  94  90  85  109 93  84  103 87  79  102 87  78  99  85  76  101 87  79  107 93  85  107 92  84  111 95  87  110 95  87  110 96  88  108 93  84  109 90  81  107 86  77  108 87  78  102 83  74  88  76  70  87  76  70  87  78  72  92  81  75  83  74  69  86  78  72  93  85  79  97  88  82  95  88  82  94  86  81  94  85  80  94  86  81  94  86  81  93  84  79  91  83  77  95  92  87  94  88  83  95  85  78  95  85  79  91  81  75  
100 98  93  96  92  88  89  85  80  87  82  77  88  83  78  89  84  80  88  84  79  86  81  77  85  80  75  85  80  76  88  83  78  92  86  82  90  85  80  91  86  81  91  85  80  93  89  84  94  91  87  99  94  89  102 93  86  97  86  79  100 90  83  102 91  84  109 93  83  103 88  80  95  85  80  96  86  79  93  83  76  96  88  83  104 97  91  105 95  89  100 89  82  100 92  86  98  95  90  97  93  88  103 93  87  101 91  84  97  88  81  98  88  82  99  90  84  101 91  84  105 93  85  104 85  76  106 86  77  103 85  76  96  83  75  102 88  80  105 95  88  100 94  88  99  96  91  100 96  92  96  89  84  90  84  78  90  83  77  91  84  78  91  85  79  88  81  74  92  85  79  92  85  78  93  86  80  97  92  87  96  91  85  92  86  80  90  82  77  93  87  82  
111 106 100 94  88  83  76  68  63  71  63  59  72  64  60  74  66  61  74  66  61  71  63  58  69  60  55  73  65  60  70  62  58  74  66  61  78  69  64  79  70  65  79  69  65  74  66  61  94  91  86  102 88  81  100 79  70  97  76  68  98  78  68  106 84  73  107 81  69  112 85  72  97  77  69  98  76  66  97  77  67  100 80  70  103 82  73  104 83  73  97  78  67  99  80  71  103 96  91  102 89  82  99  79  70  99  78  69  99  79  70  99  80  71  99  80  70  102 83  74  104 84  74  101 82  74  101 83  74  101 82  74  102 82  73  109 88  78  107 86  77  101 80  70  101 95  89  89  81  74  84  70  63  86  72  65  80  67  59  82  68  61  81  67  60  83  69  62  90  75  68  85  72  65  81  68  62  82  69  62  83  71  64  80  67  61  82  69  63  84  72  65  
92  86  80  82  76  71  78  69  64  76  68  63  79  71  66  78  70  65  77  69  65  78  70  66  78  70  65  78  70  65  78  71  67  77  69  65  80  72  67  79  71  66  79  71  66  75  67  62  87  82  77  103 85  77  99  80  71  100 81  72  105 85  77  107 86  76  107 81  70  113 87  76  104 83  74  103 83  74  99  80  72  97  79  70  102 83  75  104 83  74  102 84  75  101 81  72  99  89  82  102 85  77  103 84  75  103 84  75  101 84  75  103 85  76  104 85  76  101 83  74  100 82  73  101 83  75  102 83  74  102 83  75  103 83  74  107 88  79  106 87  78  104 84  74  98  88  82  88  78  72  85  72  65  90  78  71  90  77  70  86  74  67  84  72  66  89  76  69  95  80  73  94  80  73  83  70  63  91  77  70  93  79  72  90  77  70  85  72  66  85  72  66  
91  84  79  79  73  68  76  68  63  77  69  65  84  76  70  79  69  64  76  68  63  75  67  63  78  70  66  83  76  71  81  73  68  80  71  65  76  68  63  74  66  61  83  76  71  77  70  65  89  84  79  101 85  77  102 82  73  98  80  71  98  80  72  105 83  74  108 82  70  109 85  75  100 81  71  101 82  72  100 81  72  98  79  71  99  80  71  101 81  72  99  81  72  98  79  70  104 90  82  108 91  83  104 85  76  105 86  77  102 84  75  103 84  75  103 84  75  102 83  74  109 89  80  111 92  82  102 84  74  100 83  74  100 81  72  106 87  77  107 89  80  106 86  77  107 97  91  98  86  80  87  74  67  87  74  67  85  72  66  85  72  66  84  72  66  85  72  65  94  79  72  96  81  74  84  72  66  93  79  72  91  76  68  91  77  70  96  83  76  87  75  68  
93  88  84  83  77  73  81  73  68  81  72  67  79  71  66  76  68  64  76  68  64  74  66  62  76  68  64  77  69  64  75  66  61  74  66  62  76  69  64  75  68  63  77  69  64  78  70  65  88  83  78  102 88  80  98  78  69  104 83  74  107 86  77  108 85  75  115 88  76  105 82  71  98  78  70  102 82  73  103 83  74  100 80  71  97  78  68  104 84  75  105 85  76  101 81  72  104 88  79  108 89  80  108 88  79  114 94  84  109 89  79  103 84  76  103 84  75  109 88  79  112 91  82  105 85  75  106 86  76  107 87  78  104 85  76  108 88  79  111 90  81  103 84  74  102 94  88  95  85  79  89  75  68  88  75  68  90  77  71  87  74  68  87  74  68  85  72  66  92  78  71  93  78  72  86  73  66  88  74  66  90  75  67  93  80  73  92  78  71  92  78  72  
101 99  94  87  81  76  73  65  60  79  71  66  79  70  65  81  73  68  76  67  63  75  67  62  77  69  64  78  69  64  76  67  62  78  69  64  77  68  64  77  69  64  78  69  64  94  88  83  101 98  94  98  93  88  99  90  83  104 93  87  113 102 95  109 98  92  115 103 95  108 98  90  97  89  83  93  86  80  103 95  89  107 98  92  110 100 94  108 99  93  109 100 94  107 98  92  98  90  84  103 94  88  109 100 94  112 103 96  107 98  92  105 97  90  106 97  90  111 102 94  99  91  85  93  86  81  104 96  89  108 99  93  109 100 94  108 99  92  107 98  92  98  91  86  100 97  92  100 95  90  94  88  83  101 95  90  101 95  90  101 95  89  100 94  89  99  93  87  98  92  87  88  82  77  95  89  83  94  87  80  94  88  82  100 94  88  97  91  85  92  87  82  
78  72  67  81  72  68  80  72  66  77  69  64  76  67  62  76  68  63  78  69  64  79  71  66  76  68  63  84  76  71  81  72  66  82  73  68  76  67  63  77  68  63  79  70  65  84  75  69  86  78  72  86  78  73  76  69  65  73  66  61  73  66  61  77  69  65  78  70  65  79  71  66  90  86  82  99  96  93  86  81  76  79  72  67  79  72  67  77  70  66  78  72  67  84  78  72  80  73  68  79  72  67  77  70  66  77  71  66  77  70  65  75  68  64  76  70  65  81  74  69  94  89  84  98  96  93  84  78  73  81  74  69  84  77  72  78  71  66  76  69  65  83  75  70  85  77  72  83  76  72  80  72  67  78  71  65  76  68  63  78  70  64  80  71  66  79  72  67  92  88  84  98  96  91  83  77  72  76  70  65  74  68  63  74  68  63  75  68  63  78  71  66  
81  72  68  79  71  66  85  77  71  83  75  70  74  66  62  75  67  62  76  68  63  76  67  61  74  66  61  76  66  61  81  72  66  84  74  69  80  70  65  83  74  68  82  72  67  79  71  65  78  68  63  80  70  64  79  70  64  77  68  63  78  68  63  76  66  61  76  66  61  76  66  61  82  74  69  93  87  83  80  70  65  81  72  67  80  71  66  77  68  63  77  69  64  79  70  65  76  68  64  77  69  64  78  69  64  77  69  64  88  78  73  82  73  68  80  72  67  76  67  62  79  72  68  94  89  84  80  70  65  82  73  68  84  74  69  85  75  69  81  71  66  79  69  64  76  67  62  77  68  63  81  71  66  81  71  66  78  68  63  82  72  67  82  72  67  76  66  61  83  76  70  92  87  82  76  67  62  79  71  66  77  68  64  77  68  63  76  69  64  79  71  66  
83  74  69  83  74  69  81  73  67  78  69  64  71  62  56  76  68  63  76  68  63  77  69  64  78  71  66  75  66  60  76  67  62  76  67  61  77  67  62  80  71  65  84  75  69  78  69  64  78  69  64  79  70  65  80  71  65  78  69  63  78  69  64  76  67  62  79  70  65  79  70  65  81  73  68  88  83  78  78  69  64  84  75  70  83  75  69  77  69  64  77  69  65  75  67  62  77  69  64  79  71  66  77  70  64  77  68  64  83  74  68  80  71  66  76  68  63  77  69  64  80  73  69  90  85  80  80  70  65  83  74  69  78  69  63  78  68  63  79  70  65  81  72  66  78  69  64  76  68  63  78  69  64  80  71  66  78  69  64  79  70  64  80  71  65  77  68  63  80  73  68  89  84  79  76  68  63  77  69  64  78  70  65  76  68  64  76  68  63  82  74  69  
83  75  69  83  75  69  83  74  69  75  66  60  74  66  61  77  69  64  79  71  67  83  74  70  80  72  67  78  69  63  78  69  64  78  69  64  78  69  64  78  68  63  80  70  65  79  70  65  78  69  64  79  70  65  78  69  64  78  69  63  75  66  61  76  67  62  82  73  67  82  72  67  80  72  67  88  83  78  75  66  61  82  73  68  79  70  65  76  68  63  77  69  65  79  71  66  75  67  62  77  69  64  78  70  65  78  70  65  78  70  64  79  72  66  78  69  64  78  69  64  81  75  70  93  88  83  80  70  65  82  73  68  82  73  68  82  73  67  80  71  65  79  70  65  78  69  64  78  69  64  76  67  61  76  66  62  78  69  64  77  67  62  79  68  63  79  69  64  82  75  70  90  85  80  79  71  66  76  68  63  75  67  62  74  65  60  76  68  64  79  71  66  
78  69  64  91  84  78  101 96  91  94  90  84  96  92  88  98  93  88  101 96  91  93  88  83  94  90  85  101 96  91  98  94  89  103 99  94  99  93  88  95  88  83  81  72  66  83  73  68  82  73  67  80  71  65  77  68  63  78  69  64  103 96  90  85  75  69  75  66  61  75  66  61  81  72  67  91  85  80  75  66  62  76  68  63  74  66  62  72  64  59  76  68  63  76  68  63  75  67  62  77  69  64  79  71  66  78  70  65  75  67  62  77  69  64  78  70  65  75  67  62  81  76  71  90  87  82  82  75  70  88  81  76  89  82  77  92  84  78  87  79  74  83  75  70  90  82  77  93  85  79  92  84  79  89  81  76  90  82  77  89  81  76  93  85  80  83  75  70  88  83  78  88  85  81  81  74  70  87  79  75  89  81  77  91  83  78  83  76  72  75  67  62  
