/* XPM */
static char *aeb8aef4103541e4f247b8961da7d818jVbmBicTqydrT8HU[] = {
/* columns rows colors chars-per-pixel */
"64 64 241 2 ",
"   c #0D0C0C",
".  c #110D0C",
"X  c #13110E",
"o  c #111010",
"O  c #141414",
"+  c #1A1513",
"@  c #1C1816",
"#  c #25180E",
"$  c #221615",
"%  c #251A15",
"&  c #2A1D14",
"*  c #281718",
"=  c #251B19",
"-  c #2B1C1A",
";  c #321E1C",
":  c #2E2116",
">  c #26221C",
",  c #2F221B",
"<  c #332316",
"1  c #392717",
"2  c #34241A",
"3  c #39261A",
"4  c #36281A",
"5  c #3C2B1C",
"6  c #3F301C",
"7  c #3B2522",
"8  c #382925",
"9  c #3D2B24",
"0  c #392D24",
"q  c #422E1D",
"w  c #43311E",
"e  c #48331E",
"r  c #452B25",
"t  c #422D24",
"y  c #432D29",
"u  c #492E2B",
"i  c #453322",
"p  c #4A3522",
"a  c #473825",
"s  c #4C3924",
"d  c #44332A",
"f  c #4B332C",
"g  c #4E3B2A",
"h  c #523C25",
"j  c #533D2A",
"k  c #55382D",
"l  c #4C3732",
"z  c #543B34",
"x  c #583A33",
"c  c #613F38",
"v  c #574127",
"b  c #55412B",
"n  c #5A432B",
"m  c #4A433D",
"M  c #554136",
"N  c #5C4134",
"B  c #5C4339",
"V  c #614837",
"C  c #61443A",
"Z  c #644A3C",
"A  c #6B4D3D",
"S  c #774B3A",
"D  c #6B513D",
"F  c #7B503D",
"G  c #4B4743",
"H  c #4D4B49",
"J  c #524B44",
"K  c #5B4A44",
"L  c #524E4C",
"P  c #56514D",
"I  c #5E5759",
"U  c #654E42",
"Y  c #694E41",
"T  c #695346",
"R  c #735545",
"E  c #765947",
"W  c #7C5D4A",
"Q  c #6B5D56",
"!  c #625C5C",
"~  c #7D614D",
"^  c #67625E",
"/  c #7C6353",
"(  c #78685C",
")  c #6B6562",
"_  c #6E6966",
"`  c #6B6568",
"'  c #6D696B",
"]  c #746B64",
"[  c #7A6D63",
"{  c #786A67",
"}  c #746D6C",
"|  c #7C7367",
" . c #76716E",
".. c #7B736D",
"X. c #756D72",
"o. c #786F72",
"O. c #777174",
"+. c #7A7474",
"@. c #777873",
"#. c #7E7975",
"$. c #7C757A",
"%. c #7F797C",
"&. c #884E3D",
"*. c #8A523E",
"=. c #98593F",
"-. c #875843",
";. c #8D5B43",
":. c #925E45",
">. c #995D44",
",. c #83634D",
"<. c #8B664D",
"1. c #986549",
"2. c #9C6649",
"3. c #856957",
"4. c #8B6B53",
"5. c #956D52",
"6. c #8C715C",
"7. c #937156",
"8. c #94735A",
"9. c #9B775B",
"0. c #A56B4C",
"q. c #A96A4A",
"w. c #B26F4D",
"e. c #AC7352",
"r. c #A77A5B",
"t. c #B57A57",
"y. c #887465",
"u. c #8C7665",
"i. c #81766A",
"p. c #847A6D",
"a. c #947A63",
"s. c #9D7C63",
"d. c #957C69",
"f. c #837B74",
"g. c #867A78",
"h. c #837C7C",
"j. c #A77E62",
"k. c #AC805F",
"l. c #B5845F",
"z. c #BC825C",
"x. c #99826C",
"c. c #8A8275",
"v. c #86817C",
"b. c #8A877B",
"n. c #8B847C",
"m. c #978777",
"M. c #948A7D",
"N. c #9D8D7C",
"B. c #9D917E",
"V. c #A48165",
"C. c #AC8464",
"Z. c #A4856B",
"A. c #A6876D",
"S. c #AC8B6D",
"D. c #B78966",
"F. c #BB916E",
"G. c #A58B72",
"H. c #AB8D72",
"J. c #AC9175",
"K. c #A4907B",
"L. c #AC937A",
"P. c #B39374",
"I. c #BA9774",
"U. c #B3967B",
"Y. c #B4997C",
"T. c #BA9C7C",
"R. c #BCA17F",
"E. c #C38B63",
"W. c #C6946A",
"Q. c #D29E6E",
"!. c #C79C75",
"~. c #D29E73",
"^. c #C4A17B",
"/. c #D4A378",
"(. c #847D82",
"). c #878182",
"_. c #8C8482",
"`. c #8E8983",
"'. c #8C858A",
"]. c #8F8A8C",
"[. c #918584",
"{. c #938B84",
"}. c #9A8C82",
"|. c #958A8B",
" X c #938C8B",
".X c #9D9286",
"XX c #95928D",
"oX c #9A978A",
"OX c #9A938E",
"+X c #8E8E90",
"@X c #948D91",
"#X c #998D92",
"$X c #959194",
"%X c #9B9493",
"&X c #9E9994",
"*X c #979799",
"=X c #9C9599",
"-X c #9E999B",
";X c #A39485",
":X c #AC9983",
">X c #A2968B",
",X c #A69489",
"<X c #A59A8B",
"1X c #AB9C8C",
"2X c #B59C82",
"3X c #B99E84",
"4X c #A39B94",
"5X c #A59997",
"6X c #A39C9B",
"7X c #A99E99",
"8X c #AEA08E",
"9X c #BCA284",
"0X c #B7A48C",
"qX c #BCA58B",
"wX c #ACA194",
"eX c #A7A29E",
"rX c #ACA39B",
"tX c #B1A494",
"yX c #BAA996",
"uX c #A49CA2",
"iX c #AA9EA2",
"pX c #AEA5A2",
"aX c #B3A8A3",
"sX c #B4AAA3",
"dX c #C3A584",
"fX c #C8A986",
"gX c #C2A689",
"hX c #C4AA8D",
"jX c #CAAC8C",
"kX c #D5AC84",
"lX c #D2B48F",
"zX c #C6AD92",
"xX c #CCB294",
"cX c #CCB59A",
"vX c #CDB89C",
"bX c #D1B799",
"nX c #D6B999",
"mX c #D4BA9C",
"MX c #CFBBA0",
"NX c #D5BDA1",
"BX c #D8C2A5",
/* pixels */
"G L L H H H G G m G G H H H H L L L P P P L H H L L J J J J J J H J J G J J J J J J J J J J G G G G l w < 5 p p h 5 < : : 2 q 4 ",
") $.h.g.+.o.o.} _ _ }  . . .@.%.%.h.h.h.v.g.h.#.g.f.f.p...f.p.i.i.i.i.i.p.p.f.p.| ] ] [ | | [  .] ) I p < 1 e e h w 2 : : 2 5 5 ",
"g.%X5X%X%X#X@X'._.|._. X XOX&X7X7X7XrXrXrXrX&X%X%X%XOX>X1XwX1X1X,X,X;X<X<X8X,X1X;X.XN.M.m.}.M.}.M.f.} j < 4 p p h p 4 : : < 5 5 ",
"h.5XiXiXiX6X6X%X|.%X%X&X5XeXpXpXaXsXsXsXsXpXrX7X>X>X;X;X<X1X3XyXyXyXyXyXtXtXtXyXtX<X<XM.M..X}.;X.Xb.g.j < w p h h w 5 2 4 5 w q ",
"h.=XuX6X6X6X6X5X$X5X&X&X-X6XpXsXsXaXrXrX7XtXU.Z.S.x.a.3.U U U y.x.L.yXwX1XwXtXtXtX<X<X}.}.;XM.}..XM.v.a < w e h h p i 2 5 4 p q ",
"(.=X6X6XuXuX6X5X&X&X&X%X%X4XpXrX7X5X5X5XwXG.z , $ $ + + + + + + = , B x..X>X<XwXtXwX4X>X;X;X}.}.;X.Xc.s < q e h h p i : 9 5 p t ",
"$.%X-X-X6XuX6X6X%X%X%X%XOX6XrXwXrXwX;X6.M , + + + O O O + + O O O O O 2 ( 1XtXtXtXtXrX.X>X<X}.}.M..Xc.h < w p h p s 5 < 5 5 p i ",
"+.%X6XuX-X=X6X%X%XOX%X&XOX%X7XrXtXK.U - + + O + O O O O O O O O O O O O 8 a.0X0XtX1X4X.X<X<X.X.Xn.M.c.j < w s h h h q < t 5 q q ",
"+.@X=XuXuX6X5X%X&X%X%X5X%X%X%XrXd.B = + + + O O O O O O O O O O O O O O + 9 N.1XwX1XwX>X>X.X.XOX[.[.v.g < 5 p h h b 5 2 w w t p ",
"h.$X6XuXuX6XOX%X&X%X%X%XOX&X5X<XT - + + + O O O O O O O O O O O O O O + + $ T wXwXwXrXrX7X4X%X%X[.|.h.a < 5 s v s h p t a i i q ",
"%.-X6XuX6X=X5XOX%X$XOX&X6X7XpX,XB $ O O O O O O O O O O O O O O O O O O + $ M 1X>X<X>X5X5X%X X|.[.[.h.b < 5 p v w h g 4 g 5 3 p ",
"$.@X6X=X=X$X@X{.%XOX%X%X%XrX7X1XY $ O O O + + O O O O + O + O O O O O O O + m 1XOX}.OX4X&X|.[.[.g.{.g.b < w s h p j s & d s 5 s ",
"%.@X%X%X=X=X=X$X%X|.OXOX&XeX7X4X3.= + O O + O O + O O O O O O O O O O O O $ T .XOXOXOX5X&X X_._.g.[.g.b 2 p h h p n i % q i q s ",
"%.%X$X@X6X-X6X%X%X|.|.OXOX6X%X4Xd., + + + O + + O O O O O O O O O O O O + = ^ }.OXoXOX6X%X'._. X_.{.g.b < q n h w s i & i j p s ",
"%.-X-X%X6X=X-X%X XOXOX|.XX6X6XoXN.9 + + O O O O + = 9 9 y y 7 = O O O O + , p.<X4XXXOXoX&X&X$X#X[.|.g.b 4 w j h q w p < f b i f ",
"$.=X6X%X X@X%X$X$X$X%XXXOX6X5X&XN.d + O O + - f F 0.2.2.2.2.-.A f , + O + 0 N.{.oX%XOX5XoX%XOX#X X Xh.b < 5 v h w 5 p : p p p g ",
"X.'.`.[._.].@X X@X=X X|.OX6X&XoXu.2 + O - c 1.t.E.q.-.-.1.2.2.1.2.1.A * + 0 m. XXXXXOX%X$X@X'.@X)._.#.n 5 5 j h w w i < p p p q ",
"' $.h.h.g.v.v._.].*X+XXXXX&X4X;Xa.7 7 N E k.l.!.t.1.:.-.*.*.=.1.;.:.:.A $ 8 c.`.XXOX&X%X%X@X'.).h.h. .b 4 5 n h w w i < w q q e ",
"' %.h.$.$.h.v._.].$X$X$X%X%X<X2XT.d.d.4.9.F.W.j.t.2.F *.&.-.:.;.S S S F 2 8 d.OX XOX&X$X@X X'.).v.v. .g 4 5 h s s q t < q q q q ",
"' (.(.h.$.h._. X XXXXX%X%X4X0XgXvXP.9.5.j.W.~.D.>.S r -.R 1.z.S F :.;.-.9 l c.{.{.%X$X%X].'.].h.+.#.} s < 5 j h s h i 4 i q q p ",
"` h.$.%.%.h.].@X_.XXXXXXOX1XgXxX9XV.7.j.C.W.Q.W.D.0.>.;.;.t.W.-.x k ;.-.R 6.N.{.{.&X-X X).(.h.%.+.+.} i 4 5 p b h v i 3 q q w p ",
"' (.%.%.(.).'.'.h.'.]. X X:XgXqXP.C.r.D.C.D.~./.E.t.e.t.D.~.kX0.&.F S <.~ A.N.[.`.&X-X%X(.%.(.$.O. ._ p 5 i s s h h t 2 q 5 w w ",
"` h.(.h.%.h.(.(.h.'. XXXOXJ.qX9X!.j.D.W.D.D.W.t.t.t.z.t.D./.kXt.1.1.1.9.W 8.x.b.{.&X-X=X'.(.h.$.O.O.' a 5 e p s j h 5 3 q p q p ",
"! O.$.X.O.+.%.(.(.). XXX.XJ.3XY.U.D.t.F.D.D.E.e.t.z.w.0.Q./.~.z.e.0.e.9.W 7.x.}.|.OX-X$X).h.%.%.$.$.` i 5 p h j n a 4 < 5 q p q ",
"I O.$.O.o.o.%.h.(.h.). Xm.G.2XU.H.S.r.F.D.F.z.e.z.q.=.w.t.e.w.0.q.0.q.5.W 7.a.M.{.{.&X Xg.h.$.%.$.h.' i 5 w p b h j 5 < 5 5 q < ",
"! O.$.+.O.+.+.%.h.#.#.h.c.G.2XP.J.Z.t.W.F.C.z.z.t.=.q.0.*.;.1.*.>.0.2.<.,.8.x.N.b.n.&X_.h.(.(.%.(.h.] i w 5 i s j s 5 1 5 5 5 < ",
"! O.O.....+.+.+... .} } | m.3XY.G.V.r.P.T.F.D.E.W.!././.l.:.-.;.2.0.1.,./ 6.G.N.b.c.`.v.%.$.%.O.h...] i 5 w w p h p q < 4 5 q 3 ",
"! } } ..O.........} ] ( ( u.0X2XH.9.j.dX9XI.!.!.lXlXkX~.z.2.1.r.C.r.2.,.3.6.K.K.v.h.h.#.O.$.O.X.+...) i < p i p h i q : < 5 4 < ",
"I ' } X.O.....| { ( / / 3.u.m.Y.Z.s.P.gX9X^.^.jXlXF.D.0.*.&.:.e.D.P.7.4.6.x.:Xg.h.#.#. .O.$.$.O.O.O._ i < a p g s w q : < 5 q < ",
"I } } } +.f...[ / Y B Z C k B ~ s.A.T.gXjXfXjXfXF.l.0.2.>.*.*.2.t.P.Z.6.x.2XG.(.).h.h.+.+.$.$.O.$.$.' i < i i b p p w : < q 4 < ",
"I } } } } [ 3.W B l f y 7 ; 2 M x.dX^.bXnXnXmXjXC.9.r.r.t.e.0.1.5.S.P.x.M.K.N.'.(.$.h.} O.$.$.$.$.O._ i 4 5 i b s p p 2 3 q 5 < ",
"I } } ] ( W A z u 7 7 * $ + = 3 y.xXgXxXnXbXxXdXP.C.V.S.P.D.D.r.5.j.S.U.2XP.g.X.' O.+.} X.O.$.$.O.+._ i 2 4 i h s s p < 2 w 5 1 ",
"! ] [ / E B z y 3 2 * $ + + * 9 T xXhXnXmXnXgXdXT.I.P.U.P.S.P.P.r.V.S.2X9XjX:Xf.h.h.#.X.O.+.+.+.O.+._ a 5 5 i v p p p : 3 q 2 3 ",
"! ( 3.-.C l y 2 2 * + + O O 2 C <.hXxXBXNXNXjXgXfX^.fX2XT.P.U.T.P.S.P.Y.3X0X0Xm.b.v.%.} +.#.+.$.%.+.] a 4 5 p n p p w & < q < 3 ",
"U W R z u 7 ; ; 7 $ + + O O - N A.hXxXBXmXBXxXjXxXjXxXzXzXhXY.9X3XJ.U.2X9XqX0XN.n.h.%.} +.%.$.$.h...) a 5 5 q h i s 5 : < p < < ",
"C C x y ; * ; ; $ + + + + O $ x 8.hXfXbXmXBXBXbXNXnXNXcXbXcXcXcXgX2XT.2X9XqX0X.Xn.%.h.} h.h.%.$.O. .^ g w 5 w p j h 5 & < q 2 < ",
"f l 2 = $ - * $ + + + + + + + u <.qXhXxXmXmXmXbXNXmXBXvXmXBXvXNXMXzXT.U.3XyXyXB.`._.h.+.h.(.%.$.O...^ j 5 4 5 p g h 5 & 2 i < < ",
"7 7 2 $ + * * + + + + + + O + 7 C x.U.dXnXBXmXbXmXcXNXmXbXmXvXvXcXgX9X9X9XyXyXm.b.[.h.| _._.f.h.g...^ n 5 5 5 p b s 5 % : q & & ",
"7 7 * $ $ - * + O O O O O O O - N R 7.P.xXmXmXcXbXhXxXxXxXcXNXvXhXqX9X9X9X0X1XM.b.n.#.| {.M.v.).(.#.) b w 4 5 w s s 2 $ : < & & ",
"y y * $ * 2 $ + O O O O O O + * 7 9 T s.hXvXcXxXjXhXhXjXhXxXgXhX9X9X3X2XgXY.;Xp.M.b.c.f.[.{.n._.(.#.) b w 4 5 p b s 2 $ : < & : ",
"l y 7 - - - + O O O O O + + O + = = K u.2XmXxXfXzXhX9X9XzXzXgX9XhX9X2X2X:XL.N.[ +.{.}.f.n.`.n.n._.#.) b 4 2 5 i n s 2 % & 4 & : ",
"z x u 7 ; - + O O O + O O $ O O O + 2 / L.cXzXhXdXgXU.U.3XgXgXT.T.3X2XY.:XL.9.u.( g.|.{.{.M.[.`.v.+.) b 4 4 5 p n p < * % < & & ",
"z c f 7 ; * + O O O O O O O + O O + + d / Y.hXgXdXgXY.P.P.P.P.S.C.H.U.L.L.L.r.4./ 3.g.|.{.{.}.{.f.+.) j 5 4 5 p n p 4 & & 2 < & ",
"z C k x 7 - - O O O O O O O O O O O + $ f m.L.U.^.dX9XP.P.S.S.S.j.V.S.U.J.J.9.W ~ E 3.{.{.|.{.[.v.+.) a 5 4 5 p v p 4 & & < # & ",
"y c l u f 7 - O O O O O O O O O O O O + $ g d.x.T.dXjXT.P.V.C.V.r.7.s.S.Z.A.a.V j j Z / c.{.M.c.f.+.^ i 5 4 5 p j e 5 & & 2 & & ",
"+ 7 k u 7 ; * + O O O O O O O O O O O O + * Y a.H.T.dXR.U.s.9.9.8.<.7.s.x.d.8.d & q N f E p.p.p.f. .^ a 4 < 5 i h i 5 : & 4 & & ",
"o + 7 u l ; * + + O O O O O O O O O O O O + 2 / 3.G.9X9XqXA.7.s.4.,.,.7.8.8.6.d = - f k f / i.i.i...) a 5 < 5 p h w 5 & # 3 & & ",
"X O + y c y - $ + O O O O O O O O O O O O + = d U E J.9XxXU.Z.j.s.W R ,.8.4.R d @ + 2 N f C 3.i.i.| ) p 4 : 5 p h w 4 % % : % % ",
"X O O = x u 2 + + O O O O O O O O O O O O + $ t d l Z G.3XU.L.V.V.4.A W 6.6.,.f O O = q N f R [ | [ ^ 6 4 4 5 p h p 2 & & < & % ",
"X O O + - f t * $ O O O O O O O O O O O O + + - d d f U Z.Y.J.H.Z.s.,.W ,.3.R d + O + - f z x / [ ] ! i < 4 5 p s p < & & : & & ",
"X + O O + 7 u ; * + O O O O O O O O O O O $ + * = t 2 f T J.3XS.P.9.4.W ~ W C t O O O + ; j M Y ( ] ! a 4 4 5 p j p < * & : & & ",
"o + O O O $ t r ; * + O O O O O O O O O O + + $ - - 2 - M a.H.C.D.9.V.4.4.R Z 9 O O O O + 2 k C / ] ! a 4 q 6 p b p : % & < & < ",
"O O O O O O = 7 3 - + O O O O O O O O O $ - * $ $ - - 9 B d.Z.9.r.4.8.7.~ Y A d + O O O O $ 2 Z U Q I i 5 5 i p v w : = & < & & ",
"  O O O O O O * 2 7 = O O O O O O O O O = * + O + * $ $ 9 / s.<.9.8.4.7.W ~ A N O O O O O O $ 9 A T I i 5 4 5 i n i : & & : : & ",
"  O O O O O O + = 7 2 * O O O O O O O O O O O O O + + + - 9 8.<.5.4.4.7.4.<.E D , O O O O O O = j A K p 4 4 5 p h i : % & 2 : & ",
"  O O O O O O O + - ; * O O O O O O O O O O O O O O + + * * T R A A 4.~ ,.,.4.<.d + O O O O O O = j M a < 5 4 p v i : % & : 3 < ",
"  O O O O O O O O $ 7 = + + O O O O O O O O O O O O O + * 7 t t 9 2 A R ~ ~ D E b - O O O O O O + = t i : 5 2 w j 5 < % : : < : ",
"  O O O O O O O O O * 2 * = + O O O O O O O O O O O O O O O + $ @ O 2 R z ,.~ d N & = O O O O O O + $ 5 < q 5 w h 4 2 & : 2 5 : ",
"  O O O O O O O O O + ; ; - O O O O O O O O O O O O O O O O O O O O O 7 2 B T R j 2 + O O O O O O O + 4 < w i i h 4 : & : < 1 < ",
"  O O O O O O O O O O + - + O O O O O O O O O O O O O O O O O O O O O + $ - 8 M 8 @ O + O O O O O O O 4 < 5 w 5 h < & & & < 5 < ",
"  O O O O O O O O O O O + O O O O + O O O O O O O O O O O O O O O O O O $ 7 + > Z + O O O O O O O O O 4 : 4 e w p 4 & & & < 1 < ",
"  O O O O O O O O O O O O O O O + + O O O O O O O O O O O O O O O O O O O ; - O d @ O O O O O O O O O 2 < 5 5 w h 5 & & : < < 3 ",
"                            X X + X O     O o O O O O O                 o O $ O @ + O O O O     O     4 < 5 w e s 4 : & : < 4 < ",
"                                    X X                                     . X                       5 < 5 p e s 4 < : : < 5 < "
};