/* XPM */
static char *e3150129f6d44c79c06e96f7d1b69c73TH1XUmiT3l7DqBAo[] = {
/* columns rows colors chars-per-pixel */
"64 64 253 2 ",
"   c #1C0D0A",
".  c #1D140E",
"X  c #1A0E16",
"o  c #24150D",
"O  c #301C0F",
"+  c #2A1512",
"@  c #261A12",
"#  c #2B1D14",
"$  c #271718",
"%  c #331C14",
"&  c #351C1A",
"*  c #3A1E19",
"=  c #2E2116",
"-  c #2F2118",
";  c #332315",
":  c #3A2516",
">  c #342419",
",  c #3C241B",
"<  c #372818",
"1  c #3C2B1B",
"2  c #3D301C",
"3  c #2E1C23",
"4  c #361F26",
"5  c #3B2725",
"6  c #382C29",
"7  c #43241C",
"8  c #422D1D",
"9  c #48291B",
"0  c #43321E",
"q  c #4A331E",
"w  c #53311E",
"e  c #432D22",
"r  c #4A2D22",
"t  c #462A2B",
"y  c #522D26",
"u  c #453322",
"i  c #4A3522",
"p  c #4D3A24",
"a  c #443729",
"s  c #4C352B",
"d  c #4D3B2A",
"f  c #543423",
"g  c #593726",
"h  c #523C25",
"j  c #533D2A",
"k  c #5B3D2B",
"l  c #452C32",
"z  c #4B3334",
"x  c #4A3837",
"c  c #553A37",
"v  c #533B3D",
"b  c #623C2A",
"n  c #643D30",
"m  c #54422A",
"M  c #5A442B",
"N  c #4E4333",
"B  c #594639",
"V  c #63432C",
"C  c #6A492C",
"Z  c #744C2E",
"A  c #78572D",
"S  c #664836",
"D  c #6B4B35",
"F  c #734C37",
"G  c #695437",
"H  c #745334",
"J  c #73543B",
"K  c #795838",
"L  c #796237",
"P  c #543B42",
"I  c #5A3D44",
"U  c #544343",
"Y  c #5A4544",
"T  c #584A44",
"R  c #5B4549",
"E  c #564B49",
"W  c #5E4B4B",
"Q  c #5D5249",
"!  c #674B46",
"~  c #634D4D",
"^  c #794F4A",
"/  c #64514C",
"(  c #6A584A",
")  c #775A46",
"_  c #644D50",
"`  c #6A5454",
"'  c #685856",
"]  c #6C5B55",
"[  c #745C57",
"{  c #6F624F",
"}  c #7A6549",
"|  c #6C6656",
" . c #796757",
".. c #74635C",
"X. c #7B655C",
"o. c #767559",
"O. c #7A6664",
"+. c #7D6B64",
"@. c #7A7668",
"#. c #835C35",
"$. c #835B3A",
"%. c #87673A",
"&. c #84773F",
"*. c #8E5D4A",
"=. c #885C55",
"-. c #866848",
";. c #92684C",
":. c #89764A",
">. c #927A4C",
",. c #86695B",
"<. c #956956",
"1. c #897657",
"2. c #957856",
"3. c #A46A55",
"4. c #A4775B",
"5. c #B67C5F",
"6. c #836C64",
"7. c #886C66",
"8. c #846D69",
"9. c #936F61",
"0. c #857365",
"q. c #8B7465",
"w. c #887B67",
"e. c #85746B",
"r. c #8B746B",
"t. c #8C7B6B",
"y. c #977867",
"u. c #937C6B",
"i. c #887972",
"p. c #967C73",
"a. c #A77D68",
"s. c #B77961",
"d. c #7E816D",
"f. c #948452",
"g. c #998659",
"h. c #A38655",
"j. c #A1915E",
"k. c #87846B",
"l. c #988669",
"z. c #95946C",
"x. c #8D8675",
"c. c #938375",
"v. c #978877",
"b. c #9B8B7B",
"n. c #9A9578",
"m. c #A4896A",
"M. c #B78E6D",
"N. c #A89868",
"B. c #A68877",
"V. c #A38C7B",
"C. c #A4937C",
"Z. c #AB937C",
"A. c #A79879",
"S. c #B6977B",
"D. c #9FA17B",
"F. c #B5A86E",
"G. c #A8A47B",
"H. c #B5A679",
"J. c #C88D6C",
"K. c #C5997A",
"L. c #CFA67C",
"P. c #C2B679",
"I. c #D2CB7D",
"U. c #978D81",
"Y. c #9D9985",
"T. c #A59185",
"R. c #A69884",
"E. c #AB9B84",
"W. c #AC9D8B",
"Q. c #B39C84",
"!. c #B99985",
"~. c #9FA185",
"^. c #A9A386",
"/. c #ACA38C",
"(. c #B4A485",
"). c #BAA786",
"_. c #B4AB85",
"`. c #B4A48C",
"'. c #B5AC8B",
"]. c #BBAA8B",
"[. c #B7B48C",
"{. c #BCB38C",
"}. c #ACA693",
"|. c #B4AC94",
" X c #B8A994",
".X c #B4AC9A",
"XX c #BDB394",
"oX c #BBB39C",
"OX c #BAB898",
"+X c #B6AEA0",
"@X c #BBB7A3",
"#X c #C59D87",
"$X c #D69F85",
"%X c #C6A589",
"&X c #D8AA86",
"*X c #C4B38C",
"=X c #C8B989",
"-X c #D8B58A",
";X c #CBAE94",
":X c #C3B392",
">X c #C3BC94",
",X c #CBB896",
"<X c #C3B59B",
"1X c #C3BC9C",
"2X c #D7BA97",
"3X c #E3B38E",
"4X c #C4BCA3",
"5X c #D6C58B",
"6X c #D0C88B",
"7X c #C4C394",
"8X c #CCC696",
"9X c #C6C39B",
"0X c #CAC49C",
"qX c #D8C894",
"wX c #D3C39D",
"eX c #D3CB9B",
"rX c #DBCC9C",
"tX c #DCD398",
"yX c #E5C897",
"uX c #F2C99A",
"iX c #E4D296",
"pX c #EDD493",
"aX c #C6C2A2",
"sX c #CAC5A3",
"dX c #CBC8A7",
"fX c #D6C9A5",
"gX c #D1CCAF",
"hX c #DCD4A4",
"jX c #D8D6A9",
"kX c #DAD6B3",
"lX c #EBCDA2",
"zX c #E5D9A7",
"xX c #F4D7A5",
"cX c #E2DCB3",
"vX c #EBE8A6",
"bX c #E4E2AD",
"nX c #EBE4AD",
"mX c #F9E2AB",
"MX c #E3E2B4",
"NX c #EAE4B4",
"BX c #E7E9B4",
"VX c #EBEAB5",
"CX c #E5E4BA",
"ZX c #EAE4BB",
"AX c #ECEBBB",
"SX c #F7E9B6",
"DX c #EDF1BE",
"FX c #F1F1BB",
"GX c #ECEBC3",
"HX c #F1EFC2",
"JX c #EEF2C3",
"KX c #F3F3C3",
"LX c #F6F6C9",
/* pixels */
"u u a a a a a d d d a a 6 6 5 3 $ $ 3 $ $ $ $ $ X X X X   o > - - # @ + # > - > # $ . @ @ . . . . o @ 1 : 1 u i p 1 > - = ; 1 < ",
"d B ! ( ( { { } } ( / W T v l 5 5 l 5 4 4 4 5 3 3 $ X $ $ * u 5 5 5 1 5 u s d d a 6 5 6 2 = # ; N i = u : 1 u q i 0 < = = < 1 < ",
"a x B Y ( 1.k.1.,. .,.X.] [ z l z z l 6 5 5 l t 5 3 3 5 4 5 , t s s k k g V J ) ( G G G G m M l.N.G < u ; 8 q q h u 1 = > ; 8 1 ",
"a P U R ` q.w.,.9.9.9.y.6.[ P v v v l l t t y y t 5 l l t t s s s k k V S ) -.-.1.1.2.g.F.=XP.F.j.G 1 0 : 0 q h h q u < 1 1 u 1 ",
"T / ` ` ] ,.X.X.6.[  . .] ] R P v z z z z y y y t z l t t t s c c B S G J -.2.m.N.S.H.=XiXiXP.j.L m 2 0 : 0 q h h u u < 1 1 i 8 ",
"B / / ~ _ ..O./ T W ~ ` ] ` W v v x v v v v z v v v z z z z z z v B S ( ) } 1.2.-.>.H.=XtX5X%.:.M m a u : 8 i h h u u = 5 8 i u ",
"B W v U R ] W U U Y Y W ' _ _ Y P P v P P P I Y U Y v z l z z z z x v B B ! ( ! ! S m.N.H.N.} :.J M u i : 0 p h p i 1 ; e 8 u 8 ",
"x z v v x v U U U R W _ W R ~ W U R P R R R P P P I x l l z z x x v v Y Y / B v B B ( ( 1.2.1.-.J p 1 u ; 0 d j h d 1 < e 8 8 8 ",
"6 v Y R Y U U U U R Q ' ' _ ] ] ~ R ` ` _ I P I ` Y v v ! ! Y Y R ~ ` [ X.X.] { [ ,.w.l.1.q.y.l.} m d 0 : 1 i h h j u 1 e 8 u 0 ",
"x W / ` ~ Y Y U U Y / ] ] | ] ] ` _ ` ` ~ P ! y.B.y.9.y.Z.Z.7.~ _ _ ..8.6.6. . .,.l.C.(.(.Z.S.*Xg.( m 0 ; 1 i m h h u e d u 0 8 ",
"N W / ] / Y U Y Y W W ] ..| ] ] ] ] ` ` ~ ` B.!.!.S.!.!.%X!.B.6.O.O.+.r.r.t.y.y.B.Z.H.*X=X*X2XrX:.} m m < 8 q j q h d : u 1 1 0 ",
"T / ] ` / Y Y W W W ] ....O.O...O.O.[ ` ` 7.B.!.#X#X#X%X!.S.Z.T.T.e.e.p.v.b.B.Z.S.S.S.).*X8XqXqX:.G m m < i h h q h i @ u u u i ",
"E ' ] ....] ` ` [ ] ..O.X.X.+.O.+.e.@.O.p.6.7.!.%X#XS.a.a.B.B.!.!.B.e.v.b.V.C.Q.Q.Z.Q.).=X=X5X5X>.S p m < 0 h h q j u @ 8 8 0 d ",
"Q | ..t.t.+.O.X.+.+.+.....O.+.e.x.x.i.p.B.T.!.2X&X3X&X#X#X!.S.a.B.p.r.v.b.E.`.`.`.`.).*X5XqXtXqXg.G 2 p < 8 m h 0 d u ; u i j i ",
"Q ..e.b.t.0.+.+.8.+.O.....+.e.v.v.c.e.q.=.y.2XlX&XxXlX&X#X#X#XB.p.6.O.e.b.W.`.`.`.:X:X,XrXtXtX5X>.p 1 i < 1 j h 8 q u ; d d i i ",
"' 0.v.C.v.0.+.e.t.e...] ..e.c.v.c.v.6.[ 9.!.xXxXxXSXSXlX&X#X#X!.!.T.v.c.`.E.W.`.`.:X:X*XqXiXiXqX:.G p p < 1 j h 8 0 u ; u q i i ",
"] t.Z.Q.l.6.O.6.X.X.[ O.e.r.i.c.c.r./ ~ y.&XxXmXSXSXSXmX2Xm.S.#XS.B.p.S.;X`.`.`.`.].:X,XqXiXiX=X:.} B m 1 1 m h 0 0 u : u 0 u u ",
"` q.B.m.7.X.X.X.X.O.O.8.8.8.6.0.r.0.[ t ^ 4.&XmXxXL.&XuXxX%XS.%XB.7.p.S.%X].].].:X:X,XwXiXyXqXS.>.} B i < 1 m d 0 u 1 : 8 8 8 q ",
"Y ! [ =.,.,.7.7.7.8.8.r.r.8.O.+.8.8.8.Y S 4.*.uXxX&XM.K.lXyX2X;XZ.u.u.Z.E.W.Q.,XfXfXfXrXrXqX&Xh.-.G B i < 1 j h i 0 8 < 0 8 8 8 ",
"v ` [ ,.,.,.p.B.u.r.r.p.r.7.8.6.8.+.r.] S *.4.yXmXuXS.S.xXxX-X%X!.T.Z.V.C.R. X<XwXfXwXqX5X-XM.h.} S M q < 1 p m h j 0 1 u 8 8 i ",
"z ! =.=.,.y.a.B.B.E.V.v.p.8.6.8.+.O.7.6.y.%X&XxXmXSXmXmXxXyX-X%XZ.B.T.Q.W.W.`.'.:X1XwX*X=XN.%.-.) j < 1 < u i h h h u < 8 8 0 i ",
"c ^ =.=.<.<.<.p.B.W.!.E.v.r.8.8.8.8.r.q.m.-X-XxXxXmXmXxXuXL.#XS.) ,.,.Z. X`.].].:X,X].H.H.:.2.g j u : 1 1 u i d h j 8 : 8 8 0 u ",
"c ^ *.=.<.9.9.y.B.`.W.E.V.p.r.r.r.0.q.r.) K.4.&XL.xXxXuX3X%X<.s 5 ! [ V.`.`.(.Z.C.v.l.m.S.g.G g 9 , > 0 1 i i d m d 1 < 8 8 0 u ",
"B ^ <.y.y.a.m.V.C.V.R.E.E.T.v.t.t.t.t.X.! 4.<.M.uXuXuX3X&XM.S 4 I B.B.W. X`.E.v.u.u.B.m.h.$.A b 9 , # 1 0 0 d j m p < ; < 1 0 1 ",
"/ X.l.C.E.Q.(.`././.E.(.(.(.(.E.C.V.E.Q.Z.<.3.3.J.L.uX3X$X#Xy.7. XQ.!.u.`.`.V.v.,.) 1.2.#.#.C F e % > < 0 u i h h d < < 1 1 1 : ",
"] t.E.{.>X1X{.XX`._._.{.*X{.*X_.C.A.(.%XB.,.a.s.K.uXuX3XK.2X).4XgXsXW.0.b.u.0.X.) J ) <.$.4.V F S % # < 1 u u d h d 8 : < 1 8 < ",
"{ l._.>X7X>X'.{.>XeX8XqX8X=X].Z.n.V.S.).Z.,.<.3XuXuX&XJ.&XyX2XkXkXoXv.R.v.p.0.O...[ ,.m.2.-.C S ) d , 1 < 0 0 i d i 1 ; : 1 1 ; ",
"{ l._.>X8X7X{.'.>X8XqXqX=X*X(.E.E.Z.Z.Z.V.u.S 3.5.5.3.L.yXyXrXjXkX4X4X.XV.b.c.r.r.q.y.y.$.$.F D ) i < 1 ; i u i d 0 1 ; ; 1 1 ; ",
"{ k.G.>X7X>X'.'.>XqXtXqX).).).(.`.`.).!.Z.V.7.^ <.3.K.yXyXyXzXAXZXgXdX.X6.u.b.c.t.u.y.y.2.;.b f -.h 1 1 < u u d d i 1 # % 0 1 ; ",
"G l.A._.{.>X1XfXeXrXtX8X{.]._.].].].(.%X,X XU.^ ;.5.3XyXyXlXNXAXAXZXkX<Xq.p.b.v.v.t.q.y.y.C 9 y S s < 1 < 2 u m i i 0 : : 8 < ; ",
"m 1.N._.>X>XwXzXhXrXqX=X*X].].].].).].,X,X].W.p.*.K.-X-X2XzXNXzXVXCXZXZX4XT.v.t.t.q.0.9.<.b g b V 8 + < < < e j h p u < : 8 1 ; ",
"8 ) :.H.eX_.W.XX:X=X=X>X,X].:X:X<X(.*X2X;X,X,Xy.F S.-X-X-XzXNXzXNXGXZXZXZXC.X.+.t.u.l.1.-.b J G K G @ 1 < < u j p h u ; < u < 1 ",
"8 V >.F.=XG.R.R.C._.*X8X8X>X0XsX<XQ.;X2X;X;X2X,.F M.-X-X2XzXNXzXNXGXAXNXAXkXc.e.t.q.m.1.K k -.J -.G # 1 1 1 i m p i u ; < 8 : < ",
", S L %.g.j.l.g.C.E._.qXqX8X:X XE.Q.%X<X%X%X,Xy.<.M.3X-XyXnXzXzXNXAXAXAXFXLXkXv.t.q.-.) g V -.K K M # 1 < 1 i m p i 1 # ; u ; < ",
", k L >.%.f.h.>.N.l.'.{.8X).n.v.v.E.`.<XfX*X2Xm.L.L.yX5XnXnXzXnXVXVXAXAXLXKXLXCXZ.J D F g S K -.H h > 0 2 1 0 d i p 1 = ; u < ; ",
"e j G K H :.f.g.j.G.'.^.'.R.v.v.c.}.<XwXwX2X;XK.-XyXiXzXAXzXzXbXBXBXVXNXLXKXLXLXhXH J C n F C -.C h i u 1 < 0 i j d 1 # > 8 < ; ",
"8 G } G :.f.>.>.>.z.^.Y.R.Y.n.b.U..XXX,X2XwX,X&X2XyXzXKXNXbXbXbXnXhXrXhXHXKXKXKXKXl.J k k -.H 2.D h 1 d 1 < 2 u j j 1 # > e ; ; ",
"8 V K N.P.N.f.N.A.G.R.^.Y.Y.Y.x.b.|.XX1XsXkX2X-XyXiXSXKXZXNXNXbXeXrXcXZXJXDXKXKXFXhX) k g K H 2.J i : h 1 1 0 u j d < @ = < % # ",
"M -.g.N.H.N.g.H.G.G._.^.'.^.x.i.i./.oXfXkXfX-X2XyXzXKXAXCXCXCXNXzXNXDXGXJXJXKXDXVXFX1.n V H K Z } ; % d 0 1 1 q p p < @ # ; # # ",
"h J %.f.h.L N.H.H.A.z.v.c.e.@.@.i.}.oXgXkXfX2XyXiXnXAXAXcXMXCXMXNXAXLXLXGXKXKXAXVXVXl.M ) k f -.:.e # d 1 < 1 u j p < @ # > + # ",
": q g C A %.%.>.g.l.l.t.w.0.w.x.}..X4XgXkXhX2XyXlXVXMXMXkXcXcXzXNXKXLXKXAXDXFXJXAXVXl.G ) r 7 D %.M @ i < < 1 u m i > @ # < # # ",
"q C A A %.%.:.:.>.>.2.-.} } -.w..XoX@XgXkXfXqXiXzXNXcXjXeXqXqXhXAXKXFXAXAXAXFXAXVXnXl.-.} s e r K d # i 1 < 1 i m i > @ # ; ; @ ",
"8 g A A %.%.%.;.%.%.#.K $.K K G /.@X@X@XgXfXfXeXhXzXhXeX8XqXhXVXKXFXVXVXAXAXAXVXNXnXm.-.J 9 f k 9 o # u 1 1 1 i m i < @ # < ; @ ",
", f b H A #.#.%.#.#.#.A Z H F D E.oX4XaXkXfXfXsXfXfXeXrXhXbXDXJXDXVXbXkXMXVXCXMXbXnXl.K G r k f 7 + # 0 1 < 1 i m q < @ # < # # ",
"u f C Z Z %.%.%.#.H $.#.$.$.b g } A.(.dXkXdX1XfXfXfXhXhXNXAXJXJXAXbXhXjXjXMXMXkXjXbXN.S k , e & e % % 8 1 < 1 i j u 1 @ # < # # ",
"j V Z H #.A #.$.#.#.#.Z b g g f i } v.v.^.aXoXfXsXwXeXcXZXAXJXJXAXNX>XeX0XjXkXkXjXhXN.b V e & $ 8 7 ; 0 1 : 1 u m 0 1 # # < # # ",
"8 f V f f V Z K H Z V g k k k D J ) l.R./.sXaXfXsXfXcXZXZXAXJXCXjXhX(.>X0XfXgXjXjXhXm.b k , & & & , % 1 1 ; 1 q h 0 < @ @ ; @ @ ",
", 9 f g k f i i i f D S M V S V D } 1.n.'.aXdXGXkXkXcXcXCXMXkXfXwXwXn.>X0XsXsXfXjXtXg.f r e , & & % % < < : 1 0 h 0 < @ @ = @ @ ",
"8 g C C w k k g g j V J k e r V <.1.}  .l.C./.sXCXCXjXdXfX9X>X).{.*Xl.*X8X9X9X0X8XtX>.q r * 7 r 9 7 % 1 < < 1 i h i < # # = # @ ",
"8 V K C H H Z G M M k k k j k J A.1.( B B } w.R.gXkXkXjXdX9X'._.].A.1.{.>X0X0X8XeXtX>.q f 9 7 y w : % 1 < < 1 u h i > # # # # # ",
"; , 7 9 f C C C V j j B M c s ) ). .] Q B N { R.OXdXdX9XdXdXgX9X:XE. .).XXOX9X8XeXtXg.[ k 9 9 g g 7 % 0 < 1 2 u m d ; @ # = # # ",
"+ 9 y f i f g V k k k j c d e w.XXx...Q B N ] x.v.n.n.n.R.^.^.'.XXZ.{ _.{.>X9X7X7X8Xl.e...! y g w : O 8 < 8 0 u m i = @ @ = # = ",
"# r f 9 f g i u e s d e 5 t a  XoX.Xx.' B x a w.oX.X.X/./.W.^.|. X`. .).'.1X1X1X>X>XE.e.+.( y f w : O 1 1 1 e u m u = @ # ; # # ",
"% , 7 7 9 f e 5 5 1 5 a 6 e v.aXaX.X}.x.N 6 3 Q ^.gX@X4X1X1X1XsX9XOX ._.XX1XaX1X1XXX|.c.8.` c 7 * % % 8 < < 1 u m u = @ # = = # ",
"+ & , e 8 , , 5 1 d j u e } 0XdXdX@XoXv.T 6 3 U i.^.@X4XdXaX1X1X1X|.{ (.XX4X4XoXoX|..X`.v.e.` e % % # u < < 1 u h u # @ # ; < # ",
"$ 5 t 5 & & , u 8 8 < i G ).dXdX@X@XoX^.| x x 6 U.W.W.`.|.1XaX1X X/.( |.1X1X@X+XoX.X.XW.c.p.X.5 + + # u : u < 0 m u = @ # # ; ; ",
"+ , 5 & & & , 8 e < 1 d } >XsXdX@X@X|.^.@.| @.U b.}././.`. X<X>XaX<X .R..XoX+X+X@X|..X/.i.p.l.r % + + 1 ; 1 < 0 j 8 ; @ - ; ; ; ",
"$ & * & & : , 8 8 1 u G H.9XaX4X@X.X/.}./.Y.^.Y.}.}..X4XsX1XaXdXgX<XR.b.|..X.X+X@X|.k.t.c.( f 9 ; + o < ; 1 1 u d 1 ; @ > : < ; ",
"# 8 r 9 7 , , 1 e i 1.6X=X7XaXOX|.|.^.OXOXOX[.[.OXOXaX1X1XXX1XsXaX}.W./..X.X.X.X.X/.@.@.w.b.d * & + o < ; 1 u 0 p < = # # ; < ; ",
"# , r r , : 8 M :.P.vX6X6X8X9X>X[.OX[.9X7X9X0X9XOXOXaXsX9X9X0X0XXX/.oX4X4X@XoX.X.X/.Y.U..XXXZ., % + o < ; 1 0 8 d < # @ # ; 1 ; ",
"+ * 7 7 7 h g.P.iXvXpX6XeX8X7XOX[.[.7XeXjXjXeX7X9XdXjX7X7X7X7X{.'.].>X9X1XoXoX|./.Y.@XdXR.XX>X! & +   ; ; < u 8 i < # @ = ; < : ",
"+ * 7 r G N.P.I.iX5X5XP.6X7X[.G.G.[.7X7X7X7XOX'.OX>X[._.[.'.(.^.'.[.[.[.}./.^.R.U.b..XdX^.v.Q.,.% o   ; : < 0 0 d 1 @ # = ; < < ",
"+ 8 G :.j.g.N.F.F.F.h.h.h.G.z.z.n.G.G.n.D.D.n.~.~.Y.n.n.x.k.x.x.n.n.n.n.x.k.k.@...@.U.R.R.{ } } 1     < < 1 u q p < = = # < : ; ",
"m G L &.:.f.:.1.:.%.$.%.K :.o.k.k.k.k.d.d.d.@.d.@.@.o.| | @.@.o.o.o.o.o.| | ( N U | | @.k. .p M i o   < : 1 i q p < > = = ; < : "
};