/* XPM */
static char *_f6bc54021f347c9ed50f9a10402dc61SJbF14F8idafkYIP[] = {
/* columns rows colors chars-per-pixel */
"64 64 233 2 ",
"   c #1D1506",
".  c #241706",
"X  c #2B1B06",
"o  c #251A0A",
"O  c #2B1C0A",
"+  c #341E06",
"@  c #321E09",
"#  c #2F1F11",
"$  c #2B230D",
"%  c #34230C",
"&  c #3C250B",
"*  c #38270D",
"=  c #2B2411",
"-  c #342414",
";  c #3A2614",
":  c #352C14",
">  c #3C2A15",
",  c #352C19",
"<  c #3E2C1A",
"1  c #3C3318",
"2  c #3B3926",
"3  c #3B3F31",
"4  c #422608",
"5  c #442A0B",
"6  c #4A2C0B",
"7  c #4C330E",
"8  c #53350E",
"9  c #432B15",
"0  c #492D15",
"q  c #422D19",
"w  c #443314",
"e  c #4A3313",
"r  c #45321C",
"t  c #4B341C",
"y  c #433A1B",
"u  c #4B3B1A",
"i  c #51351C",
"p  c #573B19",
"a  c #543A1D",
"s  c #613E1F",
"d  c #4B3622",
"f  c #473A25",
"g  c #4E3A22",
"h  c #543C23",
"j  c #513B27",
"k  c #5A3E22",
"l  c #3C4338",
"z  c #4E411E",
"x  c #57431C",
"c  c #64461C",
"v  c #4B452A",
"b  c #554323",
"n  c #5C4225",
"m  c #5B4B24",
"M  c #55412A",
"N  c #5C442A",
"B  c #574B2B",
"V  c #59512F",
"C  c #484934",
"Z  c #564B34",
"A  c #585338",
"S  c #5C593D",
"D  c #634424",
"F  c #694B27",
"G  c #624629",
"H  c #644A2B",
"J  c #6C4D2F",
"K  c #6A532A",
"L  c #74572A",
"P  c #64573A",
"I  c #785935",
"U  c #6D613F",
"Y  c #796239",
"T  c #3C4D4F",
"R  c #3E5661",
"E  c #454D43",
"W  c #564D47",
"Q  c #4B5249",
"!  c #575948",
"~  c #4C5A5B",
"^  c #535C55",
"/  c #655A45",
"(  c #5B6459",
")  c #696449",
"_  c #776949",
"`  c #626554",
"'  c #656857",
"]  c #6B6B54",
"[  c #636A5B",
"{  c #6B6D5C",
"}  c #726C55",
"|  c #71705A",
" . c #72725C",
".. c #7B755A",
"X. c #4B5C61",
"o. c #5A6666",
"O. c #546A72",
"+. c #586974",
"@. c #636D64",
"#. c #686D68",
"$. c #6C7263",
"%. c #68726B",
"&. c #6B746C",
"*. c #747563",
"=. c #777668",
"-. c #74796D",
";. c #7B7C6B",
":. c #656D71",
">. c #6B7573",
",. c #6E7974",
"<. c #657479",
"1. c #6D7A7A",
"2. c #747C74",
"3. c #7A7E74",
"4. c #747D7A",
"5. c #797B78",
"6. c #8B6937",
"7. c #85693A",
"8. c #8A744A",
"9. c #88764F",
"0. c #987948",
"q. c #86795A",
"w. c #847D66",
"e. c #827E79",
"r. c #7C806C",
"t. c #7A8177",
"y. c #7C837C",
"u. c #9C845B",
"i. c #AC894F",
"p. c #A88959",
"a. c #B7935A",
"s. c #89836A",
"d. c #948668",
"f. c #838374",
"g. c #83857C",
"h. c #89887A",
"j. c #958D76",
"k. c #99927B",
"l. c #A98D63",
"z. c #AA936A",
"x. c #B89766",
"c. c #BD9B6B",
"v. c #AB9978",
"b. c #BDA477",
"n. c #C69C57",
"m. c #CDA25C",
"M. c #D6A75B",
"N. c #C19B66",
"B. c #C29D6B",
"V. c #C8A268",
"C. c #CAA26D",
"Z. c #D5AB66",
"A. c #DBB06B",
"S. c #CAA572",
"D. c #C9A877",
"F. c #D3AD77",
"G. c #D9B47B",
"H. c #E2BB7E",
"J. c #687A86",
"K. c #777E83",
"L. c #798586",
"P. c #768A95",
"I. c #7A8C95",
"U. c #788A98",
"Y. c #7E93A5",
"T. c #858A83",
"R. c #878B86",
"E. c #8B8C83",
"W. c #918E85",
"Q. c #8D9188",
"!. c #8E918B",
"~. c #949285",
"^. c #93938B",
"/. c #9B9789",
"(. c #9A958C",
"). c #868E94",
"_. c #87969A",
"`. c #959997",
"'. c #9C9B94",
"]. c #A39B89",
"[. c #A29D94",
"{. c #A49E99",
"}. c #9EA09C",
"|. c #A9A395",
" X c #A4A39C",
".X c #ABA59D",
"XX c #B9AC90",
"oX c #B6AB9B",
"OX c #8397A6",
"+X c #8D9CA3",
"@X c #8C9EAB",
"#X c #939DA2",
"$X c #959FA6",
"%X c #879EB1",
"&X c #8EA1AC",
"*X c #97A2A6",
"=X c #93A2AB",
"-X c #9BA5AA",
";X c #8CA2B3",
":X c #97A7B4",
">X c #A6A6A3",
",X c #ABA9A3",
"<X c #A3A9AB",
"1X c #ABADAB",
"2X c #B4ACA4",
"3X c #B4ADA8",
"4X c #AEB0AC",
"5X c #B8B2A9",
"6X c #A4ACB3",
"7X c #A8AEB4",
"8X c #A9B1B6",
"9X c #ACB3BB",
"0X c #B7B8B7",
"qX c #CCB189",
"wX c #D9B784",
"eX c #E4BD83",
"rX c #E3BE8A",
"tX c #C4B8AE",
"yX c #C5BBB5",
"uX c #EAC38A",
"iX c #F1CA90",
"pX c #CBC1BB",
"aX c #D4C6BC",
"sX c #AEB6C1",
"dX c #B7BCC4",
"fX c #BDC1CB",
"gX c #CEC5C2",
"hX c #D8CBC4",
"jX c #DED1C9",
"kX c #E5D4CC",
"lX c #ECDAD3",
"zX c #F0DED4",
"xX c #F6E5DA",
/* pixels */
"+.+.+.+.+.+.+.O.+.+.O.O.O.+.+.+.+.o.O.+.O.O.O.O.O.+.+.+.+.+.+.+.o.O.o.X.X.X.X.~ ~ ~ ~ ~ R R R R R T T A D > > a e t > r e q < t ",
"O.+.J.J.J.J.J.J.J.J.J.<.<.J.J.J.<.<.J.J.J.J.J.J.J.J.J.P.P.P.P.J.J.J.J.<.<.<.<.<.<.<.<.+.O.O.O.O.O.X.T A D 9 t k t r > < q < < t ",
"O.J.P.U.Y.Y.U.U.U.P.P.P.P.U.I.I.I.I.I.I.I.I.I.I._.OXOXOXOXOXOXY.Y.J.I.I.U.I.U.P.P.P.L.P.P.L.<.<.<.O.~ A F 0 e e i e > r r r r r ",
"+.J.P.Y.OXOXOXOXY.OXY.OXI._._._.+X+X+X+X+X_._.+X+X@X@X+X@X;X;X;X;X1.I.+XOXOXOXOXOX_._._.I.I.L.L.P.<.~ P F t i a w r q r q r t g ",
"+.J.U.OX@X@X@X@X%X%X%X@X+X+X#X`.#X=X+X+X@X+X+X@X&X@X@X+X@X;X;X;X:XI.L.&X@X@X&X&X+X+X+X+X_._.).I.I.1.^ P G i 9 0 0 e < 0 9 t e j ",
":.J.I.OX@X@X&X:X:X:X:X@X#X+X#X`.#X#X#X_.+X+X_.#X#X=X=X=X=X=X;X:X_.).1.+X+X=X&X=X&X=X=X+X+X_._.I.L.1.o.P D e i t i j > a a h t h ",
"J.P.OX@X=X=X=X-X:X:X:X=X=X#X`.`.`.#X`.`.#X#X#X$X=X=X=X=X&X=X=X=X1.4.).*X#X=X=X=X&X=X=X*X+X_._.).).4.o.P F t t D D t u a a a j h ",
"J.I.@X:X-X-X:X:X:X:X:X:X-X$X#X#X#X`.`.`.*X*X#X*X*X*X=X#X_.:X:X*XL.L._.*X=X=X=X=X=X&X=X+X+X_._._.).L.o.P F i p F k k i e h k h n ",
"J.).=X6X6X7X6X8X6X6X7X7X6X6X6X6X<X-X>X>X<X6X<X1X1X<X<XR.).:X8X_.L.^ *X*X-X-X*X*X*X*X=X@X+X_._.).).L.@./ F i s p e u t e h k k k ",
"K.).$X<X7X7X7X7X6X7X8X9X9X8X9X7X7X<X1X4X8X8X4X4X4X1X,X^.`.9X9X`.y.E -X<X6X<X-X-X-X-X-X=X=X+X+X_._.L.o./ F t s p i j r t j n h k ",
"K.).#X<X7X7X<X1X7X9X9XsXdXdX0X7X<X'.(.'.>X1X1X1X3X,X.X}.}.9X<X>X/.| >X1X4X1X1X1X7X<X<X-X:X:X:X&XOXP.:./ J i k a G k a k k h a n ",
"K.).#X<X7X0X9X4X<X4X4XdXdXdX0X1X>X'.(.'.{. X{.{.[./.[. X3.4X'. Xk.=.>X,X4X1X1X1X1X1X8X6X:X:X:X;X%XI.<.! J i p i n k n n J h k n ",
"K.).-X7X9X0X8X1X,X1X1X3X4X4X4X,X[.~.(.{.{.'.(.(.(./.].|.3.>X^. Xj...'.,X4X4X|.k.j.^.8X8X7X6X:X:X:XOXJ.W j i k n t t q e G h h n ",
"K.).-X<X7X4X X X.X,X,X.X[.[.]./.~.W.(.'.'.(.(.(.'.(.|.h.l E.~. Xw._ j.j.d.d.z.D.qX|.9XdX0X9X9X8X6X@XJ.W t t h d g t k h k N n n ",
"K.).*X<X<X4X,X>X,X,X.X[.(././.~.~.~.^.^.~.^.^.^.E.E.'.h.l f.~.j._ 9.u.z.c.c.c.S.qX3XdXdXdXdXdXsX6X-XL./ D h j k k t D k h N n n ",
"4.).`.<X4X4X0X3X3X.X{.(.^.^.~.W.~.W.W.h.W.W.E.T.y.g.h.*.v q.d.z.l.p.x.x.c.S.D.F.wX5XdXfXfXdXdXsX9X-XL./ F D k G t i n j N H n G ",
"5.T.^.'.[.|..X,X.X{.'.(.^.E.T.g.3.3.g.h.f.g.g.3.-.' w.q.Y p.l.c.x.x.B.S.S.F.F.F.rX0XfXfXfXdXdX9X9X$X5./ L c D n k g j j F J h H ",
",.3.E.E.~.[.|.|.'.(.^.^.!.E.T.g.3.-.-.g.f.f.g.2.&.{ v.u.7.u.l.x.x.x.B.S.B.C.S.S.rX5XdXdXdXdX9X9X9X$XK./ L s a h j j b h n N M G ",
"#.-.g.T.Q. X|./.~./.^.^.Q.!.E.g.2.&.-.3.3.=.-.&.&.%.j.p.0.u.l.l.x.x.x.S.B.C.S.D.rX5X0X0X0XdXdXdX8X X2./ I p e J k j h n k N h G ",
"@.#.2.4.L.Q.(./.(.^.^.^.!.!.E.y.2.2.2.-.$.#.$.$.&.%.w.l.6.p.x.l.c.c.C.B.B.C.B.F.uXoX0X0X0X0X0X0X4X(.*./ I k j n k N j n n H M N ",
"o.#.>.>.>.2.Q.^.Q.Q.^.^.^.!.E.T.5.2.-.%.@.@.( $.@.%. .p.0.p.c.p.c.c.B.N.C.B.c.F.rX5X0X4XoX|.|. X/.h.$./ I k k N k j i b D G b N ",
"o.#.>.,.1.4.R.Q.R.Q.!.`.Q.Q.R.g.y.5.2.%.o.@.{ d...' ] q.6.l.c.p.x.c.x.x.N.C.B.G.F.5X4X(.~.^.~.h.h.g.$.P I a H k k j n G n H N N ",
"o.#.4.4.4.4.T.T.L.T.R.!.Q.R.T.y.y.3.2.%.( ( [ qXqXb.d.8.7.p.x.l.a.N.c.c.B.S.c.F.x.oX,X^.E.Q.E.g.f.3.[ P L t a D F k n h j M M N ",
"@.%.2.4.4.4.y.t.t.y.y.T.R.T.g.3.5.2.2.,.@.@.[ XXF.F.wXqXl.0.p.p.a.N.x.C.B.C.x.G.u.~.E.g.y.g.y.y.3.%.^ M J h n D J n n n N j g N ",
"( #.>.4.4.4.4.,.,.t.y.y.g.g.y.3.t.2.4.2.%.%.@.v.wXD.D.wXG.uXF.x.p.p.x.C.C.B.S.F.w.E.y.2.2.2.,.>.&.o.Q Z I i e G D n n k h N M M ",
"( #.4.4.L.4.4.2.y.t.y.4.4.y.t.2.2.2.2.2.%.:.@.j.rXF.F.G.H.uXuXeXwXc.0.N.S.C.F.p.=.g.y.2.2.&.#.:.@.^ E M I k k n G k b b g N M j ",
"o.>.K.L.L.L.L.4.R.y.2.4.2.2.4.2.3.2.2.&.%.%.o.j.wXeXF.G.G.eXiXeXuXiXN.N.C.F.S.H r.y.2.2.-.&.%.#.@.~ T f L a D n k b b n h n M h ",
"@.>.K.K.L.1.1.4.y.2.>.2.>.2.2.2.t.4.,.>.%.%.@.v.F.eXF.G.eXeXiXuXuXuXx.C.C.S.8./ r.g.y.t.2.-.&.&.@.~ T f J k k k a k G n k h N j ",
"o.%.1.1.1.1.1.,.1.,.>.4.y.L.4.2.2.2.2.,.,.%.@.v.S.wXeXeXeXuXeXuXiXD.x.F.V.S.P  .g.h.T.y.t.3.-.&.#.~ l f D t t J G k N k k g d d ",
"~ o.<.1.1.1.<.%.%.>.y.T.L.y.2.2.2.2.,.,.&.&.@.k.c.D.F.0.6.F.H.uXiXY Y 0.F.p.P =.h.E.h.h.t.3.&.@.@.^ T f G t t n i n H n h d d d ",
"#.o.:.1.4.4.,.>.%.&.L.4.5.t.2.2.2.&.$.$.{ &.$.k.x.x.iXV.a.eXuXiXD.b g m p.L S 3.T.E.E.g.-.-.&.@.( ^ E v J i n n g d h h h d d d ",
"#.>.>.T.Q.Q.Q.5.%.&.t.2.2.4.2.2.,.,.$.` ....] z.C.p.uXF.F.H.iXuX_ y u b b b A -.y.T.h.;.$.$.@.( ( ^ E M J i k n b H j h h j d d ",
"#.,.>.Q.`.'.^.h.t.-.2.3.2.2.-.3.2.-.&.*.XXv.l.qXD.u.uXwXF.F.iXwXB y u x u a B ` ! -.t.-.$.{ [ [ ( ^ E M F t e H a G j N h j d d ",
"&.4.g.`.}.'.^.~.Q.g.y.2.2.2.&.-.-.-.*. .XXD.b.iXc.0.uXx.0.F.uXu.y : x I 7.6.0.i._ [ -.$.$.{ { { [ ^ Q M F i h H F n h b N j d d ",
"&.e.^. X>X'.'.'.'. X(.-.&.&.! / _ _ _ _ 8.0.x.wX7.p.rXp.S.uXG.K 1 u i.m.n.n.n.m.Y ! ! ! ` [ { [ [ ( Q Z F k t a n n n j k j d d ",
"5.^. X>X1X>X{.{.5X5X.XE.2.&. .b.V.V.a.p.p.c.b.0.K x.x.8.F.uX8.u w F n.M.n.m.m.F.D.z.u.9._ / A [ [ ( Q Z G a k G k i N M h j r d ",
"5.'.>X3X5X1X,X3XtXtX,X{.R.3.-.d.S.Z.V.n.i.Y c x H 8.H a H K x w p 0.M.M.M.M.a.c.S.c.c.S.S.b.] { [ ( Q M D k k e b k n n G t r d ",
"e.^.>X5XpXpXyXpXyXtX2X.X^.3.-.=.q.F.A.m.m.Z.a.L c x p c F L F F 7.m.M.M.M.Z.L L L 7.c.F.D.z.$.$.[ ( Q M D i k j d n n n n j r d ",
"g.^.{.yXjXjXaXaXtX2X2XoX[./.E.f.=.z.G.Z.m.Z.Z.V.a.a.i.m.A.V.i.m.m.M.n.a.i.L F L L 0.G.eXD...$.$.$.( Q M k 0 a k n N h k d t r d ",
"e.^.3XgXhXkXhXaXpXtX5X5XoX2X|.~.;.*.c.A.Z.V.n.i.i.0.7.i.6.Y K i.M.m.7.c x x F F L c.H.eXz.{ $.$.$.[ Q M p i t j D n a t j t d d ",
"T.[.5XyXpXjXhXpXyXyXtX5X2X2XoX~.;.;...x.A.V.8.7.b B 8.K w H m L i.K n B 1 b n F 0.G.H.wX} ` ` { *.[ Q j p e h n k G n j d t r d ",
"E.{.3X5XpXpXyXyX5X2X5X3X.X|.f.w.w.f.f.w.u.9.A v ) Z _ P y b H H > V V P 2 v I F C.H.G.9.] ` ` ] { ` Q j p 9 t h t g g t j e r d ",
"e..XyXhXgXyXyX5X2X5X3X.X[.(.=.;.j.j.f.h.s.s.) 2 ) A _ Y x b U P : b > w : > G Y x.F.u.} ] ' { ` [ ` ! j i > i t < d j j j e d d ",
"$.^.5XlXkXhXkXhX5X2X,X(.^.E.=.k.|.].h.w.w.d...Z S ) _ _ b v _ P O % . O O % e _ z.z._  .] ] $.[ [ ( ! j i - e e e g d t j e q t ",
"-.(.yXkXkXlXzXlXhXyXkXpXE.E.h.|.oXk.s.q._ _ _ ) v ) _ I b f ) 1 X O . o o o > _ P / .. .] ' { [ { ( E f q - q r t t < < r q q r ",
";.(.5XjXzXxXxXlXzXlXlXhX5X(.aXaXtXoXoXj...s.q._ v _ 9.I m b y % X O O . . O * _ _ ..*.{ { *.{ [ [ ^ Q j ; # ; r q q < q q q r r ",
";.W..XyXkXzXxXlXzXlXkXzXlXjXhXtXoXoXoXoXk.q.q._ 1 P I K 5 6 6 e + O O X % % % / _ ..*.*.*.$.[ [ ( ^ ! Z q - > r < < d > ; < < r ",
";.h.{.yXgXhXlXkXkXlXxXxXzXkXhXpXoXoXoXtX].q.) n n w c c s c F L e % O % & X X 9 _ .. .=.{ { [ [ ( ` { Z 9 - q t < < - - - < < r ",
"=.h./.5XyXtXaXaXhXaXxXxXzXkXxXyX|.]./.].w.} _ w p % w * * w 9 w % @ O O O . o X u } ]  . .{ { ' { f.*.A 0 - q r q q - - , < < r ",
"=.w.~.|.oX.X].|.oXaXkXkXkXkXjX2XE.f.f.k.C / ) b c % $ $ 1 * % u X O . O o     . % _ .. . .] ] { w.f.*.P 0 ; r t t ; < - q < r r ",
"..d.k.].k.f.e.j.].5XhXaXhXhXhXpXT.@.$.=.` f f w p * o $ % % > * + O . O X O   o & _ q.......s.s.k.s.*.P 0 < q i e > < < e r r d ",
"] w.j.v.v.h.h.h.f.oXaXtXaXtXjX,X4.o.o.*.*.) > x e * O $ * % . O & O O @ @ O . . > 9.q.q.q.d.j.k.j.w.*.A 9 ; t i e t r > q 9 r t ",
"! ] =.f.f.f.;.=.;.].tX2X5X5X5X X4.o.o.$.f.P H w 7 % o O - % ; % % . O % O o     y P q.d.d.d.s.j.k.f.| Z 9 9 i 0 > > < < q < r r ",
"A ! ]  .*.*.*. .|  .f.E.T.T.Q.R.,.( ( ( ` A x w u %       . . . X . X X X .   . A Z f A ) ) / v ]  .! j 9 9 0 0 t e r > < q r r ",
"2 Z S ) ] ` ! ! ! A ! ` ! E Q l 3 C C C C y F c c 9   . O % O X O X @ X O . . > B $ o o O O O : / / C d 9 ; < > 0 e t ; > q q r ",
"1 f v A S S S S A A v v Z C C C v v v f f y K x p u . % w e e 5 % X @ O o     > x w % & & > 5 u S S C r 9 @ q > > r t < > 9 q r ",
"= : y v v v C C C v B Z Z V V A A A Z v Z B K c x m X 5 8 7 7 5 & + & + X X . % m x u p m m m V P S v r 9 # q q - < r > < > r r ",
", 2 v Z A S / ) ) ` { | | ] ]  .] ) / S P U D x c p 5 7 8 7 5 6 5 & 4 & + @ X X u b m m m m B V V B f < 9 # ; t 9 ; 9 > 9 > q r ",
"2 v v S ' -.;.3.t.g.E.E.~.~.k.~.k.;.} ] ) P c p c 8 8 8 8 7 6 5 4 4 4 6 5 & + + w m m m m m b B B v 1 > 9 - - > 9 0 0 9 q ; < r ",
"l C !  .-.3.t.y.T.!.`.'.,X2X5X5X2X].s...) V b p x 7 7 8 8 7 5 5 & 4 6 6 6 5 & 5 e x x x z z z z z y 1 > 9 ; ; ; ; 9 0 ; > - , r ",
"C Q ] ;.f.g.E.Q.`.'.'.'..X.X2XoX|.k.s...) A P x u e e 8 8 8 8 6 4 4 6 6 6 5 & 5 e u u u u y y y y y , > 9 - - ; > > 9 ; > ; - r ",
"C ! ` =.3.g.T.T.E.^.^.Q.'.|.|.oX|.j.s...] ) S B a w e 8 u a a 8 6 6 5 6 5 5 4 5 u u y y y 1 y y 1 1 : > 9 ; - 9 9 ; > ; > > > t ",
"3 C ! ` [ $.$.$.%.-.-.&.-.3.g.h.h.;...] ) ! A v y w w w w w w e w e 5 5 5 * & & w w 1 1 1 > : : 1 , = * 9 # O ; ; - - - > > > t ",
"2 3 C C Q Q Q Q ! Q Q Q ! ^ ( ` ` ! ! ! A C v 1 > 1 > : > > > > * * % @ X O O % : : : $ $ $ $ $ = = $ - > - - > 9 < - - > > > g "
};