/* XPM */
static char *_b1621305c7d4c6c95c6f2f6f073d686eRFJgoIT0CaIQe2N[] = {
/* columns rows colors chars-per-pixel */
"64 64 252 2 ",
"   c #1E1F1A",
".  c #221E13",
"X  c #31240F",
"o  c #272418",
"O  c #24241E",
"+  c #29261B",
"@  c #2C291D",
"#  c #332A17",
"$  c #352B14",
"%  c #392C14",
"&  c #3C3219",
"*  c #3D341A",
"=  c #262620",
"-  c #282722",
";  c #272821",
":  c #2C2B24",
">  c #2F2E28",
",  c #312E24",
"<  c #302F29",
"1  c #2F3028",
"2  c #343125",
"3  c #393626",
"4  c #34332A",
"5  c #39362C",
"6  c #3B392E",
"7  c #3D3B31",
"8  c #4A2C0E",
"9  c #482D15",
"0  c #4A3516",
"q  c #42351A",
"w  c #443A1D",
"e  c #4B3B1C",
"r  c #533E1B",
"t  c #593C1C",
"y  c #633718",
"u  c #4A3D21",
"i  c #423B28",
"p  c #5A3E21",
"a  c #423E31",
"s  c #693E21",
"d  c #4C411F",
"f  c #53421D",
"g  c #5B431D",
"h  c #57481F",
"j  c #5B491F",
"k  c #66471C",
"l  c #72451D",
"z  c #715016",
"x  c #474020",
"c  c #4D4223",
"v  c #544522",
"b  c #5A4523",
"n  c #564A25",
"m  c #5C4B24",
"M  c #53452A",
"N  c #544C2A",
"B  c #5B4D2B",
"V  c #5E5126",
"C  c #5D522B",
"Z  c #5F582C",
"A  c #454134",
"S  c #4A4639",
"D  c #5C5333",
"F  c #585435",
"G  c #634525",
"H  c #654626",
"J  c #634C24",
"K  c #6A4C25",
"L  c #634D2B",
"P  c #6B4E2B",
"I  c #754B26",
"U  c #625226",
"Y  c #6C5326",
"T  c #6C5927",
"R  c #63542B",
"E  c #6A542C",
"W  c #65592D",
"Q  c #6B5B2D",
"!  c #785A25",
"~  c #73542D",
"^  c #7A552B",
"/  c #725B2D",
"(  c #7B5B2D",
")  c #604F31",
"_  c #635532",
"`  c #6B5532",
"'  c #655B33",
"]  c #6B5D33",
"[  c #655B3A",
"{  c #6B5D39",
"}  c #765833",
"|  c #735C33",
" . c #7B5C33",
".. c #735E3A",
"X. c #6D6234",
"o. c #6C633B",
"O. c #6F6A3F",
"+. c #736334",
"@. c #7C6334",
"#. c #766836",
"$. c #796832",
"%. c #7C6936",
"&. c #74653B",
"*. c #7C643B",
"=. c #746A3D",
"-. c #7B6B3C",
";. c #6C6441",
":. c #6C6841",
">. c #7C6642",
",. c #736B44",
"<. c #766A47",
"1. c #7B6C43",
"2. c #757146",
"3. c #7C7244",
"4. c #7D744C",
"5. c #7C784A",
"6. c #7E7952",
"7. c #923F1C",
"8. c #85451F",
"9. c #894D28",
"0. c #84572C",
"q. c #9A522B",
"w. c #855D34",
"e. c #A25027",
"r. c #84662C",
"t. c #97722C",
"y. c #826334",
"u. c #8B6B35",
"i. c #82653B",
"p. c #876938",
"a. c #84693D",
"s. c #8B6C3C",
"d. c #926D35",
"f. c #926D3C",
"g. c #82713E",
"h. c #8A723C",
"j. c #8D783B",
"k. c #93743C",
"l. c #967A3A",
"z. c #A0752A",
"x. c #A27C38",
"c. c #846C43",
"v. c #876D47",
"b. c #8B6E43",
"n. c #916D42",
"m. c #847343",
"M. c #8B7244",
"N. c #8C7945",
"B. c #83744B",
"V. c #8B744A",
"C. c #837A4C",
"Z. c #8C7B4B",
"A. c #937544",
"S. c #947B44",
"D. c #9B7B44",
"F. c #957748",
"G. c #947B4B",
"H. c #9B7C4B",
"J. c #847C52",
"K. c #877954",
"L. c #8A7C52",
"P. c #937C52",
"I. c #9A7F51",
"U. c #A27F50",
"Y. c #9A823C",
"T. c #A6833B",
"R. c #B08B37",
"E. c #86814F",
"W. c #9B8243",
"Q. c #9B8747",
"!. c #94814D",
"~. c #9C834D",
"^. c #858255",
"/. c #8B8355",
"(. c #8D8A55",
"). c #89845B",
"_. c #8D8B5C",
"`. c #938253",
"'. c #9C8353",
"]. c #998856",
"[. c #948C5B",
"{. c #9B8B5A",
"}. c #95935D",
"|. c #9B935E",
" X c #9C9A5E",
".X c #A2834C",
"XX c #A48C4C",
"oX c #A98A48",
"OX c #A9944C",
"+X c #B2934D",
"@X c #A38553",
"#X c #A48B54",
"$X c #AA8D57",
"%X c #A48C5B",
"&X c #AB9453",
"*X c #AC925D",
"=X c #A6985B",
"-X c #B29B55",
";X c #B2945D",
":X c #B59A5B",
">X c #B9A45F",
",X c #968D62",
"<X c #959361",
"1X c #9A9562",
"2X c #969966",
"3X c #9C9965",
"4X c #9D9B69",
"5X c #A38E62",
"6X c #A49463",
"7X c #AC9463",
"8X c #A39C64",
"9X c #AB9C64",
"0X c #AA9569",
"qX c #A39D6A",
"wX c #AB9C6A",
"eX c #B79864",
"rX c #B59B65",
"tX c #B29D6A",
"yX c #B09E71",
"uX c #9FA06C",
"iX c #A4A166",
"pX c #ACA265",
"aX c #A4A26B",
"sX c #ABA46B",
"dX c #A7A86F",
"fX c #ACA96E",
"gX c #BCA264",
"hX c #B4A36C",
"jX c #B7A76C",
"kX c #A4A471",
"lX c #ABA571",
"zX c #A7A974",
"xX c #ADAB73",
"cX c #B4A572",
"vX c #BBA572",
"bX c #B3AC74",
"nX c #BDAD74",
"mX c #BCAB7B",
"MX c #B4B177",
"NX c #B4B279",
"BX c #C2A45E",
"VX c #C2A868",
"CX c #C2AB73",
"ZX c #C4AB77",
"AX c #C8B177",
"SX c #C4B37C",
"DX c #D1BA75",
"FX c #D9C477",
"GX c #CAB686",
"HX c #D5BD89",
"JX c #D9C58E",
"KX c #E2CF8B",
/* pixels */
"M ' _ ' o.o.o.o.o.=.,.,.o.,.,.:.o.:.,.o.;.,.2.,.2.2.2.2.:.,.O.o.,.,.2.,.3.-.-.3.1.1.,.,.,.3.o.,.4.1.{ @ ; ; : , 6 6 : 4 5 2 6 2 ",
"B 1.m.C.E.E.E.^././.[._.(._._._././.(._._.[.<X<X}.}.}.[.(.[.[.3X}.}.}.<X|.{.[.}.[.<X<X}.1X<X<X<X<X[.B.2 : ; ; 4 5 , 2 4 4 4 6 2 ",
"N 3.5./.(.[.[.}.<X3X3X3XqX3X4X1X1XqX8X8X3X3XaXaXpXiXqX8X3X3XiX3XaXaXiXaXkXaXlXaXaXxXzXkXkXdXuXaXaX1XK.@ : : ; 2 4 4 6 4 4 , 4 , ",
"N 2.5.(.(.}.}.<X3X}.}.|.}.3XqXaXqX4X8X8X8XqXaXaXpX8XiX X8XiXiXiXiXaXaXaXaXaXaXxXdXxXaXkXzXzXzXxXaX3XJ.@ ; : ; : 4 5 6 4 5 2 6 : ",
"F 2.C.(.(.}.}.<X<X}.[.}.[.|.|.pX8XqX8XqXaXpX8X8X8X=X X8X8XiX8X XiXaXaXfXfX4XqXsXfXxXkXkXxXxXdXaXaX<X6.2 ; ; ; : , 5 7 7 2 2 5 , ",
"N 2.E._._.}.<X}.}.}.(.}.}.3X[.{.8X8X8XqXqXsX8X=X8X=X=XpXqXiXiX XiXaXaXfXsXiXaXaXfXNXNXxXdXaXdXxXxX}.K.2 ; : < 6 , 6 7 6 5 6 6 : ",
"N 2.J._.<X}.1X}.3X3X<X<X<X3X[.C 1./.,XsXsXpX9X8X8X=X=X8XiXiXiXiXaXaXaXsXxXxXsXxXaXxXMXxXMXxXxXxXxX1XK.# : 4 : 4 5 4 5 6 4 2 6 4 ",
"F 5.^._.<X1X1X1X1X2X4X2X3X3X8X+.6X=.v +.m.{.wX8X8X8X=XpXiXaX XaXaXxXsXxXbXxXaXxXlXNXxXNXxXbXxXbXxXqXZ.# : 4 4 4 4 5 7 7 2 2 6 2 ",
"F 6.)._.<X}.1X3X3X<X2X2X3X3X3X(.*.tXGXZXtXa./ @.].pX9X9XfXsXxXfXfXfXsXxXbXxXxXxXlXxXbXbXxXbXbXbXbX8XZ.& ; 5 4 4 5 4 6 6 , 2 5 : ",
"F 6.^.(.}.1X1X3X<X4X4X2X<X4XqX8X&.M.G.~.rXAXgX@X-.Z.9X8X=XpXpXsXpXpXpXfXbXbX].L 0.y.*.wXsXbXMXbXsX}.C.3 ; 5 6 5 6 4 7 a 2 4 4 4 ",
"F 6.^.[.1X}.}.<X<X3X3X2X3XqXqXqX|.*.@.( s.H.$XVXDX].-.8X9X=XjXsXpXpXiXpXpXfX*.s q.e.7.y @.lX1X(.3X3XB.2 : 2 5 7 6 6 a a 5 5 6 2 ",
"F 6.^.}.3X}.[.<X<X4X1X3X2X4X3X3X|.[.-.A.s.( ~ ~.AXHX=XcX8X8X9X9XsXpXsXfXxXfX| y 8.e.e.9.y Z.}.C.' o.o.2 : 4 4 7 5 6 A A 6 4 7 4 ",
";.^._.1X1X1X1X4X4X2X4X4X4X2X<X3X4X3X1X-.'.H.H.i.s.*XrXvX#.|.9X].pXfXbXbXsXbX5Xy s I 8.q.8.I {.NXaX/.N @ ; 4 4 4 5 4 6 a 7 4 7 4 ",
";.^._.3X3XqX4X3X4X4XqX<X_.,X,X<X3XqX1X8Xm.G.@. .@X7Xs.'.ZX-.8XbXbXbXMXbXhXcXnXV.t G 8 y q.l ] bXbXpXC.& ; 4 4 4 4 4 A a 7 5 7 5 ",
"[ J._.1X4XqX3XqX).,.B R n 1.K.B.B.3.C.[.P.E ;X@XA.y.H.y.G.GX%.8XxXbXNXcX].!.0XHXGX7XM.K 9.l J NXNXqXL.3 : 5 6 4 4 4 A 6 6 5 7 2 ",
"F )._.4X1XL.{ c c ` K.6X0X5XmXJXJXmXZ.1.c.%XM. .y.a.s.s.K '.{.1.aXfXsXm.%XJXGX6XCXCXVX$Xk I 0 [.NX4X4.2 : , 5 6 5 a a a a 2 5 ; ",
"[ ).L._ *.{.yXmXcXSXGXnXvXSX7Xm.a.h.a.M.%XG.'.;Xa.~ K s.F.&.wX` ,X|.1.hXKXDXS.CX@X .a.%XG.,XaXbXbX4XC.3 4 2 7 7 4 a i a 6 5 6 : ",
";.6.q ) >.5X6XZ.`.%XI.G.V.| L  .| | J E c.7X7X%XU.A.*.E F.V.7Xm.B.c.yXFXDX7X} F.rXU. .r.x.j qXbXxX4X,.i , 4 A 6 6 a A i A 2 6 > ",
";.J.:.,.{ f m ` | | ] ` &.c.| c.c.*.| E E E '.5Xb.F.'.i.~ b.$X*XL B.GXJX*X*.L P f.n.U.R.x.y wXNXlX5.;.3 : 4 4 4 4 5 a a S 2 6 : ",
"[ ).<X1XqX/.] { >.M >.V.'.M.'.I.M.c.V.M.` >.*.mX*.} a.b.c.F.rXM.` m.HXHXP._ _ E I 9.l k z k /.NXaXC.D 3 + : 4 , 4 5 A 3 a 2 6 ; ",
"' ^.<X3XqXaXqX[.B.{ I.7X@Xa.a.*.'.A.'.a.` m c.vX>.b.G.a.M.#XI.L <.V.GXvX1.D zX{ q.y c.T N.{.aXxXzXqX<.2 : : 4 4 7 5 a i i @ 7 4 ",
"o./.<XkXkXaX4X1X[.=.E *.H.'.$X7XM.'.@.i.L b Z.wXc.7Xa.*.G.$X` 4.L.-.hXGXB.v _.{ q.9 ` qXsXxXdXdXaX3XB.3 ; : 4 : 4 , 6 a a 2 5 : ",
";./.<X4XaXaX4XqXaXqX[.-.m.G.#X@.i. .i.c.` E vX>.| v.i.b.*X&.L.kX4.1.rXGXv._ c 1.w.9 M 4XqXaX4XaXaX1X4.2 = : 4 : 4 5 a S 6 , 7 : ",
"' /.<X6XpXsX8XxXpXqXwX6X/.` I.'.@XF.*.i.c.a.GX*.{ B *. .s.b ,XlX/.>.rXAX%X..u _ B.4.,X4X4X3X1XqXpX6Xo.@ + : , , 4 4 7 A A , 4 4 ",
"o.).[.pXwXbXsXpXpXaXqXqX8XtX| v.b.7X'.*.c.'.CX'._ .. .}  . .E { ,X1.*XCXrX} | B ;.4XkX1XC.o.o.=.[.' [ 2 ; + + ; 4 4 6 S A 2 6 , ",
"o.[.}.8XsXbXhXjXjXcXsXcXhXtX*.*XG.M.'.M.| P E @X7X%Xv.*. . .M.| ' /.m.CXgXa.E ..w qXkXqX<X/.C.C.] 2.<.2 : : > ; 4 4 7 S S 5 , ; ",
";.[.|.pXjXnXnXnXnXhXsXcXhXh.&XXX~.{.V.M.c.c.*.i.@XvXZX0X`  .@.*.n L.V.rXgXF.*.&.u K.qXlX<X[.`.,.D o.:.2 : : 4 ; 4 4 a A a 4 , 4 ",
"1.%X9XjXnXjXcXmXnXcXcXG.$.l.XX~.#XG.'.V.P.V.| *.F.H.ZXCX'.*.~ c.` V.P.tX;X'...1.M B.cXbX6Xo.o.C.D o.,.2 : = 4 : O 2 a A a 2 4 2 ",
"&.{.7XrXjXnXnXnXvXvX%.XX-X-XOXW.!.%XI.`.V.P.V.*.L a.M.hXvXGX0X*.~ '.P.tX;XM.` <.M 4.lXcXsXwX=.o.D o.<.2 ; - : : ; : 2 A A 5 5 5 ",
"B L.6XhXvXjXjXCX9X6X#XXXj.W.G.m.c.G.'.I.M.| v.c...c.v.*.c.yXJXtX*.&.V.rX@XA...>.c 4.wX9X9XwX1.=.5.,.,.2 : = : ; = < 4 A 6 6 5 2 ",
"% >.] +.hXCXCXCXnX%X*.g.m.Z.{.1Xm.-.*X'.V.V.c.*.i.c.V.P.M.G.7XJXV.| $X.XF.i.H ` u {.wXhXsX9XB.1.] ' ;.3 : : : : : 4 4 6 : 5 : 1 ",
"u &.>.>.{.nXCXnXnXcXnXCXnXcXSXSXbX9XM.V.{.P.c. .b..XrXH.G.M.M.M.7XM.rX$Xb.F.c.L v cXsXsX8X6X&.=.1Xo.F 2 > : , 4 4 : 4 5 7 6 4 ; ",
"q &.=.R `.nXnXnXjXnXCXAXCXnXSXSXnXnXvX*.6XV.*. .H.rX@XM.@XF.G.} %XG.@X.XM.a.c.e ;.lXqXpXwX7XM.+.{.n i @ , ; 4 4 6 4 4 4 6 4 5 : ",
"q v ` %XZ.Z.hXnXnXnX%X%XG.~.#XM.a.*.b.| '.v.@.H.*X*X~.G.G.G.G.*.V.$XA.S.a. .L & ,XhXtX9X9X{.R { B _ u o : = : = o @ : 6 a A 4 : ",
"X % ` | *.|.sXSX*X-.7XA.A.;XXX&XS.A.'.>.b.G.G.rX~.;X~.A.'.%Xa.| *.b..XA.M.*.L q wX9XwX9XwX6Xv X.,.' M @ > : ; > + ; : 7 a A 5 4 ",
"$ q 9 L 6XnXnX7XZ.tXG.*X#XXX:XXXgXH.S.c.c.tXtXHXtXrX7XV.G.'.0 P  .w.f.p.a. .b B cX9XtX9X9X{.m.B.1.&.D 2 < : : = : : 1 2 5 5 6 4 ",
"X w c R X.wX{.Z.wX7X*X&X&X-X&X&XS.rX'.F.7XZX'.| ~ c.v.>.m.` G ~  . .w.I  .` e K.cXhXvX9X{.C.4.1.,.o.D @ : : - : ; ; : 4 7 6 6 4 ",
"X $ c Z =.+.'.%X0XvX#X&XW.-Xl.W..X@X'.m.g g E i.b.} c.M.P.9 P y.w.I ^ s.~ b L 0X8XwXtXZ.X._ n B n n u + : = O = O O : 4 4 7 6 2 ",
"X & & ' Q !.7XrXHX*X-XgXW.OXW..X@X.Xa.S.s.s.S.f.w.J M.V.b H n.p.w.0.s. .E m c.Z.C.1.K.C R { `.C.B.B.{ + = O O O O O = 4 5 7 6 6 ",
"$ q e R R pXhX&XVXoX-X-XQ..X-XW.XX~..X.Xs..XD.D.( J } E K i.y.F.( ~ K P 0 &.tX{.L.=.N N 1.'.B.3.m.3._ o = O O O O O O : , 5 6 2 ",
"& w & v Q OX&XgXY.-XQ.W.S.XX:XD.;Xk.D.y.A.H.A.f.( I ^ I ^  . .i.~ ~ G p  .rX;X{.3.] ' ' Z.3.3.&.X.v M o O O   . = O : 4 5 5 6 6 ",
"* c w v $.Y.-XW.OX&X&X~.h.s.@XA.D.s.~ H.@XH.f.n.^ ^ ^ 0.I ~  . .P t 0 a.rX$X#.+.&.L.3.o.X.=.=.&.&.] N @ O O   O O - ; 4 5 3 5 4 ",
"q d e e j.OXQ.OXXX#X'.v.J J c.~ J r b.H.D.$X( p K P H H ~ t ~ t b E G.@XA.&.X.3.{.3.Z =.=.X.] v e e M o = =   O O ; : 1 6 5 5 5 ",
"% v e e p.OXXXOX-X~.*.r L Z.ZXCX7Xc.D..X.Xs.^ p 9 9 0 p P H G r B -.g.-.W o._ o.=.Z ] ] R ] L e v e & . O = O O O O + : 5 2 6 5 ",
"X % 9 f M.W.OXXXQ.y.0 e v b rXAXF.s.oXoXf.^ ~ P P...b b G a.s.E ` 3.-.Z.1.X.C N c ' ` R V E  .b r v u o O = O O O O O 2 6 4 4 4 ",
"X & v m +.~.XXXX*Xp. .e v L g G.^ p.u.d.f.~ b I.7X*.P i.^ @Xs.J ,.o.X.X.] ' R Z C R v J | c.P m v e w o = O O O O O O 4 7 4 4 5 ",
"% q e v B H.+XW.&Xk.~ 9 b b b J w.0.u.^ ( K F.gX:Xy.H  .i.S.y.E W ] | Z.Z.!.g.#.E Q E f g J A.~ v c w o ; O   O = O O : 7 4 4 4 ",
"X & e v v E W.W.-Xk. .L t g L r Y t.t.^ K s.@XVX:XY.&Xy.@.k..XT R +.#.#.m.].#XS.N.%.m m v J M.b.J v w . O O   = O O O ; 7 4 5 6 ",
"X v V Q +.E G.k.&Xl.h.u./ K k } ( z.R.oXs..X.X:X+XBX+X+XXXl.T.r./ +.%.+.-.m.N.g.S.g.f r / M.a. .g h d o O O O O O O O : 2 + 4 , ",
"w B @.%.%.+.E h.~.D.r.u.r.h.y.u.s.d.z.T.l.A.D.D.Y.OXXXoXl.VXl.R.t.T U W &.] ] X.+.Q Q Q S.S.'.*.E R d o O = O O O = O - 4 5 4 : ",
"w _ #.S.N.m.Q / @Xp.D.@.s.D.k.p.y.D.! t.T.S.s.a.J J / S.XX-XgX! R.! W R R V E X.W m B a.I.J T a.E ] c o O = O ; O = : : 7 5 4 : ",
"q ' %.g.%.+.| U J M.H.i..Xk.k.s.s.D.( r.T.k.g m V V E g Y j.>Xu.z T.T g j a.*.-.] m v b | E Q E E ] M . O O O ; ; = ; - 6 5 4 : ",
"e ` &.+.] E R U C e J a.#X~.D.F.a.@.E k r.T./ m R C U f f +.-X&Xu.T.oX( ( Y E b C B m U Q E | 0 R ] n o O = = ; = = ; ; 7 5 4 : ",
"w C W +.%.-.+.Q ] C v m j j j Y g r e b t d..Xm M v m v E m Q.DXy.z x.k.G.a./ Q Q U E R B j Q Q m C M o = O ; ; = ; O : 6 2 4 : ",
"e ' &.-./ ] | +.+.] ] E X.+.E b f b | @.k ! d.S.Y Y J  .Y R %.>X#Xm ( u.0 f a.@XG.%.E E R Q #.T W Q v o O = = : = = : 4 6 + 4 > ",
"N =.m.*X*X~.h.J m j E R R Q +.U V b 0 g k.oXx.l.+Xl.h.i.r v U ].VXp.m ! G.v b 0 U R Q ` Q W U W Q U e o = ; ; : = O : , 6 : 4 : ",
"c n %.#XG.!.~.~.!.-.m b R Q #.Q R R b r m Y s.l.! r.oXd.J v R #.>X&XT J @.>.v v e b Q +.X.X.V V W f e @ O ; ; ; - ; : , 6 + 2 2 ",
"% C 1.B.m.#.@.G.!.N.U J B R W Q ] ] &.+.B v 0 u.a.r k u.A.U j R $.XX=X-.j L L m d m B Q Q v C R ] B n @ O ; ; ; ; : : : 4 + 2 : ",
"w X.=.-.#.-.U m %.m.X.m.Z.'.+.E Q W X.R ] ` J J a.} 0 r r E J R b %.Q.>XS.U R T T -.G.~.Y ` E ' R v w @ O ; ; : + , , 2 2 + 2 : ",
"c &.3.m.-.+.R f | m.X.+.Q G.#X!.+.B &.] X.E f m m c.f E m v B R U R U h.Q.&X&XXXXXj.Y 0 e e v n f v q o = : ; 2 4 < : 2 : O 4 : ",
"c &.m.Z.g.E m.&.R #.#.+.&.+.#.G.`.=.Q Q ] ` C W R r Q ] R U m W R R R C U f m U j f v v C C R R n M e @ O ; 4 6 : : @ 6 O : 4 4 ",
"v X.=.-.3.=.Q Q ] U C R R R R R Q #.m.V.&.V V C W C ] ' ' R ] W C n C C n B B n n v m C n n n v n B c @ = 1 6 6 2 : ; 6 O ; 5 4 ",
"B X.X.=.X.=.&.R ] ] C v q M v n B ` C E ] ] X.n c C R C C R m M n w q q w w w x v c n v N N N N c c u @ : 4 6 5 5 : 4 1 : : 5 4 ",
"c B B B D D _ { ] Z n N w X $ X * c w & c u c u c w * u q d c q w % $ $ & * & $ $ q & % * * * w % $ $ o : : 4 6 A : ; 4 : 4 6 4 "
};