P3
64 64
255
142 137 126 139 133 123 134 128 117 128 122 111 129 122 111 138 130 118 140 133 121 139 132 120 140 132 120 139 132 120 141 133 121 148 141 129 141 133 121 140 131 118 137 128 114 136 127 113 136 127 113 139 130 116 134 126 116 131 125 114 135 127 114 138 129 116 135 127 114 135 126 113 137 129 116 141 133 120 138 129 116 135 127 114 135 128 115 139 130 115 136 127 111 135 124 110 134 125 110 132 124 110 133 127 117 135 129 118 135 128 116 142 134 120 144 136 123 141 133 120 139 131 118 143 134 121 146 138 124 145 137 124 141 133 120 145 137 123 144 135 119 144 135 119 148 138 121 150 141 124 139 132 120 134 129 120 139 133 124 138 132 121 144 138 127 145 140 129 139 133 123 139 133 122 139 134 123 141 136 125 142 136 126 141 135 125 139 133 123 136 129 119 
135 125 111 133 123 107 133 125 113 132 124 113 132 119 101 136 124 104 138 126 107 140 127 108 140 126 107 138 125 106 141 127 107 143 129 110 141 127 107 135 120 100 134 119 100 137 122 102 134 120 100 136 121 100 138 126 111 135 126 113 134 117 95  131 114 93  132 115 93  132 115 94  135 119 97  137 122 99  142 125 99  134 119 97  135 120 98  137 121 97  135 119 95  132 117 94  132 115 93  132 117 96  130 122 111 128 122 110 145 129 106 145 128 103 146 129 105 147 131 106 148 131 107 147 130 106 148 131 107 147 131 106 149 132 108 148 131 106 148 132 107 149 131 106 149 133 107 151 134 108 149 136 118 140 135 125 137 128 113 136 127 112 138 128 113 138 129 114 134 125 110 133 124 109 134 125 110 138 128 114 138 129 114 136 128 113 134 126 111 132 122 107 
131 120 106 128 118 103 127 118 105 127 118 104 129 116 96  134 121 101 137 124 104 137 123 104 135 122 102 135 121 101 139 126 106 141 127 107 139 124 104 134 119 99  133 118 100 135 120 101 134 120 101 134 120 100 132 120 103 129 118 102 132 114 91  129 112 90  130 113 90  129 112 90  132 116 93  135 119 95  139 123 96  132 116 94  131 116 93  133 118 96  132 116 94  130 115 93  129 114 92  129 114 92  125 117 105 126 119 107 143 125 101 143 125 100 145 128 103 145 129 104 146 129 105 143 127 102 146 128 104 147 130 105 146 130 104 147 129 105 147 130 106 147 131 106 147 130 106 147 131 105 144 130 109 134 128 116 135 124 109 132 122 107 132 122 108 134 124 108 133 123 107 131 121 106 130 121 106 135 125 110 135 126 110 134 124 109 131 121 106 128 118 103 
131 121 107 131 121 105 125 117 104 122 114 101 132 118 98  135 121 102 140 127 106 142 128 107 139 125 104 140 126 106 143 129 108 143 128 107 142 127 106 138 123 103 133 117 97  134 119 99  136 121 102 139 123 103 130 117 100 125 115 99  131 114 91  129 112 90  131 114 92  133 116 93  133 117 93  133 116 94  135 119 96  134 118 95  133 117 94  135 119 96  135 118 95  132 116 93  131 116 93  131 115 92  130 123 110 130 124 111 144 126 100 146 128 102 148 131 105 150 133 107 149 132 106 147 129 104 148 131 105 148 131 106 147 130 104 148 130 105 147 130 105 147 130 105 148 131 106 150 132 105 142 128 107 129 122 112 134 124 108 133 122 106 136 126 110 134 125 109 134 124 108 131 121 106 131 121 106 135 124 109 135 125 110 133 124 108 131 122 106 131 120 105 
127 119 105 125 116 104 119 112 103 116 110 100 123 113 97  130 119 102 130 119 102 128 116 99  135 123 105 140 128 110 138 125 108 137 124 107 137 125 107 131 119 101 125 113 95  126 114 96  127 115 97  128 114 98  121 112 98  119 112 100 122 108 90  126 111 90  123 109 90  121 108 88  126 112 93  127 114 94  128 115 95  129 116 96  127 114 94  129 116 97  127 114 95  126 113 93  127 114 94  123 111 95  129 123 112 128 122 111 133 119 99  138 123 101 136 122 101 134 120 99  139 125 103 141 126 105 140 125 103 137 122 101 137 123 101 137 123 101 138 124 102 138 124 102 140 126 104 141 126 105 130 119 105 121 116 107 126 118 105 130 121 107 129 120 107 121 112 99  126 118 105 124 116 103 124 116 103 128 120 107 127 119 106 128 121 107 126 119 105 125 117 104 
140 131 117 140 131 118 142 134 121 143 135 123 140 131 118 139 130 117 135 129 117 129 123 113 131 125 114 135 128 115 137 129 116 135 128 115 134 126 114 128 119 108 123 115 103 125 117 105 127 119 108 126 119 107 132 125 114 136 130 119 126 118 107 127 119 108 127 120 110 125 119 110 130 122 109 135 125 110 140 130 113 135 126 112 135 126 112 136 127 114 134 125 111 134 125 110 133 124 111 136 128 115 135 127 115 133 126 114 136 128 114 138 129 114 135 128 117 129 124 115 134 128 116 139 131 118 134 127 115 132 124 112 132 125 113 132 125 114 133 126 113 133 126 114 135 128 116 137 130 117 138 132 120 142 136 125 137 130 118 137 131 119 135 129 119 127 123 114 136 129 116 139 131 117 137 129 116 139 131 117 141 133 119 143 135 122 140 132 118 137 129 115 
142 129 107 144 129 108 143 128 107 143 128 107 144 129 108 144 128 106 146 134 116 137 130 118 124 113 98  124 113 97  122 111 95  122 111 95  119 108 93  114 103 89  114 102 89  115 104 89  117 106 91  117 105 91  116 104 90  118 107 92  118 106 91  117 106 91  126 118 105 136 128 116 129 114 93  133 118 95  137 122 98  132 117 96  133 119 97  135 121 99  132 118 97  132 118 97  134 119 98  132 118 97  132 118 98  133 119 98  134 119 97  134 119 96  140 129 111 140 133 123 129 117 100 131 118 99  125 113 96  123 111 94  125 113 94  127 115 96  126 114 96  125 114 96  125 114 96  127 115 97  125 114 96  125 113 96  127 116 98  128 116 97  132 123 108 141 134 122 146 132 111 144 130 108 144 130 109 145 132 110 147 133 111 147 134 112 144 130 109 143 129 107 
144 129 106 140 126 104 138 124 103 141 125 104 141 126 105 140 125 104 141 128 109 129 121 107 121 110 95  124 113 97  121 110 94  120 109 94  117 106 91  113 102 88  114 103 88  117 105 91  121 109 94  118 107 92  115 104 89  115 104 89  117 106 91  118 106 90  120 110 96  129 120 105 131 116 94  133 118 98  132 118 97  132 118 97  131 117 96  133 120 98  132 118 97  131 116 96  132 119 97  132 118 97  130 117 95  130 116 95  131 117 96  131 116 95  134 122 102 132 125 111 126 114 96  127 115 97  125 113 95  124 112 95  125 112 95  124 112 94  123 112 95  125 113 95  124 112 94  123 111 94  124 112 95  122 111 93  124 112 94  125 113 95  125 115 99  134 126 112 145 131 110 146 132 111 145 132 111 146 133 112 145 132 111 146 132 111 144 131 109 142 128 106 
148 132 106 144 128 105 139 125 104 145 129 106 142 127 106 141 126 104 142 130 111 130 122 109 124 112 96  124 113 97  122 111 95  122 111 95  119 108 93  117 105 90  117 105 90  117 106 91  121 110 94  118 108 93  118 107 91  116 105 90  119 106 91  124 110 93  121 111 98  132 123 107 135 121 99  136 121 99  134 119 99  133 118 97  132 118 97  135 121 99  135 121 99  134 120 99  135 120 99  134 121 99  132 119 98  134 118 97  141 124 99  139 122 97  136 124 104 132 125 113 128 116 98  129 116 98  125 114 96  128 116 98  127 115 97  124 113 96  123 112 94  125 114 96  126 114 97  126 114 97  124 113 95  121 109 92  123 112 94  125 113 95  125 115 100 135 127 113 145 131 110 145 131 110 144 131 109 144 131 110 146 132 111 146 133 112 145 132 111 143 129 108 
135 121 100 136 122 101 140 126 104 139 125 103 139 124 103 141 125 104 134 122 105 120 113 101 120 109 93  122 110 94  118 107 92  118 107 91  116 105 90  114 103 88  113 101 86  114 103 88  118 106 91  118 107 91  118 106 91  116 105 90  116 104 90  119 107 92  118 109 96  128 119 105 133 118 96  134 119 97  133 119 97  132 117 96  132 117 96  133 118 97  135 121 99  136 122 100 134 120 98  134 119 98  135 121 98  135 120 98  138 122 99  139 122 96  130 118 100 122 116 105 123 112 94  124 113 94  122 111 92  124 112 94  123 112 94  126 115 95  122 110 92  122 111 93  123 111 93  122 110 93  121 109 91  117 105 88  118 106 89  122 109 92  119 110 95  122 115 103 139 126 105 142 128 107 141 127 106 144 131 110 143 130 108 145 131 111 145 131 110 140 126 104 
132 122 108 129 120 107 132 124 111 133 124 111 136 126 112 135 126 112 136 129 118 137 131 121 127 121 109 129 121 109 128 120 108 126 118 106 124 116 105 115 108 97  116 109 98  119 111 100 129 121 109 129 120 108 130 121 108 127 119 106 126 118 106 129 120 108 137 130 118 139 133 124 134 126 114 138 129 114 134 126 112 133 124 111 133 125 111 131 122 109 123 116 103 127 120 107 134 126 113 134 126 111 138 130 116 135 127 114 135 126 113 135 127 113 138 132 121 137 132 123 128 122 109 129 121 108 127 120 107 129 121 109 129 122 109 122 115 103 119 113 102 120 113 102 128 120 108 126 119 106 127 119 106 124 117 104 123 116 103 123 115 103 128 122 112 131 127 118 131 125 113 135 128 115 134 126 113 135 128 115 136 129 116 139 132 118 139 132 119 134 126 113 
139 123 102 137 123 102 139 125 105 138 124 103 139 125 104 140 126 105 145 131 110 145 131 110 142 127 106 140 125 104 141 126 105 140 125 104 142 126 106 133 122 107 132 126 114 140 129 112 155 139 116 154 137 115 154 137 114 154 137 113 151 135 113 156 139 114 160 144 119 155 140 119 155 140 117 159 144 120 154 140 119 152 136 115 151 136 113 150 136 116 143 137 126 138 131 119 137 128 112 138 128 112 141 131 116 140 131 114 141 131 114 142 131 115 144 134 118 142 133 117 137 127 112 139 129 113 137 127 110 137 127 111 137 128 112 132 125 113 136 130 121 135 127 114 144 132 112 142 130 111 143 131 112 140 128 108 141 128 109 139 126 108 141 130 111 143 133 114 142 131 112 142 131 112 141 130 111 140 128 109 143 131 111 147 135 117 148 138 121 142 129 108 
132 115 91  132 115 92  140 122 95  134 116 92  130 114 90  134 117 93  134 117 92  130 112 88  133 115 92  134 116 92  133 115 91  134 117 92  135 116 91  131 116 97  127 121 111 139 124 103 150 130 103 150 131 105 148 130 103 148 129 103 149 129 103 149 130 103 146 127 101 146 126 100 147 129 103 150 132 106 151 133 107 147 129 103 145 127 101 145 127 101 140 131 115 132 122 106 131 119 100 132 120 101 136 124 103 133 121 102 136 123 103 134 122 102 132 120 101 132 120 100 130 118 99  129 118 99  128 117 99  129 118 100 128 116 97  128 119 104 130 125 115 133 121 104 140 124 100 137 122 100 137 122 100 136 121 98  135 120 97  135 120 97  135 121 98  137 123 100 138 124 101 137 123 100 136 122 100 137 123 100 139 125 102 141 126 104 142 129 110 138 122 97  
136 119 95  135 119 95  137 120 97  138 121 97  138 122 98  139 122 98  137 120 96  133 116 93  136 119 95  137 119 95  134 117 93  134 117 94  137 119 94  130 116 97  128 121 109 142 127 105 150 131 106 150 132 107 153 133 106 153 135 107 151 133 106 149 130 104 148 129 104 148 130 105 147 129 104 148 131 106 150 133 108 147 129 105 146 128 103 153 136 105 141 133 113 131 121 105 133 121 103 133 122 102 146 134 107 135 123 105 135 123 105 132 120 102 131 120 102 135 122 103 133 121 102 131 120 102 132 121 102 131 121 103 132 121 102 129 121 105 129 125 115 133 123 106 141 126 103 139 125 103 140 126 103 140 125 103 136 122 100 136 121 99  139 125 103 141 128 105 137 124 102 139 126 103 137 124 103 139 125 104 140 126 104 140 127 104 144 133 112 138 122 98  
133 117 93  134 119 94  134 118 94  136 120 95  136 119 95  135 119 94  132 116 92  130 113 90  132 115 91  133 116 92  132 114 90  130 113 90  133 115 90  126 113 95  136 129 116 139 124 103 149 129 102 148 129 103 149 129 103 149 130 103 146 127 101 146 127 100 147 128 100 145 127 102 143 125 100 141 123 98  146 129 104 144 127 102 145 127 100 155 137 103 130 121 105 126 117 100 130 119 100 129 118 99  132 120 101 131 120 100 130 117 99  127 115 97  129 117 99  130 119 100 127 116 98  126 115 98  126 115 98  124 114 96  126 115 97  121 113 99  130 126 116 132 122 105 142 126 102 142 128 104 142 127 104 139 125 103 138 123 100 138 123 100 140 125 102 143 128 104 141 126 104 141 127 105 138 124 102 139 124 102 140 125 103 141 127 104 142 129 109 132 116 93  
120 112 100 123 116 104 124 116 104 123 115 102 119 112 99  120 112 99  122 113 100 120 112 99  122 114 100 121 111 97  127 116 101 128 117 101 132 120 104 134 126 113 138 130 118 140 130 116 137 126 109 139 128 111 137 126 110 137 125 109 135 124 108 133 122 105 135 124 107 134 123 107 123 114 101 121 111 98  131 120 106 135 124 108 132 121 105 132 122 109 143 138 121 132 126 115 129 121 110 130 122 109 134 126 112 131 124 111 129 121 108 129 121 108 132 125 111 126 119 106 119 113 102 117 111 100 114 108 97  115 109 98  114 108 98  127 120 109 135 129 117 125 117 105 133 122 104 135 124 106 135 123 105 134 122 104 133 121 102 131 120 102 133 122 104 135 123 105 130 119 101 132 121 102 132 120 102 136 123 102 134 122 103 132 122 104 124 116 102 118 110 98  
142 137 127 140 135 125 143 138 127 144 139 127 144 139 129 141 135 124 139 134 123 136 130 120 132 126 116 129 123 112 126 117 104 129 119 105 135 124 108 137 126 111 133 123 108 138 127 111 132 123 109 135 125 111 133 124 110 133 123 109 131 121 108 128 119 106 131 121 108 127 119 108 129 122 111 129 123 112 135 127 114 139 129 114 138 128 113 140 131 117 149 140 125 146 137 122 146 136 121 143 133 118 148 139 124 147 138 123 146 137 121 148 138 123 148 138 123 144 135 121 134 129 118 133 127 116 145 138 125 142 135 122 142 134 121 141 133 119 141 134 120 142 135 121 139 130 115 141 132 116 140 131 115 142 132 117 141 132 116 139 130 114 142 132 116 141 133 119 133 128 119 130 126 117 131 125 115 131 125 114 130 124 113 132 126 115 130 125 115 131 126 117 
128 119 105 129 121 106 131 121 107 131 121 105 127 118 103 126 117 102 125 115 102 125 116 102 133 127 117 123 114 100 115 103 88  120 107 90  127 112 94  125 111 93  127 113 94  125 111 93  121 110 93  125 113 96  123 112 95  122 110 94  122 111 94  121 109 93  121 110 94  118 106 91  123 116 105 126 119 108 134 122 104 135 122 104 134 122 104 136 124 106 138 126 109 139 127 110 142 131 112 137 125 108 139 128 110 139 127 109 142 131 111 141 129 111 140 128 110 138 126 108 135 128 116 138 126 109 140 124 99  139 124 101 141 126 102 140 124 101 141 125 101 144 128 103 142 126 102 144 127 102 142 126 102 143 128 103 143 128 104 141 124 100 142 126 101 143 128 102 144 137 123 134 127 115 125 117 101 124 115 101 123 114 99  122 113 99  124 116 101 126 117 103 
126 118 103 128 119 104 127 118 103 125 116 101 124 115 100 123 114 99  123 114 99  121 112 97  126 119 108 124 114 101 118 107 91  121 109 93  131 117 97  131 117 98  129 116 98  124 112 95  124 113 97  127 115 99  126 115 99  127 115 97  124 113 97  122 110 95  121 110 95  119 109 94  125 118 108 126 120 109 134 122 105 136 125 108 135 124 107 136 125 107 140 128 111 139 128 111 140 130 113 138 128 110 140 129 112 140 129 112 140 128 111 139 127 110 140 129 112 140 128 110 136 128 115 138 126 106 139 124 99  141 126 101 140 124 100 139 123 99  145 128 101 146 130 103 140 125 101 139 124 100 139 124 100 141 126 102 140 124 101 137 121 97  137 122 98  139 124 98  139 130 113 129 123 110 124 115 100 122 113 99  120 111 97  121 112 98  123 114 100 124 115 101 
129 120 105 130 121 105 128 119 104 128 118 103 125 116 101 126 115 100 125 116 100 123 113 98  124 117 106 123 113 99  119 107 91  121 109 93  135 120 98  137 121 100 128 115 98  123 111 95  125 113 97  128 117 100 127 116 99  126 115 98  125 114 98  122 111 95  122 110 94  118 107 91  129 122 111 131 124 113 134 122 104 139 126 108 137 125 107 137 126 108 141 130 112 140 129 111 142 131 113 141 129 111 141 129 112 140 128 110 139 127 109 142 130 111 140 129 110 141 129 111 134 127 114 138 126 106 142 125 99  142 127 102 143 127 102 141 125 100 142 126 101 142 127 101 144 128 103 143 127 102 143 127 102 142 127 102 141 126 101 142 126 101 140 124 100 140 123 98  134 126 111 129 122 109 126 117 101 122 114 99  123 115 100 123 114 99  125 116 101 125 116 101 
122 114 100 121 112 98  121 113 101 120 113 101 121 114 101 121 115 101 121 113 101 118 110 98  120 115 106 116 109 98  113 104 91  116 106 93  131 118 99  130 117 98  125 114 98  118 107 94  115 105 92  119 109 95  121 112 97  122 113 100 126 116 99  124 113 97  118 109 95  115 106 95  124 119 108 126 120 110 126 116 103 131 120 104 130 120 105 132 122 107 135 127 112 133 124 109 126 116 103 125 116 103 132 122 107 131 122 107 132 123 107 135 125 109 133 124 109 131 122 108 124 119 110 128 119 104 134 121 100 134 121 101 137 124 102 133 120 99  134 120 100 135 122 101 132 119 98  128 116 95  136 124 102 136 124 102 136 123 102 136 124 102 133 120 98  132 118 99  127 121 111 122 116 107 122 115 102 120 113 100 120 113 100 121 114 101 121 113 101 122 115 102 
135 129 119 131 126 117 138 130 118 140 131 116 143 133 117 141 131 116 140 131 117 141 132 117 147 139 125 142 133 119 137 127 112 139 128 113 152 139 119 150 138 119 146 134 118 138 129 115 130 124 113 134 128 116 138 129 115 143 134 117 143 133 117 142 130 113 140 129 114 139 130 116 135 127 114 134 126 112 136 127 113 134 125 110 135 125 111 139 130 114 141 132 117 134 127 114 126 121 112 129 123 113 135 128 116 140 132 118 140 132 119 139 131 118 142 135 121 143 136 123 148 141 129 144 137 125 142 135 122 144 137 123 146 138 124 143 135 121 145 137 122 146 138 124 137 131 120 129 124 116 138 132 119 142 135 122 140 134 121 138 131 117 135 128 114 137 130 117 146 140 128 141 135 122 137 131 117 135 127 114 136 128 115 135 127 115 135 127 114 137 129 117 
137 127 109 144 135 122 145 129 106 143 128 103 143 128 104 145 129 105 145 129 105 142 126 101 143 125 102 144 127 102 145 126 102 143 124 100 149 130 103 152 133 106 151 132 105 147 129 104 139 130 117 136 128 116 144 127 102 144 127 100 140 122 97  139 120 95  141 124 99  137 121 96  137 120 97  137 121 96  136 119 95  136 119 95  135 119 95  137 121 96  139 123 98  136 122 98  135 127 113 132 125 112 142 128 107 144 129 106 144 130 107 145 131 108 146 131 109 146 131 109 144 129 107 146 132 110 147 133 110 149 135 112 150 135 112 149 134 111 150 135 112 151 136 112 149 138 119 137 130 118 132 119 97  135 122 99  133 120 98  131 118 96  130 117 96  128 115 94  131 118 96  131 118 96  130 117 95  127 114 92  129 115 94  130 116 95  128 114 93  127 113 92  
128 117 98  138 129 112 143 127 102 142 126 103 142 127 103 143 128 104 143 127 103 139 122 99  141 124 100 142 125 101 143 126 102 142 124 99  141 123 98  146 128 103 145 127 102 143 125 100 137 127 113 132 123 111 146 126 98  142 124 98  137 120 96  138 121 97  138 121 97  136 119 95  135 118 94  134 118 94  133 118 95  133 117 94  133 117 94  135 119 96  137 121 97  134 119 95  131 124 110 128 123 110 141 127 105 141 127 104 142 128 106 142 128 106 142 128 105 141 127 104 141 127 105 144 130 108 146 132 110 147 133 111 147 132 110 147 132 109 148 133 110 149 133 110 145 133 113 131 122 108 130 116 94  133 120 98  131 118 96  128 115 94  129 116 94  126 113 92  131 117 95  132 118 95  129 115 94  126 112 92  127 114 93  131 117 96  126 112 91  125 111 90  
129 118 99  139 129 113 145 130 105 144 128 104 145 129 105 144 129 105 142 126 101 141 124 100 141 124 100 143 126 102 143 125 100 143 125 101 141 123 99  147 129 103 146 128 103 144 126 101 136 127 113 134 125 112 139 120 97  141 124 99  140 123 98  140 123 98  137 120 96  137 120 96  135 119 95  136 120 96  135 119 96  133 117 94  134 119 94  136 120 96  138 123 98  136 121 97  132 125 112 131 125 113 141 127 105 143 129 107 144 130 108 144 129 107 144 129 107 144 130 108 145 131 109 145 132 110 148 135 111 149 135 112 151 136 114 151 136 114 150 135 113 151 136 112 148 135 116 132 124 110 131 117 95  132 118 97  130 116 95  130 117 95  132 119 97  129 116 95  132 118 96  133 119 97  131 118 96  130 117 95  131 118 96  131 118 96  128 114 93  126 112 92  
124 113 95  128 120 106 142 126 103 143 127 103 142 127 103 140 124 100 141 125 100 140 123 98  140 122 98  140 123 98  141 123 98  142 123 98  140 121 96  145 126 100 147 128 101 139 121 98  135 126 113 131 124 111 133 116 92  142 124 98  140 122 97  135 117 93  137 119 94  136 119 95  134 116 93  134 118 94  134 117 93  133 116 93  133 117 93  135 120 96  136 121 96  132 118 94  133 126 114 131 125 113 138 123 102 144 128 105 145 130 107 143 129 107 145 131 108 145 130 107 146 131 109 145 131 109 147 132 109 149 135 112 149 134 112 150 136 112 151 136 113 150 135 111 143 131 112 126 119 105 124 111 89  126 113 91  127 114 92  128 114 93  131 117 94  131 117 93  128 114 92  128 114 93  128 115 92  127 113 91  128 114 92  128 115 93  127 113 92  124 110 88  
135 129 119 138 133 124 134 127 114 137 128 114 134 125 111 122 113 100 126 119 105 132 123 109 133 124 110 133 123 109 133 123 108 134 124 109 133 122 109 124 114 100 131 121 105 137 128 115 131 125 114 131 125 114 135 127 114 141 131 116 132 123 107 137 125 108 130 119 104 134 125 111 132 123 109 131 122 108 132 123 109 131 123 109 130 122 109 122 115 102 126 119 106 134 127 116 131 126 116 130 125 115 135 128 116 137 129 116 135 127 114 125 118 106 131 124 111 139 131 118 138 130 117 138 131 118 141 134 120 143 135 121 140 133 119 130 124 111 135 128 115 141 133 119 139 133 122 136 132 123 128 121 107 131 123 109 132 124 110 121 114 101 126 118 105 133 125 110 133 125 111 131 123 110 132 124 110 133 125 110 132 124 110 124 117 103 123 116 102 128 120 106 
147 139 126 148 140 127 142 134 122 143 134 121 144 136 123 137 132 123 143 134 120 147 135 115 148 135 115 147 133 113 149 134 113 151 136 115 150 135 116 140 132 121 142 134 122 149 138 123 152 141 124 149 138 123 150 140 125 155 145 131 141 135 123 143 136 125 136 129 118 141 132 117 138 129 115 138 129 115 138 128 114 137 127 113 138 131 118 138 133 124 138 132 120 144 135 119 142 133 118 141 132 117 143 133 118 142 132 117 143 135 120 144 139 130 137 129 115 135 125 105 135 124 105 136 125 106 141 129 110 141 129 109 142 132 114 145 140 130 138 133 122 136 127 113 136 129 115 136 128 116 133 125 111 135 127 114 139 132 118 143 139 130 143 137 125 141 133 117 143 134 118 144 136 120 144 135 120 143 134 118 143 135 121 147 143 134 144 139 128 143 135 122 
140 130 115 141 131 116 139 129 113 138 128 112 140 128 111 136 129 117 145 131 112 147 130 107 146 129 106 145 128 104 146 128 104 146 128 104 146 127 103 139 129 114 139 128 113 142 128 110 142 130 111 142 130 112 144 133 116 148 136 118 141 131 117 133 128 118 132 123 109 137 125 106 134 122 105 133 122 106 132 120 104 131 121 103 131 121 104 132 125 113 135 126 110 137 125 106 136 125 107 135 124 106 137 125 107 136 124 106 138 126 108 142 136 122 133 121 101 130 115 92  128 114 93  127 114 92  132 119 95  134 120 97  133 118 94  138 131 117 129 121 107 127 117 100 125 115 100 123 114 98  124 115 99  127 119 102 128 119 102 138 132 121 138 129 113 134 123 104 137 126 108 141 130 110 142 132 112 137 126 108 137 126 107 143 136 124 142 134 120 140 129 114 
146 137 122 145 135 121 143 133 118 142 132 116 140 130 114 135 128 116 144 131 111 149 133 111 146 130 108 145 129 105 147 130 106 147 130 106 146 129 104 137 126 111 139 128 113 146 134 116 142 131 114 142 129 112 146 134 117 148 137 120 143 133 119 133 128 117 132 123 109 137 125 108 133 122 107 134 123 107 133 122 106 130 120 104 132 122 106 129 122 110 133 123 107 139 128 110 138 127 109 137 126 108 139 128 110 138 127 109 141 130 112 138 131 119 130 118 99  130 117 95  129 116 94  128 114 94  132 118 97  133 120 98  132 118 96  136 128 114 129 120 107 127 117 102 128 119 103 129 119 103 128 118 103 130 121 105 130 121 105 137 131 119 140 131 114 138 127 108 141 131 112 143 133 114 145 135 116 142 132 113 144 134 114 143 137 124 146 138 125 145 135 120 
144 135 119 144 134 118 141 131 116 139 128 113 135 124 110 132 124 114 146 133 112 150 133 110 147 131 108 146 129 105 147 130 106 147 130 105 147 129 104 132 122 106 131 121 107 140 126 108 139 127 110 140 128 110 142 130 113 147 135 118 136 126 112 136 130 120 128 119 106 132 121 104 130 119 102 131 120 104 132 121 105 128 117 101 128 118 102 124 117 106 125 116 101 136 125 106 135 124 106 136 124 106 137 126 108 138 127 108 137 126 109 131 125 113 129 117 98  130 116 92  129 115 93  128 114 92  130 117 94  131 118 95  133 119 96  133 125 112 123 115 103 128 118 101 126 117 100 125 115 100 126 116 100 130 120 103 132 122 103 128 123 113 137 128 111 136 124 105 135 124 106 140 129 111 141 130 111 140 129 110 139 128 109 135 129 117 139 131 118 146 135 120 
141 134 122 141 134 121 138 131 119 136 128 116 133 126 115 140 134 124 150 137 117 150 136 115 148 134 113 146 131 110 148 133 112 148 134 112 141 126 106 127 120 107 131 125 115 134 125 112 134 125 113 134 126 113 137 129 117 139 132 120 139 133 123 132 126 116 130 124 114 130 122 110 129 122 109 130 122 110 131 123 110 126 119 107 117 112 101 130 124 114 130 124 114 133 126 113 132 124 111 133 125 112 136 128 116 135 128 115 135 128 116 140 136 126 135 124 106 132 119 99  133 121 101 132 120 101 135 123 103 134 122 102 135 122 102 140 133 122 136 131 121 132 126 114 132 126 115 130 124 112 131 125 113 134 128 115 136 130 118 143 139 130 135 130 120 130 123 111 136 129 116 140 133 119 140 134 121 136 130 117 129 122 111 139 135 125 139 134 124 138 131 120 
146 134 116 144 133 114 143 131 113 141 128 111 142 130 112 140 128 109 138 126 105 139 126 106 140 126 105 138 123 103 136 122 103 135 121 102 127 119 106 135 128 118 145 133 116 146 133 114 144 131 112 144 131 112 146 133 114 148 136 117 150 138 120 144 133 116 145 133 115 144 132 113 141 129 111 143 131 113 144 131 111 141 129 112 136 130 120 133 128 118 134 127 114 133 126 114 132 124 112 133 125 112 136 128 115 134 127 114 136 129 116 137 129 115 130 122 108 127 119 105 127 120 106 128 121 107 131 122 108 129 121 106 134 127 115 140 133 119 142 133 118 140 132 116 140 132 116 139 131 115 137 129 114 139 131 115 142 134 119 146 138 122 141 134 118 136 129 113 141 132 117 144 136 120 145 137 122 146 138 124 147 142 132 148 141 126 148 137 118 145 133 115 
136 121 99  134 119 97  134 119 97  132 117 96  133 117 95  133 118 96  136 121 100 136 120 99  137 121 99  133 117 95  131 116 95  131 116 95  131 123 110 133 125 112 138 122 99  139 123 100 137 121 99  139 123 100 140 124 102 142 126 103 140 125 102 141 125 103 139 124 102 138 122 101 137 122 100 138 123 101 136 121 99  138 122 98  136 128 113 124 117 104 121 112 98  122 113 100 121 112 98  120 111 97  121 112 98  122 114 99  123 114 100 125 117 102 123 114 101 123 114 100 122 114 100 123 114 100 125 116 102 122 113 99  130 124 113 132 124 108 128 117 99  130 120 102 131 120 102 131 120 102 132 121 102 129 119 101 132 121 103 130 120 102 129 119 101 128 118 101 129 119 101 133 122 103 133 123 104 133 122 103 142 136 123 141 129 110 136 121 98  135 121 98  
135 120 100 134 119 98  136 121 100 135 120 99  134 120 99  136 122 100 136 122 100 137 122 100 135 121 99  132 116 96  131 116 96  132 117 96  131 123 110 132 124 111 140 125 103 139 124 102 138 122 101 139 123 102 139 124 102 140 125 103 142 127 105 141 127 106 140 125 104 138 124 103 138 124 103 140 126 103 137 123 102 138 124 102 136 127 111 124 117 105 122 114 100 124 116 102 124 116 101 121 112 99  123 115 101 123 115 101 125 117 103 125 117 103 125 116 103 123 115 101 123 115 101 125 116 102 126 117 103 124 116 101 130 124 113 132 123 108 128 119 101 132 122 105 132 122 105 133 123 105 133 122 104 132 122 105 132 123 105 132 123 105 133 124 106 132 122 104 134 124 106 134 124 106 133 123 106 132 122 103 139 132 118 137 126 107 136 122 101 134 120 99  
135 120 98  134 118 97  135 120 98  136 121 99  136 121 99  138 122 100 139 124 101 137 121 99  137 121 99  135 119 97  133 116 96  134 117 95  137 126 109 130 123 110 140 124 102 144 127 104 141 125 102 143 127 104 141 125 102 140 123 101 143 128 105 143 128 105 143 128 105 143 128 105 142 127 105 143 128 105 141 125 104 140 125 103 132 123 108 124 116 103 124 114 100 126 116 102 125 116 101 122 113 100 125 116 101 126 117 102 127 117 103 125 116 102 124 116 101 123 114 99  123 114 100 124 115 101 126 117 102 124 115 101 128 122 111 132 123 107 130 119 100 133 122 104 135 125 106 135 125 107 133 123 105 133 123 104 133 123 104 133 123 104 134 123 105 133 123 105 134 125 105 136 126 108 136 126 107 132 122 103 134 128 115 136 124 105 138 123 100 132 117 96  
129 116 98  129 116 97  130 117 99  133 121 101 132 119 100 130 117 98  132 119 100 131 118 99  132 119 99  126 113 95  115 103 87  115 104 88  133 124 110 135 128 115 118 108 92  123 110 93  122 109 92  121 109 91  122 109 92  120 108 91  123 111 94  125 113 96  124 113 96  123 111 94  125 114 97  121 110 94  123 111 94  126 115 98  125 119 108 119 114 103 122 114 102 123 116 103 122 115 102 122 114 102 125 117 104 127 119 106 125 118 104 122 114 102 120 113 101 120 112 100 120 113 100 116 109 97  114 107 95  114 107 96  122 117 108 125 118 105 126 117 101 129 120 104 131 122 105 130 121 105 129 121 105 128 119 103 129 120 104 130 121 104 128 120 104 128 120 104 129 120 104 129 121 105 128 119 103 125 116 101 130 125 115 129 121 107 132 120 100 128 115 97  
140 133 120 139 131 119 140 133 120 142 135 122 142 134 121 140 132 119 143 135 122 139 131 119 141 133 121 131 125 113 128 121 109 132 125 112 140 133 120 139 132 119 134 128 117 130 124 114 128 123 112 132 126 116 139 133 122 135 128 118 130 125 114 133 128 118 137 132 122 132 127 117 135 130 121 131 125 113 131 125 114 127 121 111 146 139 127 140 133 120 138 131 116 139 132 118 140 132 118 140 133 119 143 135 120 143 135 121 142 134 120 138 131 116 137 129 115 135 128 114 136 128 115 128 122 112 130 126 115 131 126 117 150 144 133 142 136 124 142 135 122 146 139 126 145 138 125 145 139 126 145 138 126 144 137 124 144 137 124 146 139 126 144 137 124 144 137 125 146 139 126 148 142 130 139 135 125 142 137 128 158 153 141 151 145 133 145 138 125 138 131 118 
135 122 104 134 121 103 134 122 104 137 124 106 135 123 105 135 121 104 135 123 105 138 125 105 135 122 104 132 123 109 138 131 117 131 123 111 127 119 108 128 120 109 132 123 112 131 123 110 130 122 110 134 126 114 137 128 116 134 125 113 129 122 110 131 124 112 135 127 115 137 130 118 137 129 117 135 128 117 133 127 115 127 117 102 130 117 96  131 119 98  135 122 101 136 124 101 136 123 101 135 122 101 139 126 104 142 129 106 139 126 103 135 121 100 131 118 97  130 117 96  134 120 97  132 122 105 133 128 118 138 129 115 144 132 112 143 131 111 145 132 113 144 132 113 143 130 111 143 131 113 144 132 113 144 132 113 143 131 112 145 133 114 146 133 114 148 136 117 150 138 119 154 142 123 152 146 135 146 138 122 143 132 112 141 130 111 138 127 108 133 121 103 
131 119 101 132 120 101 134 122 104 133 121 103 132 120 102 130 118 100 130 118 101 135 122 103 134 120 101 131 120 105 132 126 115 120 111 99  117 106 93  116 105 93  117 107 93  116 106 93  117 107 94  119 109 95  121 111 96  120 110 96  114 105 91  119 109 95  120 110 96  123 114 99  122 113 98  123 116 104 131 127 117 123 113 97  128 115 94  130 117 96  133 120 99  133 121 99  135 122 100 134 121 99  136 123 102 138 125 103 135 122 101 131 118 97  127 114 95  128 115 94  133 118 95  132 121 102 130 125 116 134 124 109 141 129 109 139 127 108 141 128 109 142 129 110 141 128 109 141 129 110 143 131 112 140 128 109 140 127 108 143 131 112 144 132 113 146 133 114 149 137 118 149 137 118 143 135 123 140 131 114 137 125 106 134 123 105 134 122 104 130 118 100 
131 118 101 132 120 103 135 124 105 132 121 103 133 121 103 130 117 100 132 119 101 134 121 103 131 118 100 131 121 106 129 124 113 119 111 99  120 110 97  118 109 95  120 110 97  120 110 96  120 110 96  122 112 99  125 114 99  121 111 97  118 108 95  120 110 97  123 114 100 126 117 102 125 116 101 122 115 102 132 127 117 125 115 98  130 116 96  131 119 98  133 120 99  133 121 100 132 120 99  132 120 99  135 123 101 135 122 101 132 119 98  128 115 95  126 113 94  125 113 93  126 114 94  128 118 101 129 124 114 135 126 111 144 132 112 138 127 108 140 128 109 141 129 111 141 129 110 142 130 111 142 130 111 142 129 110 142 129 110 145 133 114 145 133 114 144 131 112 149 137 117 151 139 120 143 136 122 141 132 114 137 127 108 133 122 104 133 122 104 129 117 100 
126 113 95  129 116 98  131 119 101 130 118 100 131 119 100 127 115 96  127 114 97  132 119 101 130 116 98  125 115 101 134 128 117 113 106 95  113 103 90  116 107 93  118 109 95  117 107 94  117 108 94  120 110 96  117 108 94  117 108 94  117 107 94  119 109 96  122 112 98  122 113 99  122 112 98  121 113 101 136 130 120 124 114 99  131 118 96  129 117 96  132 119 97  130 117 96  129 116 95  131 118 97  132 119 98  131 119 97  129 116 95  124 111 91  124 110 91  124 111 92  125 113 92  123 113 98  131 127 116 131 123 109 138 125 107 137 126 107 140 128 110 141 128 109 140 127 108 139 127 108 142 129 110 142 129 110 141 129 110 144 131 112 143 131 112 141 129 109 146 133 113 147 135 115 138 130 117 132 123 107 139 127 107 133 122 103 127 116 98  125 112 95  
126 117 105 132 122 107 131 123 109 132 124 111 132 123 110 128 119 106 128 120 107 128 119 106 130 122 109 133 126 115 134 127 116 121 115 105 116 110 100 117 109 98  126 118 106 126 118 106 128 119 106 127 119 107 125 117 106 125 117 105 125 117 105 128 119 108 130 122 110 129 122 110 130 122 110 134 129 118 136 131 120 129 124 113 120 113 102 132 124 112 134 127 114 134 127 114 134 127 114 135 128 115 137 130 116 135 128 115 131 125 111 128 121 107 128 120 107 128 121 108 127 121 109 132 127 117 135 130 119 127 121 112 126 119 109 125 118 108 136 129 116 137 130 118 135 128 115 135 128 116 135 128 116 136 129 116 138 130 117 137 130 117 138 131 117 137 130 118 137 130 118 141 134 122 150 145 135 135 129 119 122 115 103 127 119 107 128 120 107 126 117 105 
137 124 107 139 126 109 142 129 112 144 132 114 143 131 113 139 126 109 140 127 109 137 124 106 140 127 109 145 133 115 142 130 113 132 124 110 135 128 116 133 123 110 140 127 108 139 125 106 137 124 106 138 125 106 138 125 106 134 121 103 134 120 102 136 123 105 137 125 106 140 128 109 141 129 109 144 133 114 140 130 113 144 137 122 140 135 125 138 129 114 138 128 111 138 130 113 137 129 112 137 129 112 145 136 117 143 135 117 137 128 111 134 124 108 134 125 109 131 122 107 133 124 108 136 127 112 137 129 113 132 125 114 136 131 121 129 122 109 137 127 109 138 127 109 138 127 109 137 127 109 137 127 108 137 126 109 138 127 109 138 127 109 140 128 110 139 128 110 139 129 110 151 140 118 151 141 123 151 143 129 142 137 126 139 129 111 139 128 110 136 124 107 
131 115 95  132 118 97  137 122 101 139 125 103 137 123 102 134 118 98  132 117 96  130 115 95  133 118 97  134 119 99  136 121 100 131 119 102 138 130 117 129 116 100 132 116 94  131 116 96  132 116 94  131 117 94  129 114 93  124 109 89  126 110 90  129 113 92  128 113 93  131 117 96  133 119 97  134 120 98  132 118 95  134 121 102 135 128 115 130 118 100 131 120 101 132 120 101 129 119 100 132 121 102 134 123 102 134 124 103 130 119 100 127 116 97  127 116 97  126 114 96  127 116 97  126 115 97  130 117 99  129 120 104 132 127 117 125 116 99  131 118 95  131 118 97  133 120 99  132 118 98  131 118 97  130 116 95  130 116 95  131 118 97  131 118 97  133 120 99  133 121 99  140 127 104 139 126 103 138 127 107 140 131 117 139 124 102 135 121 100 129 114 94  
132 117 98  133 120 100 138 123 103 141 127 105 140 125 104 133 119 99  132 117 98  132 117 97  133 119 99  135 121 101 138 123 103 132 121 104 127 120 109 125 113 97  134 119 97  134 119 98  134 119 97  136 121 98  134 119 98  128 113 93  126 111 92  128 113 94  128 114 94  129 115 94  133 119 98  135 122 100 133 120 98  133 121 102 131 124 110 130 120 101 132 122 103 133 122 103 130 119 101 132 122 103 133 123 104 135 125 106 132 121 103 129 118 100 128 117 99  129 118 100 130 119 101 129 119 101 131 120 101 130 121 105 131 127 117 126 117 101 132 120 98  131 119 98  134 121 100 132 120 100 133 121 100 129 116 96  136 122 99  133 121 100 133 120 99  135 122 101 138 126 104 140 127 106 142 129 105 135 125 106 138 129 114 140 126 105 137 124 103 131 117 98  
132 117 97  137 123 101 136 122 101 144 128 103 139 124 102 133 119 99  134 118 98  133 118 97  132 118 97  134 121 100 138 123 102 135 122 105 132 126 115 121 109 94  131 116 93  131 116 94  130 116 94  130 115 93  132 116 95  128 112 91  125 108 88  125 109 89  126 111 89  123 109 88  123 110 90  127 114 93  125 112 91  124 113 97  126 119 107 130 119 100 132 122 102 129 118 98  128 117 98  131 121 101 131 121 101 136 125 104 133 122 102 130 119 100 129 119 99  132 121 102 131 120 101 130 119 100 130 119 99  127 118 102 134 129 119 128 118 101 134 120 99  133 120 99  136 123 101 133 120 99  132 119 98  129 115 95  132 117 96  133 119 98  133 119 98  138 124 102 140 127 105 139 126 103 138 124 101 133 122 103 131 123 110 140 126 105 139 125 104 134 119 99  
130 117 101 133 122 104 132 121 104 133 121 104 132 120 103 132 120 102 128 115 98  128 115 98  136 123 104 136 124 105 140 127 107 137 126 108 137 131 120 132 126 114 133 124 109 136 126 112 135 126 111 134 125 111 134 125 111 133 124 110 129 120 106 128 119 105 125 116 103 116 108 96  120 112 99  120 113 101 119 112 101 127 121 111 123 118 109 124 116 102 129 120 104 124 116 100 123 114 99  126 118 102 127 119 103 130 122 105 128 119 103 127 117 102 125 117 101 120 112 96  123 114 99  129 119 104 127 118 103 123 117 105 131 126 117 125 118 106 128 118 101 130 120 103 131 121 105 132 122 105 130 120 103 128 117 99  127 116 99  126 116 99  126 115 98  124 113 96  129 118 101 133 123 105 132 121 103 129 120 107 127 121 111 130 120 103 135 124 106 130 119 101 
131 122 109 135 126 113 135 127 113 134 126 112 131 122 109 132 123 110 133 124 112 126 120 109 130 119 102 132 119 101 136 123 104 132 120 102 136 123 105 140 128 112 141 130 114 143 132 114 143 133 115 144 133 116 141 130 113 140 129 112 136 124 108 138 125 109 136 125 111 129 122 111 136 130 117 146 139 127 150 142 128 147 139 125 143 135 121 142 133 117 140 130 113 140 131 114 139 129 113 141 130 114 142 132 116 144 134 118 142 132 117 141 132 116 139 130 116 128 123 113 130 124 113 138 130 116 141 133 119 142 134 121 133 125 113 141 133 120 140 133 118 142 134 119 143 134 120 144 135 121 144 135 120 143 132 116 139 130 115 137 128 114 138 130 116 131 127 117 133 128 117 137 130 116 137 129 115 144 136 124 145 138 126 136 128 115 136 128 115 132 124 111 
124 111 93  128 114 96  130 116 96  126 113 95  121 108 91  123 110 92  127 114 96  133 126 113 127 116 99  130 116 93  131 117 97  129 115 96  125 110 91  127 113 93  133 119 98  134 120 99  133 119 97  133 119 98  131 117 96  124 110 90  122 107 88  128 113 94  128 114 94  128 120 107 133 126 115 146 130 106 145 128 102 146 130 105 148 131 105 144 127 101 142 125 99  143 125 100 142 125 99  145 128 102 145 129 103 145 129 102 145 128 102 144 128 102 144 128 103 141 133 118 138 127 109 138 123 99  139 125 101 140 124 101 140 125 102 139 124 101 140 125 102 144 128 104 143 128 103 143 128 104 144 127 103 141 124 100 139 123 99  137 121 98  140 123 99  143 135 122 133 124 110 128 115 96  130 118 99  129 117 98  125 113 95  127 115 96  128 116 98  125 113 94  
121 108 91  123 110 93  131 116 94  124 111 91  119 107 89  121 108 92  119 107 89  127 118 105 126 114 99  127 112 93  128 114 96  127 113 94  126 112 93  129 115 96  134 121 101 136 122 100 134 121 100 135 121 101 129 115 96  127 112 93  125 111 92  130 115 96  131 117 98  129 121 109 131 124 110 144 127 102 143 127 100 144 127 101 142 125 100 142 126 101 140 123 99  140 122 98  140 123 98  143 128 102 145 130 105 144 128 103 143 127 101 140 124 100 140 123 97  136 125 108 135 123 103 138 123 99  136 122 99  137 122 99  136 122 99  138 123 100 137 123 100 140 125 101 139 125 101 140 125 101 141 126 101 138 122 98  135 119 96  137 121 98  137 120 97  131 122 108 131 121 104 128 115 95  126 114 96  125 113 95  121 110 92  124 112 94  126 114 96  123 111 93  
120 108 90  121 109 91  122 110 92  121 109 91  122 109 91  126 111 92  128 111 89  118 110 97  121 109 93  125 110 90  125 111 92  128 113 94  130 116 96  130 115 96  132 117 97  134 120 99  138 124 101 134 120 100 130 116 96  128 113 94  129 113 93  131 116 96  130 116 96  132 124 112 132 124 111 145 128 102 145 128 101 145 128 102 146 129 102 144 127 100 141 125 99  140 122 96  140 124 98  144 127 102 147 131 105 148 131 104 143 127 101 140 123 98  144 126 98  132 122 105 135 123 102 141 125 100 137 122 99  138 123 100 141 126 101 139 125 101 138 123 99  141 125 102 142 126 102 144 129 104 141 126 102 139 123 99  134 118 95  136 119 95  135 118 94  128 119 105 130 119 102 127 113 93  124 111 93  123 111 93  122 110 92  125 113 95  128 115 96  127 114 94  
119 108 93  118 107 91  118 107 91  116 106 91  117 107 91  117 107 91  116 104 88  117 110 99  115 106 93  118 106 89  120 108 91  118 105 90  119 107 92  121 109 92  125 112 94  128 116 98  133 120 101 133 120 100 126 114 96  123 111 94  123 111 94  126 114 96  124 114 98  129 122 110 131 124 112 134 121 101 137 124 101 133 120 98  129 117 97  131 117 96  137 123 100 133 119 98  134 120 98  137 123 102 140 127 105 139 125 103 137 123 101 134 119 98  131 117 97  124 118 106 126 117 102 133 120 100 132 119 99  128 116 96  124 112 94  129 117 98  134 121 100 135 122 102 137 124 103 137 124 103 134 120 100 132 118 98  129 115 95  131 117 96  127 115 96  122 116 105 118 111 100 119 109 94  121 111 96  119 109 93  113 103 88  117 107 91  121 111 95  122 111 95  
136 127 114 135 126 112 134 126 113 134 126 112 134 126 112 135 126 112 132 123 111 141 133 120 134 126 113 132 123 109 136 127 113 128 122 111 132 125 114 127 121 111 135 127 115 137 129 117 141 133 120 144 134 120 140 132 119 139 131 118 135 127 115 138 130 117 142 135 123 138 131 121 138 131 119 140 133 122 140 134 121 129 124 114 132 126 116 127 121 109 135 127 114 134 127 115 134 127 113 135 127 114 137 130 117 137 129 115 132 124 111 132 125 111 132 125 113 141 135 123 136 128 116 133 125 111 134 126 112 129 122 112 133 128 118 128 122 111 135 127 113 136 127 113 137 128 114 137 129 114 135 126 112 131 122 108 134 125 109 133 123 109 132 123 110 139 132 120 136 128 116 134 126 112 134 126 113 133 126 113 127 122 113 130 124 114 138 129 116 137 129 115 
135 120 97  132 116 94  132 115 93  132 117 94  133 118 95  134 118 95  131 115 92  131 114 92  129 113 90  133 117 94  138 121 96  137 125 106 140 133 122 129 119 106 128 116 98  129 117 100 131 120 103 131 121 104 132 121 104 134 121 103 131 118 101 131 120 103 130 118 102 128 117 101 128 117 101 129 118 102 131 120 104 132 123 110 138 133 122 125 116 102 130 117 97  133 121 99  127 115 96  130 117 97  138 124 99  129 118 97  124 112 94  125 113 94  124 112 94  124 112 94  126 113 95  128 115 96  126 114 94  130 121 106 143 138 127 129 120 104 130 116 95  132 118 97  129 117 96  130 118 97  126 113 94  123 110 90  125 112 91  124 111 92  124 111 91  123 110 91  125 112 92  128 115 94  127 114 94  127 114 95  137 130 119 136 124 105 135 119 95  136 121 97  
135 120 96  133 117 94  130 114 92  131 116 93  132 118 94  131 116 93  131 115 92  134 118 95  131 115 92  132 117 94  135 119 94  133 120 100 133 127 116 124 115 101 125 113 96  123 112 96  131 118 99  129 117 100 127 116 100 127 115 99  125 113 97  123 111 95  125 113 96  123 111 96  122 112 96  124 114 98  127 117 100 126 118 103 133 129 119 125 115 99  130 117 96  132 119 98  126 114 96  128 115 96  135 121 98  124 113 95  123 111 93  125 113 94  122 110 91  125 113 94  125 114 95  127 114 96  125 112 93  126 116 100 132 127 118 125 115 99  128 115 95  132 118 96  128 114 94  129 116 96  127 113 93  121 108 89  121 108 90  124 111 91  126 113 92  124 111 92  126 113 93  126 113 94  126 113 93  126 113 93  130 122 108 131 118 98  132 117 94  135 119 96  
136 121 98  135 120 97  132 116 94  133 117 94  133 117 94  131 116 93  130 114 91  133 117 94  134 118 94  134 118 95  137 121 96  136 122 102 133 127 116 125 116 102 129 117 100 126 114 98  127 114 98  127 115 99  129 116 100 130 117 99  122 111 96  123 111 94  124 112 95  124 111 95  122 111 96  128 118 102 130 120 102 127 119 105 130 125 116 129 118 101 131 118 97  128 116 98  129 117 98  128 116 97  130 118 98  128 115 95  124 111 93  123 111 93  121 109 91  124 112 94  127 115 96  128 116 97  128 116 95  126 116 100 128 124 114 125 115 99  130 117 96  130 117 96  127 114 94  129 117 96  129 116 96  125 112 92  126 112 91  125 112 93  127 114 94  126 113 93  127 114 94  127 114 94  128 114 94  129 116 96  133 125 110 134 121 100 135 119 95  135 121 97  
134 119 94  136 120 95  131 115 91  133 117 92  130 114 90  130 114 90  129 113 90  129 113 89  131 115 90  132 117 92  134 117 92  130 117 98  133 127 117 121 112 98  124 112 95  124 112 96  123 111 95  128 115 97  131 117 98  127 114 96  119 107 92  119 107 92  122 110 94  126 114 96  121 111 94  124 114 98  124 114 97  124 116 103 140 135 125 124 115 101 128 115 95  127 115 96  126 114 94  124 113 93  128 115 95  124 111 92  120 109 91  119 107 89  119 107 89  125 112 91  128 115 94  126 114 95  125 112 93  123 114 99  134 129 119 121 112 97  127 113 92  127 114 94  124 111 91  127 114 93  128 114 93  122 109 89  122 108 89  125 111 91  125 111 92  124 111 90  126 113 93  126 113 93  126 112 91  125 112 93  125 118 105 126 114 95  132 115 91  133 117 93  
134 125 110 134 125 110 130 121 106 130 120 106 120 111 98  124 115 102 130 120 106 131 121 106 131 121 107 129 120 105 131 121 107 130 122 111 135 128 117 125 119 108 128 120 107 128 120 108 126 118 106 133 123 109 132 122 109 126 118 107 114 107 95  117 108 97  125 117 104 126 117 104 124 116 103 124 116 104 125 117 105 125 120 110 136 130 119 126 121 111 129 122 110 132 125 112 132 125 112 129 122 110 131 124 110 126 119 108 116 109 98  118 112 100 124 117 105 127 120 107 130 123 110 129 122 110 129 122 110 127 122 112 134 128 117 128 123 113 131 124 111 135 126 112 129 122 109 133 125 111 132 124 111 125 118 106 117 109 98  124 116 104 129 122 110 128 121 108 130 123 110 130 123 110 129 121 109 130 124 112 127 122 112 124 118 107 130 121 107 132 123 108 
145 133 113 145 132 113 144 131 111 146 133 115 141 135 124 142 133 120 142 130 112 144 131 113 145 132 113 142 130 112 144 131 112 145 134 116 133 127 116 133 125 113 136 126 110 134 123 107 130 119 106 135 124 108 134 123 109 137 126 112 136 130 120 135 124 108 135 120 99  135 120 100 137 123 102 134 121 100 137 123 102 137 125 106 131 125 115 139 132 122 141 132 118 141 131 117 142 134 119 141 132 117 141 132 117 142 133 119 138 132 123 129 122 111 127 119 106 128 120 107 132 123 110 131 123 110 132 124 110 133 125 112 133 128 118 138 130 118 136 126 109 137 127 109 134 124 107 134 124 107 134 123 105 130 121 106 134 128 118 130 125 115 131 123 110 130 123 111 129 122 109 130 122 109 128 121 109 136 129 117 141 136 127 142 134 120 143 130 111 143 131 112 
140 124 102 139 124 101 136 120 97  138 121 98  136 126 112 136 125 107 138 123 100 138 124 102 137 122 101 137 122 100 137 121 99  139 124 102 137 128 115 125 114 100 125 113 95  121 108 92  120 108 91  124 112 96  125 114 97  124 112 95  128 120 107 128 113 93  127 109 85  128 111 88  130 114 90  130 115 92  134 117 91  134 116 89  135 127 112 138 128 114 134 123 106 134 124 108 136 125 107 135 124 108 135 124 107 136 125 107 133 125 114 122 113 99  119 109 93  120 110 95  122 113 97  123 113 97  123 114 98  121 111 95  133 127 115 130 120 104 127 113 94  127 115 95  129 116 95  124 112 94  127 114 93  121 108 87  125 118 106 122 115 102 120 111 96  122 113 99  123 113 99  121 112 98  120 111 96  125 115 100 133 127 117 136 124 106 135 120 96  139 124 102 
142 128 105 140 125 103 137 122 100 138 122 99  135 125 110 140 128 108 140 125 104 140 126 105 140 125 104 142 126 105 139 125 104 141 127 105 134 124 110 125 114 100 124 112 95  123 110 95  123 111 96  125 113 97  126 114 98  126 114 97  126 118 105 126 111 92  129 111 88  130 112 89  132 116 93  133 119 94  132 117 94  131 116 91  132 124 107 136 126 111 134 123 107 135 124 108 136 126 109 135 125 108 135 124 108 135 123 107 129 122 109 121 113 99  122 113 97  122 112 97  123 114 99  126 116 101 126 117 102 124 114 99  127 120 108 128 119 102 127 115 96  129 117 98  133 120 97  126 115 96  124 112 94  124 111 93  125 117 104 123 115 103 124 115 100 126 117 102 126 117 102 122 114 100 123 114 100 129 120 104 132 126 114 137 125 106 139 123 101 138 124 102 
136 122 100 133 118 97  130 115 94  130 115 94  124 115 103 128 117 100 132 117 97  134 119 99  133 119 98  134 120 99  135 120 100 133 120 100 127 119 107 124 113 99  123 110 93  121 109 93  124 112 96  126 114 97  127 115 99  126 114 97  120 112 101 119 106 89  122 105 83  122 105 84  126 110 88  128 113 90  128 112 90  126 111 88  123 115 103 130 122 107 135 124 106 133 122 105 135 123 105 136 124 107 137 126 110 136 125 107 125 118 107 115 108 96  118 108 93  119 110 95  119 110 96  121 111 97  122 113 98  119 110 95  122 116 105 128 118 102 127 116 96  130 118 97  134 119 97  127 116 97  126 113 94  126 113 93  123 115 104 117 110 98  119 110 95  121 112 99  121 112 98  117 109 95  118 110 97  122 113 99  124 118 109 129 118 102 133 119 96  132 118 97  
119 112 100 118 110 98  110 103 90  114 106 95  133 125 114 126 119 108 116 108 97  121 113 101 122 114 102 123 115 103 118 111 98  122 114 102 129 123 113 118 110 99  119 109 94  118 108 93  121 111 96  124 112 98  121 111 96  117 107 94  122 114 104 117 110 99  107 99  86  113 104 92  119 111 99  120 112 100 119 111 99  118 111 99  128 122 113 123 116 105 129 119 105 131 121 105 133 121 104 130 121 105 125 116 102 121 113 100 124 118 109 118 113 103 109 103 92  114 108 97  117 111 100 118 112 101 117 111 100 119 113 102 126 121 112 120 112 100 125 114 97  127 117 99  127 116 99  127 117 100 123 113 96  118 109 94  124 119 108 125 120 109 115 108 98  118 112 101 118 112 102 116 110 100 117 111 101 124 118 108 139 133 122 126 119 109 117 110 98  116 109 97  
