P3
64 64
255
141 139 131 120 116 111 79  86  58  44  45  17  50  55  24  46  56  22  38  54  14  49  64  29  137 134 128 67  92  38  49  64  18  51  64  24  42  62  14  45  62  14  48  70  20  48  69  17  46  64  19  88  94  72  165 164 157 161 158 154 123 124 110 31  42  8   106 109 87  147 142 137 145 144 136 181 182 171 73  81  52  32  39  7   94  89  80  171 170 164 155 151 147 90  96  71  61  85  23  61  88  22  42  62  16  48  70  19  58  77  20  59  81  21  40  55  16  42  54  17  39  56  16  38  53  14  45  47  18  39  46  17  31  42  14  35  39  13  36  49  18  45  62  19  50  69  17  41  59  17  45  66  18  55  80  23  49  70  18  43  59  16  51  71  19  44  63  17  43  51  23  48  53  31  39  53  14  50  69  19  48  67  18  53  73  18  44  62  14  67  83  39  
69  86  45  62  69  41  60  65  33  43  38  18  46  38  22  55  59  27  50  61  24  51  60  31  90  92  75  40  60  18  58  70  25  62  81  24  47  67  20  63  77  37  49  67  22  49  65  24  142 145 132 141 136 134 155 152 148 170 168 163 130 127 118 79  78  57  43  35  22  111 105 98  105 99  91  125 123 112 72  81  44  39  44  11  58  53  42  158 156 151 106 111 93  44  66  16  48  68  18  43  64  17  46  65  19  43  48  17  55  68  21  50  67  17  44  64  16  45  67  17  35  52  14  42  51  16  51  42  21  44  41  22  54  50  26  44  47  21  37  38  17  38  44  15  42  55  17  47  63  18  51  74  22  48  70  21  37  57  14  35  46  15  58  72  21  45  60  20  31  45  14  40  59  15  50  73  18  41  57  14  47  68  17  47  68  17  56  79  20  57  76  27  
37  61  12  48  74  16  55  66  21  53  53  25  44  47  20  48  62  23  44  53  19  61  62  38  67  77  44  36  55  12  57  80  24  70  91  40  90  92  73  136 131 127 76  87  54  49  68  21  126 119 114 155 153 147 135 131 125 169 167 163 153 149 147 132 125 115 58  43  27  51  44  32  49  43  29  35  28  15  52  54  25  43  55  20  40  49  22  59  64  41  36  59  11  37  53  14  37  54  15  35  53  15  40  58  15  43  54  16  60  74  25  53  73  21  44  66  15  44  65  18  42  61  17  40  39  16  64  51  28  50  42  24  48  39  22  50  42  23  40  29  17  37  41  17  42  54  18  47  63  20  49  65  22  43  61  18  48  70  18  49  69  18  57  74  22  50  68  21  59  85  25  61  89  24  44  64  17  36  52  14  43  64  18  57  82  20  43  64  16  35  54  13  
48  70  19  52  77  22  52  63  22  46  45  23  45  47  19  38  52  16  49  70  19  45  63  18  45  62  17  39  50  19  51  74  22  55  81  26  52  70  29  66  80  36  54  66  29  47  64  20  89  82  72  139 134 128 151 148 143 165 162 158 184 181 178 117 116 101 53  50  24  52  46  21  50  45  24  51  51  25  49  44  22  55  50  25  45  55  20  41  53  14  38  56  17  35  50  14  43  61  16  131 137 114 97  102 82  23  42  1   47  67  19  51  75  21  40  55  15  47  51  21  50  65  25  47  41  19  55  43  25  47  43  22  46  38  22  44  37  21  45  47  23  45  54  23  44  59  18  40  55  15  48  66  21  43  59  20  46  66  18  48  71  18  53  73  21  61  84  23  54  82  21  35  53  15  42  61  17  42  61  16  57  83  20  49  71  18  41  61  16  48  69  18  
52  75  19  49  66  20  56  59  28  65  69  32  66  81  28  56  72  24  50  72  19  121 125 107 84  104 61  29  46  7   42  60  19  43  70  16  36  55  13  50  77  18  45  57  15  56  72  26  104 105 90  139 134 133 171 170 164 171 168 164 152 151 145 65  79  33  62  79  30  86  85  63  48  44  21  53  53  25  57  50  25  62  66  28  53  61  23  50  53  24  37  45  17  34  50  11  53  66  27  124 119 115 166 161 160 104 109 91  31  48  9   39  59  14  41  62  17  45  45  18  55  48  26  52  47  24  47  50  22  53  68  26  49  60  23  44  57  20  56  71  27  47  58  21  55  68  22  47  68  19  37  54  15  40  62  17  45  68  17  47  70  19  44  60  17  47  67  18  49  74  19  52  74  20  42  60  16  37  57  15  55  82  20  50  75  18  57  81  22  54  79  19  
55  72  22  54  72  24  56  60  26  55  57  26  70  96  28  46  72  17  56  71  35  152 146 145 127 132 114 38  55  9   40  59  17  46  64  18  47  64  18  39  58  16  34  46  15  41  55  16  58  77  34  135 131 122 152 148 144 157 154 148 71  91  47  44  67  10  60  70  33  78  75  50  59  56  27  58  72  28  62  67  28  60  75  29  58  73  24  52  49  25  44  45  21  53  60  25  54  64  20  61  59  37  129 124 119 183 177 177 114 121 99  36  58  8   54  80  22  51  72  22  60  65  25  46  54  23  38  48  16  43  55  18  52  72  23  46  56  20  50  54  20  45  54  20  47  68  19  53  75  20  34  50  14  36  53  15  44  67  18  50  71  20  42  58  16  46  65  15  51  75  18  45  65  17  46  57  17  41  60  16  48  72  17  57  82  20  46  68  17  60  84  22  
56  65  26  66  89  28  65  81  27  51  50  25  54  67  24  48  75  17  54  67  35  141 138 130 156 153 150 68  79  45  41  66  10  61  85  24  50  67  18  50  70  19  33  47  13  29  43  11  39  61  13  58  68  30  163 155 156 128 141 110 45  75  12  60  85  26  59  83  29  55  78  22  58  81  23  49  72  20  47  55  18  60  77  25  78  94  28  58  67  24  56  69  24  60  67  26  61  64  26  50  66  19  49  62  24  84  83  66  153 151 146 64  78  42  46  68  13  54  78  23  45  65  19  54  67  22  67  76  27  52  59  20  51  58  20  46  64  19  56  54  24  55  68  24  55  79  23  39  57  16  41  62  16  54  68  20  44  55  19  50  62  22  45  55  19  40  59  17  42  63  17  44  62  17  54  70  21  51  67  19  42  63  16  49  72  19  55  79  19  61  84  22  
40  45  18  46  58  19  50  57  23  49  46  24  54  63  27  44  68  16  57  78  27  144 142 134 178 174 173 153 156 142 39  57  16  48  70  16  42  59  15  42  62  16  50  68  18  48  59  27  44  62  17  40  63  13  53  60  34  44  63  20  61  90  21  53  74  22  58  84  25  56  86  23  48  74  18  42  63  14  50  68  17  50  72  18  68  96  24  64  88  22  63  81  24  47  54  19  46  59  19  51  68  20  53  75  18  37  57  12  53  64  31  57  72  35  36  52  12  42  60  16  44  58  17  60  67  25  66  83  29  64  68  29  65  66  29  49  67  24  45  60  17  54  71  21  47  57  19  37  47  15  41  57  16  40  54  15  41  59  15  47  62  17  44  52  16  43  59  18  48  69  20  51  70  20  41  65  16  42  59  16  48  70  18  39  56  15  43  59  18  43  53  19  
44  49  19  43  56  19  48  53  23  43  50  20  44  54  23  43  65  15  48  67  20  125 122 114 121 118 109 115 115 104 68  83  45  47  70  13  49  70  20  40  61  13  60  71  35  143 141 135 53  67  28  46  69  14  37  57  12  41  61  15  46  69  18  42  67  17  44  68  17  64  88  23  58  78  21  37  54  15  53  76  20  50  71  18  48  71  18  50  75  19  58  76  22  45  54  18  42  58  19  58  70  22  41  51  16  37  49  15  39  56  12  40  55  13  59  63  24  50  62  22  51  68  19  53  65  21  62  77  29  50  68  18  67  91  28  55  73  23  44  59  19  52  61  23  46  38  20  52  56  24  55  70  24  39  44  14  42  54  15  49  66  19  46  62  17  44  62  15  55  77  19  61  84  21  49  74  18  44  62  17  51  65  18  35  51  14  36  47  17  47  52  21  
54  73  21  37  47  15  37  45  16  38  58  16  33  48  13  36  55  15  32  49  13  34  49  10  38  54  16  34  57  11  42  61  14  46  63  13  32  52  8   44  69  16  50  67  24  89  94  73  64  73  47  44  64  12  49  70  19  36  56  14  34  53  14  36  54  14  33  51  13  52  69  18  57  76  20  44  60  17  36  50  14  48  72  18  50  71  18  45  65  17  60  86  24  44  61  18  35  49  16  54  69  22  47  58  18  53  68  20  50  67  21  45  61  19  55  60  21  48  49  22  53  66  23  61  77  23  40  56  14  61  75  38  172 178 157 98  113 70  32  52  6   56  73  23  48  55  20  45  47  20  57  67  23  50  57  19  40  55  17  47  62  19  47  68  18  58  80  21  49  67  16  46  66  16  49  75  19  42  59  15  55  72  19  47  64  19  48  59  19  51  62  22  
51  57  22  58  69  24  43  59  18  48  59  20  39  54  16  32  49  13  48  71  18  40  61  13  33  54  7   40  58  11  58  81  28  72  80  47  83  93  61  50  71  22  30  47  4   25  41  4   52  77  20  44  63  18  32  49  13  29  45  13  46  60  19  36  53  15  38  57  14  44  63  16  37  53  14  47  63  19  44  61  18  63  90  23  49  72  19  50  75  20  57  86  22  50  73  20  47  60  19  57  72  24  40  45  18  40  51  17  49  71  21  45  63  19  52  73  20  52  64  19  53  65  24  56  75  22  44  68  16  50  54  33  137 129 128 148 151 136 66  89  35  61  85  21  50  63  18  56  66  21  63  60  27  42  46  21  51  58  24  39  49  19  58  81  26  55  76  19  44  61  15  41  55  14  51  65  18  47  61  19  43  46  18  59  63  25  65  81  28  66  85  28  
53  56  25  50  56  23  40  51  17  47  64  19  38  54  16  43  62  17  51  71  23  61  76  40  92  100 73  88  86  72  120 119 107 156 158 144 141 139 132 148 150 136 85  95  66  46  62  16  39  64  10  36  54  15  37  58  16  47  69  18  42  56  16  42  62  17  46  60  17  44  61  16  39  60  15  46  63  19  37  51  16  42  61  15  47  66  17  46  68  17  54  75  20  54  74  20  55  78  22  44  64  17  43  65  17  35  53  14  45  67  17  56  81  20  49  72  21  51  73  20  50  66  18  44  60  17  42  63  16  51  72  16  60  80  20  67  76  44  60  69  41  65  65  25  79  73  35  63  75  27  57  59  27  50  52  26  54  64  26  63  82  31  55  76  25  49  70  19  69  75  25  55  56  23  53  56  22  52  45  22  50  44  24  50  37  22  59  65  26  55  63  27  
51  58  25  46  55  20  40  50  16  45  68  17  55  80  21  45  68  17  51  62  29  145 148 134 189 185 185 170 168 162 99  94  88  130 128 120 159 156 151 159 155 150 153 150 144 147 155 132 82  98  62  41  64  13  56  82  22  60  85  22  50  70  19  44  65  16  48  68  18  38  48  14  38  54  14  33  48  13  45  65  18  40  60  15  42  61  16  51  77  19  51  72  18  63  84  22  54  78  21  43  63  16  47  70  17  46  68  16  34  50  9   54  83  17  38  65  5   42  63  12  47  62  19  56  73  20  51  69  18  61  87  22  57  79  22  43  63  12  55  61  12  64  65  28  65  78  31  58  75  28  49  66  22  45  63  19  41  58  19  49  71  21  46  67  17  47  72  20  59  70  22  57  55  26  53  51  26  57  53  26  49  46  24  49  37  23  56  52  27  45  52  22  
53  60  25  56  64  26  52  64  20  47  65  18  39  56  14  52  76  19  44  65  16  50  67  29  103 103 89  165 161 159 143 141 135 163 161 157 151 147 144 151 148 141 144 142 134 120 114 112 151 147 143 103 113 83  42  67  11  61  86  30  65  81  40  38  57  12  49  74  18  49  77  19  49  62  18  35  50  12  38  58  15  53  76  19  45  66  18  30  45  12  43  65  17  50  68  18  56  63  23  58  80  25  51  65  26  121 123 107 134 138 122 107 113 94  128 139 106 78  99  49  40  59  12  64  83  23  58  80  21  49  71  17  52  68  28  118 121 103 117 123 83  60  79  25  57  83  23  48  71  17  45  67  17  49  69  18  47  65  20  51  71  20  63  84  22  60  86  24  47  69  20  50  68  21  48  62  20  43  56  18  48  72  20  56  67  27  59  59  29  54  57  28  
53  73  23  50  68  21  45  56  19  44  55  20  48  67  18  46  70  15  27  49  5   30  51  9   37  55  10  90  94  74  109 102 97  110 106 99  95  89  81  110 105 97  128 126 117 153 153 145 161 156 155 85  90  70  51  71  17  62  86  28  81  96  57  58  74  25  51  57  19  55  63  22  60  78  23  50  67  18  36  51  13  44  64  16  49  75  19  39  58  16  46  65  16  52  65  20  53  63  24  50  69  23  62  77  24  82  77  62  138 134 130 104 99  91  131 125 123 85  99  67  49  68  14  60  81  20  41  60  17  59  81  21  53  74  21  114 109 105 106 112 92  41  61  14  57  79  21  51  73  20  52  75  20  48  71  20  46  65  18  55  75  19  45  65  17  48  71  18  48  69  20  48  66  20  48  66  20  45  62  21  49  71  21  57  74  24  53  68  24  61  85  28  
54  77  21  49  72  22  44  56  21  35  48  11  65  76  46  131 135 116 81  90  66  40  57  19  37  60  9   35  55  10  78  83  58  120 115 111 143 141 134 125 121 115 120 115 108 158 157 150 93  102 74  44  56  12  64  65  28  54  64  22  66  85  29  59  77  23  48  53  18  41  42  17  50  50  20  47  52  20  51  67  21  43  63  19  55  83  20  53  75  19  59  86  23  53  78  21  51  71  22  47  64  21  51  69  19  34  41  10  95  90  83  102 97  91  78  80  59  116 119 104 123 123 108 39  56  13  43  65  16  50  74  18  45  68  21  117 116 105 74  88  51  38  63  11  43  63  17  41  58  17  46  64  18  56  78  21  50  73  21  48  70  18  48  67  17  40  62  16  45  66  17  43  62  18  52  63  21  48  64  22  54  81  23  57  77  25  50  58  21  60  82  24  
55  79  22  37  62  9   39  62  14  34  56  10  72  86  51  163 159 155 158 154 151 123 124 110 98  109 79  59  84  29  39  60  9   70  77  48  156 154 148 152 151 143 75  74  57  38  48  18  46  67  17  77  94  49  66  83  41  52  62  20  64  80  27  62  84  21  41  61  17  46  58  18  56  67  23  52  62  25  46  61  22  39  54  19  50  71  18  58  81  21  48  69  18  54  77  20  58  78  20  47  66  19  51  71  22  45  65  16  56  65  30  86  93  63  47  66  20  57  74  34  93  109 68  54  68  27  43  64  13  54  76  22  40  61  15  112 116 96  64  83  38  38  62  12  39  57  16  44  64  17  48  71  19  53  78  17  43  66  8   48  70  16  61  86  23  44  64  17  47  65  17  48  67  18  49  64  20  52  67  21  48  72  21  45  58  20  53  71  25  51  69  22  
54  77  24  73  85  57  135 135 126 98  112 76  38  61  6   127 125 116 170 167 163 99  93  89  138 131 129 186 190 177 118 132 95  62  85  32  63  72  36  71  78  49  55  67  30  66  71  47  99  102 80  162 159 154 122 130 105 40  63  7   46  63  18  44  65  19  48  74  19  52  58  21  58  65  23  52  68  22  38  54  15  36  53  15  45  67  19  59  79  23  41  52  16  46  63  18  66  83  25  41  57  15  43  64  19  47  64  19  51  60  18  47  65  15  50  71  19  44  64  13  53  79  11  48  69  16  49  68  18  53  76  20  50  71  19  65  80  43  49  68  22  43  65  14  56  80  19  48  70  13  30  48  8   58  76  36  95  103 75  52  68  27  33  52  9   48  72  15  51  67  18  47  63  20  48  61  22  41  57  16  32  47  13  36  52  16  43  64  14  34  55  8   
154 157 142 165 163 159 132 124 123 135 136 122 52  73  22  106 107 96  166 163 160 172 171 165 102 96  89  160 156 155 170 165 165 123 121 111 53  69  23  137 140 122 179 177 169 130 129 118 106 100 93  153 145 147 102 111 85  65  80  44  73  86  52  53  78  15  59  85  22  41  61  17  38  50  17  42  59  21  50  72  20  44  64  17  37  51  16  56  70  24  40  51  17  36  51  15  56  75  21  45  62  17  36  53  15  42  54  17  44  46  19  36  43  17  46  60  17  49  66  18  45  62  18  41  56  14  56  76  19  52  74  19  53  72  19  53  74  22  34  51  13  43  63  17  51  68  21  70  78  51  122 125 110 150 147 143 171 166 166 118 119 106 35  50  15  48  63  25  38  48  14  44  55  10  45  54  12  43  53  17  36  53  15  36  53  11  58  73  34  106 117 87  
185 182 180 185 183 179 157 154 150 140 131 132 68  79  51  72  81  53  131 123 124 166 164 161 153 150 144 106 100 94  170 168 164 79  86  62  34  50  5   162 161 154 179 178 173 168 168 162 148 143 140 118 119 105 59  80  30  67  81  43  107 110 92  64  85  31  60  84  21  53  77  21  51  75  20  43  64  18  46  69  18  57  84  21  48  53  20  48  47  20  40  53  16  38  50  13  41  53  16  43  59  18  48  63  18  43  54  16  45  60  18  47  59  20  39  36  16  45  57  21  43  62  18  55  74  21  56  56  21  49  43  19  59  72  27  69  85  38  50  68  14  77  89  53  141 137 136 144 141 136 165 162 159 151 148 143 180 177 174 134 138 122 83  93  65  185 181 181 165 163 157 104 105 90  91  93  70  53  63  27  28  47  2   75  82  59  123 119 116 136 130 128 
157 153 148 175 172 168 152 154 142 89  98  71  53  72  30  49  75  19  68  79  47  80  82  67  138 135 127 121 115 108 90  88  74  53  71  23  52  71  17  112 108 96  162 158 156 148 145 139 64  75  40  66  79  42  83  94  62  41  66  7   51  70  25  57  74  32  41  63  15  36  53  14  49  69  19  46  68  18  48  66  19  52  64  20  48  57  18  40  36  19  46  54  22  52  61  21  55  74  22  50  68  19  49  63  19  53  64  21  57  69  24  54  59  23  62  52  29  48  51  23  50  53  21  63  58  27  63  45  27  62  52  27  50  63  20  53  66  20  52  66  19  71  90  29  109 109 88  136 132 128 137 133 130 181 178 175 209 207 206 92  99  79  65  73  47  155 150 146 132 137 121 89  97  73  64  74  45  44  62  17  92  101 73  66  78  44  99  96  84  101 95  88  
72  69  52  52  53  32  50  72  22  59  87  17  36  55  12  29  44  11  38  63  11  38  61  12  47  64  20  79  96  49  48  60  24  46  68  13  51  67  18  122 116 110 110 113 98  52  70  24  98  111 75  132 129 122 142 138 134 46  57  25  45  61  15  43  60  16  46  69  18  28  44  11  40  59  16  56  80  21  48  68  20  45  54  21  40  46  18  46  56  21  41  46  20  49  64  22  51  74  22  55  76  21  50  70  20  43  57  18  63  81  26  43  53  18  65  62  30  64  65  30  52  56  26  46  39  22  53  47  26  48  48  24  49  64  24  45  53  19  53  56  22  49  63  20  41  57  13  92  102 71  91  91  73  88  86  73  120 115 108 76  85  59  30  43  9   37  52  15  28  50  5   23  42  3   40  59  11  99  104 86  136 129 127 68  77  50  37  39  11  67  58  45  
50  61  22  37  54  14  35  52  13  47  65  19  38  56  16  42  64  16  42  65  17  35  54  14  35  57  15  37  59  10  32  48  12  56  80  21  58  73  21  58  68  36  48  69  22  102 110 80  167 164 162 151 150 142 145 142 137 110 118 91  36  54  9   61  80  26  52  73  19  37  55  14  44  66  17  48  68  17  39  61  16  41  61  18  44  59  20  46  68  18  44  58  18  52  71  22  43  62  17  55  83  23  49  74  20  39  60  15  43  60  16  64  75  27  59  69  26  54  58  23  61  52  28  60  56  28  48  57  23  37  52  18  42  58  21  48  66  20  51  50  19  50  55  23  42  58  21  32  46  12  36  49  12  40  52  13  35  44  10  46  44  18  39  43  16  35  50  15  46  68  22  33  52  7   66  73  44  162 158 156 132 128 121 99  95  87  39  49  14  45  56  20  
43  59  18  39  59  17  46  67  18  37  52  15  35  48  13  39  58  15  47  68  17  44  68  18  40  60  17  46  69  19  47  70  19  58  80  21  47  67  15  43  58  21  170 171 160 183 180 179 140 139 132 154 155 145 132 131 121 130 130 120 44  62  21  41  57  15  51  74  20  53  76  20  55  72  20  46  66  17  36  55  14  38  56  16  39  60  17  51  64  20  60  66  25  55  69  23  44  67  20  52  82  21  54  80  21  43  65  18  45  63  19  56  72  27  53  58  26  52  54  23  57  49  26  51  48  26  48  59  23  35  48  15  35  44  14  56  74  23  54  53  21  42  41  18  55  71  28  51  70  24  39  55  16  46  57  19  55  68  24  47  42  19  44  44  19  44  61  20  35  57  7   81  97  57  147 145 139 153 151 146 189 188 184 172 168 166 61  70  41  33  52  9   
47  69  18  40  60  16  59  87  22  45  60  18  36  49  13  42  60  16  37  52  13  42  64  15  31  52  10  41  60  14  53  77  20  52  75  21  46  69  17  43  56  22  158 153 148 174 175 166 160 163 151 153 153 144 119 116 107 158 158 148 75  82  61  20  37  2   37  56  16  47  67  19  43  64  17  39  61  15  35  54  14  37  57  15  63  95  23  55  67  21  67  76  31  61  83  29  44  66  20  42  62  16  56  73  20  43  64  17  52  75  22  50  73  19  44  55  17  57  53  25  55  56  26  55  65  28  52  59  25  50  60  24  45  60  18  44  61  16  48  52  19  52  51  24  50  58  23  46  63  14  36  60  11  47  63  18  54  64  23  44  61  14  38  51  12  41  59  13  85  98  66  158 153 152 145 138 137 121 113 109 121 120 108 92  97  79  48  66  21  51  75  19  
41  60  15  51  77  19  48  69  19  42  54  18  49  67  20  35  55  11  35  51  15  50  69  25  46  58  30  61  72  38  49  68  21  35  54  14  44  65  18  44  63  12  95  90  82  151 148 143 171 170 165 171 170 165 147 147 137 155 153 145 147 145 139 43  61  21  42  64  16  39  55  17  41  63  16  43  62  16  37  52  13  41  64  17  53  76  19  61  56  25  56  64  26  43  60  19  42  64  17  40  62  16  42  63  17  45  65  17  46  63  19  47  65  19  43  62  18  46  44  19  55  40  25  54  46  26  62  58  29  56  65  28  45  63  21  49  60  18  49  47  20  51  50  20  75  76  49  87  98  65  95  122 68  59  83  32  49  71  21  80  98  53  90  104 63  51  67  23  119 123 101 148 143 140 99  105 82  63  78  36  31  48  7   26  44  6   38  58  15  50  75  20  
49  75  18  52  79  20  53  74  22  42  53  14  78  87  55  135 142 122 106 103 95  104 104 92  101 109 86  65  78  45  43  63  18  35  52  14  48  68  18  39  46  11  80  74  64  135 131 126 134 130 124 164 161 157 177 176 170 189 188 183 170 165 165 77  95  56  43  66  10  41  60  17  56  68  22  56  71  22  52  77  19  45  68  19  45  68  18  47  58  19  44  51  23  37  48  21  39  57  18  44  66  17  41  62  16  41  61  15  46  70  19  47  70  20  39  58  15  48  67  18  48  48  22  38  39  21  51  52  25  61  65  32  42  44  19  61  59  25  57  49  21  64  63  39  143 141 126 167 169 158 161 162 152 71  83  55  82  87  68  126 121 116 128 122 117 111 112 97  61  76  35  65  80  33  55  86  20  39  62  13  37  53  19  42  60  16  36  52  14  38  58  16  
36  54  15  51  70  19  56  64  23  47  47  18  52  47  33  106 101 94  84  94  63  54  78  27  45  70  17  35  55  11  41  61  15  38  49  15  57  73  22  45  53  16  63  58  43  108 102 96  98  92  85  149 147 141 144 141 136 133 129 125 61  70  45  37  57  13  47  66  19  47  67  17  55  75  21  50  68  19  40  62  16  41  61  16  33  47  14  47  70  18  39  56  16  34  44  15  53  77  22  53  75  20  41  60  16  38  57  14  40  60  15  49  73  19  50  72  19  62  85  23  52  69  21  50  66  22  48  58  20  54  42  24  55  62  28  42  51  19  49  49  28  115 115 105 145 143 136 144 146 135 157 156 148 76  86  61  149 150 142 153 148 146 138 134 129 136 133 127 76  89  57  121 124 106 126 127 113 121 122 109 139 142 128 100 112 80  31  51  8   41  61  18  
41  58  16  47  57  21  53  54  24  50  57  23  52  65  23  51  56  20  42  51  12  42  63  15  37  56  15  47  70  19  41  61  15  44  55  20  60  74  28  43  49  15  73  68  50  150 145 137 115 110 101 107 102 93  124 121 112 57  68  33  51  76  16  51  73  20  56  74  18  46  60  17  48  68  19  46  70  19  41  64  16  44  67  17  45  65  17  43  61  17  42  53  17  49  62  21  49  69  21  46  62  18  43  62  17  47  71  19  45  65  16  47  65  18  58  82  23  63  71  24  50  57  19  44  47  17  71  59  30  66  51  28  56  62  28  51  71  23  47  60  23  105 101 91  170 168 162 142 141 135 171 167 164 96  106 80  115 113 103 149 147 141 131 126 121 154 154 145 67  85  43  161 159 154 172 168 166 137 132 128 133 126 124 126 127 115 36  54  15  43  62  16  
31  45  14  43  56  21  47  60  21  44  66  18  46  69  19  50  69  20  43  52  20  35  50  15  44  66  18  50  75  20  50  73  20  53  73  20  57  74  24  62  78  24  47  49  26  158 156 144 170 171 159 108 105 94  65  70  39  38  55  11  37  57  9   41  61  14  58  74  29  47  67  17  43  62  17  42  63  17  40  62  17  47  69  18  46  70  17  44  66  17  32  45  13  52  68  24  47  65  21  36  52  16  42  59  16  37  55  16  38  58  15  37  53  14  54  78  20  66  75  26  64  68  30  48  64  22  48  53  21  56  46  26  54  54  26  46  56  23  41  58  13  51  58  23  113 109 101 141 136 132 75  81  58  52  69  26  52  69  18  52  71  24  78  95  52  67  79  45  57  74  34  151 148 143 177 176 171 159 158 153 142 139 134 168 165 160 57  69  42  34  54  9   
42  61  18  39  54  18  52  78  22  35  52  14  39  56  15  41  61  16  37  55  15  44  68  19  43  65  17  43  62  17  51  78  15  72  96  36  53  69  24  55  78  23  34  49  10  81  82  65  113 112 97  54  56  26  46  60  18  40  56  9   70  83  46  125 126 116 65  74  40  45  63  15  40  58  16  40  57  16  41  58  17  35  56  15  43  55  17  44  57  18  44  60  18  40  49  17  47  68  21  44  64  20  36  52  14  48  70  18  44  66  16  46  66  16  41  62  16  55  61  22  59  57  26  66  82  28  58  68  22  50  52  21  51  45  24  48  51  24  47  55  20  34  42  11  49  62  30  68  84  42  84  98  62  147 144 139 65  79  42  41  64  14  54  82  18  44  65  13  49  66  21  102 100 87  149 145 142 170 168 164 188 187 182 173 169 168 95  103 79  25  42  3   
45  64  19  41  59  15  47  64  18  39  56  15  47  64  15  42  60  16  48  71  18  46  69  18  46  68  18  48  69  16  65  85  41  149 147 140 99  118 69  45  72  12  47  66  20  46  58  20  54  68  23  50  64  20  53  72  28  101 108 76  148 144 138 140 139 131 42  56  19  39  54  16  44  65  19  38  56  13  53  78  20  43  63  18  41  49  17  50  51  22  63  75  25  50  64  25  55  80  24  36  53  15  43  65  17  46  68  18  36  56  15  54  75  18  52  74  18  56  62  23  59  55  29  56  61  27  54  60  23  53  57  21  50  42  22  52  59  26  59  70  27  45  52  19  28  38  10  48  55  18  158 158 147 178 175 174 73  84  52  45  65  14  43  59  18  58  82  23  46  72  15  60  76  31  120 116 106 144 139 138 186 185 180 186 181 181 117 123 102 30  51  7   
39  53  16  55  77  20  45  57  16  36  50  13  33  46  12  44  66  17  43  63  16  51  78  20  46  68  18  49  73  17  52  70  26  90  89  77  68  83  46  47  71  13  53  74  23  61  63  25  60  65  24  50  59  21  58  65  33  79  81  61  108 103 99  94  100 77  38  58  11  48  69  18  37  56  13  25  39  11  39  59  15  54  75  21  53  56  21  53  53  25  48  64  21  45  64  19  52  75  20  38  53  16  36  55  15  40  60  16  33  49  14  37  54  14  47  69  17  42  63  17  44  56  21  62  73  30  56  75  25  56  74  23  47  54  20  50  66  23  56  70  23  50  59  19  44  44  18  51  42  24  86  85  73  63  73  47  41  63  14  61  89  24  49  73  18  35  55  13  49  72  20  45  69  15  50  64  26  110 106 97  184 179 177 131 132 123 42  59  19  51  76  18  
30  40  12  50  71  18  55  74  20  42  49  15  30  42  12  42  63  17  38  58  14  35  52  13  38  57  15  47  71  18  50  80  18  48  73  11  50  73  15  54  72  20  42  57  17  52  70  22  64  90  27  59  80  27  50  63  21  40  62  11  63  87  30  63  81  35  43  62  13  59  83  25  55  66  34  26  40  8   36  52  16  50  68  20  53  65  21  50  50  23  49  54  21  45  58  16  37  51  13  46  62  18  45  62  17  51  72  18  44  63  15  39  59  15  42  62  17  38  59  15  43  62  18  43  62  20  47  68  19  36  53  15  43  65  16  49  67  21  67  89  28  58  73  23  59  58  24  46  38  20  48  59  26  38  54  14  38  53  15  31  52  7   38  54  18  41  60  20  30  50  8   49  76  20  39  64  13  42  61  17  48  54  31  38  54  15  36  58  12  45  64  17  
34  46  13  48  53  20  51  64  19  43  44  18  41  53  14  28  40  10  36  57  14  37  55  14  35  52  13  46  64  16  45  66  17  55  77  19  56  79  21  48  65  18  49  69  18  49  75  20  43  66  16  50  68  20  52  65  23  56  79  23  56  83  17  31  51  7   40  62  14  48  64  27  139 137 129 71  87  49  44  59  14  47  61  21  51  76  20  50  54  20  46  47  21  40  50  18  50  70  21  46  58  17  47  66  17  52  75  19  46  67  17  51  77  21  42  61  16  40  60  15  42  58  18  43  63  18  43  62  16  38  54  14  41  61  15  47  64  17  46  57  19  41  57  16  45  56  18  46  56  19  63  75  30  41  57  16  34  50  9   60  71  44  141 141 132 140 140 126 73  89  54  47  76  17  43  66  18  32  52  13  41  58  13  43  59  17  38  55  16  46  67  19  
50  50  22  47  41  21  48  48  21  54  57  24  50  59  21  36  46  13  35  51  13  57  75  20  48  70  18  44  62  17  52  73  18  47  62  17  36  52  13  49  69  18  51  71  18  45  68  17  50  79  19  47  65  17  51  67  24  47  65  18  54  71  28  68  81  48  53  73  21  43  64  14  94  99  76  117 118 107 57  67  26  56  58  24  45  63  19  51  64  19  47  45  22  35  42  17  46  57  20  46  48  20  51  67  20  53  75  19  50  77  20  48  71  19  43  57  16  47  66  17  42  58  16  40  55  17  44  57  18  51  68  19  39  55  16  50  67  21  43  46  18  48  59  18  41  58  16  37  44  15  33  45  7   56  70  31  115 119 102 124 118 114 176 172 168 178 173 173 77  84  59  48  75  16  50  75  21  28  43  12  37  53  16  45  63  19  43  46  16  54  47  23  
47  46  23  43  39  20  54  49  25  50  49  23  44  46  19  44  41  18  37  52  14  43  47  17  48  63  18  46  62  18  50  70  17  52  65  21  42  54  18  44  68  16  57  74  19  46  67  16  46  70  17  52  76  19  56  75  20  51  72  15  101 102 83  161 155 154 78  84  59  45  61  11  54  61  18  72  75  53  65  73  45  50  64  17  47  58  20  43  38  17  69  55  30  39  37  17  38  48  18  43  59  21  50  68  23  59  80  20  47  69  17  55  77  19  59  81  22  43  58  15  43  63  16  35  50  15  36  45  16  48  57  19  51  70  20  52  55  21  51  47  21  56  64  22  52  58  21  52  62  23  107 116 85  172 171 163 182 180 178 113 109 103 137 131 127 159 164 146 39  59  15  36  52  13  43  62  18  37  57  15  34  54  14  46  58  19  44  42  20  44  39  23  
47  48  24  54  53  27  52  51  26  46  43  21  52  47  23  54  51  26  41  40  19  34  29  15  42  38  17  44  47  18  43  59  17  54  63  23  48  51  22  40  58  15  43  63  17  37  57  15  43  61  14  52  77  19  61  70  36  48  64  15  55  76  25  126 123 116 145 143 138 55  64  26  47  47  16  43  51  19  55  68  26  47  57  17  56  50  22  61  45  27  50  38  23  45  43  22  38  45  20  35  49  15  49  74  17  55  77  20  60  78  21  56  75  20  47  69  18  48  64  18  43  58  17  53  72  21  37  45  15  40  57  16  59  86  23  48  57  17  51  64  21  56  75  27  36  56  11  61  68  42  163 159 154 147 146 140 159 160 149 147 146 139 123 117 113 59  71  40  29  47  10  31  45  13  36  39  14  41  48  16  53  58  23  49  46  21  49  52  24  54  59  27  
41  45  22  47  53  25  51  50  26  49  39  24  44  41  22  41  48  21  47  41  20  49  45  23  50  55  23  36  34  16  41  42  18  47  48  20  54  55  26  48  56  19  47  65  17  45  65  17  57  70  19  56  79  17  71  90  44  99  102 82  36  56  10  72  91  46  137 133 130 132 129 116 47  39  16  51  57  24  53  63  21  57  61  24  57  51  24  51  49  26  51  53  27  54  59  29  48  53  25  29  37  14  41  59  15  53  75  18  48  65  18  43  59  17  48  75  20  52  74  20  59  81  22  63  83  25  47  66  19  49  65  20  59  71  23  56  66  22  61  71  25  66  69  28  49  50  18  77  71  58  110 106 99  138 135 128 133 133 124 134 132 125 81  82  65  35  54  11  41  56  18  33  43  14  44  41  18  46  40  19  60  54  29  56  47  27  54  46  25  60  69  29  
44  53  23  49  60  27  54  60  26  51  48  26  53  57  26  51  53  22  43  39  19  51  51  22  63  72  28  40  37  18  47  36  21  45  48  22  48  61  22  53  66  25  47  65  19  57  80  20  69  91  24  64  83  22  49  74  15  73  79  57  98  95  87  55  77  27  82  92  63  131 124 119 89  94  59  62  72  25  66  81  30  63  82  27  62  72  29  60  76  31  60  74  27  52  49  23  42  35  19  34  34  15  45  47  16  55  71  20  36  53  14  43  56  16  54  66  22  50  72  19  48  67  18  62  81  23  60  78  25  58  71  25  63  70  26  66  61  27  54  60  21  63  54  27  47  36  18  135 133 121 174 172 164 138 134 127 156 153 148 126 124 113 55  65  26  47  62  21  42  56  19  42  51  18  53  55  24  53  45  24  55  52  27  60  56  30  48  50  24  45  59  23  
41  54  19  55  63  25  50  58  24  50  47  26  58  49  25  52  51  24  57  52  26  56  46  24  54  52  22  53  47  23  45  36  21  47  50  21  37  49  15  48  70  20  56  79  21  59  85  20  57  81  20  53  72  18  50  75  17  55  76  27  95  94  83  54  64  37  37  58  11  52  61  24  61  68  32  59  78  24  61  80  25  62  91  24  63  93  24  69  96  29  56  66  24  59  51  22  55  58  24  45  43  22  58  50  24  46  50  21  38  56  16  42  57  17  49  57  20  57  74  22  44  58  17  58  80  23  53  70  22  51  57  20  52  44  21  59  58  27  53  67  23  58  70  24  53  61  24  79  75  63  168 168 158 154 155 143 139 139 129 71  81  51  51  58  18  49  65  22  51  68  23  49  58  21  52  68  25  56  62  27  54  54  25  51  56  26  54  71  26  49  69  22  
49  64  22  56  51  24  52  46  21  57  54  26  57  51  27  44  39  20  49  43  21  51  39  24  49  53  21  57  68  26  59  62  30  54  57  24  38  49  14  42  63  15  52  75  18  59  80  20  52  74  19  50  68  17  45  65  16  40  61  17  51  71  22  45  67  13  55  71  34  71  79  53  40  57  15  42  58  20  52  74  20  50  72  20  47  71  17  62  81  22  61  69  27  70  76  30  56  65  26  50  46  22  58  42  25  46  31  19  44  57  18  47  67  17  40  60  16  43  60  18  43  63  17  55  80  23  53  77  24  42  63  19  49  61  23  51  60  28  57  64  27  51  59  21  46  59  20  49  63  23  108 108 94  150 148 141 97  105 79  57  83  20  63  87  25  45  59  18  60  55  25  59  71  25  46  60  21  37  45  15  54  66  21  46  66  21  41  60  19  47  70  19  
46  62  20  62  51  29  61  44  28  56  49  28  71  70  34  50  57  21  53  53  23  58  54  28  52  60  23  46  57  19  47  51  22  50  49  23  40  45  16  46  65  16  42  54  16  40  53  14  46  64  16  50  71  19  38  56  15  41  60  16  50  70  18  51  76  16  98  104 83  96  104 77  38  63  10  48  68  21  37  55  16  42  65  17  44  65  17  52  77  19  62  72  24  54  68  21  47  65  19  49  60  21  43  42  21  46  40  22  51  52  23  54  72  22  56  78  20  48  70  18  52  73  18  52  72  15  46  67  10  39  62  9   33  54  4   31  42  7   43  43  14  50  51  17  49  65  22  46  71  19  61  75  34  126 125 115 55  71  34  52  77  16  64  91  25  60  80  23  54  70  20  53  61  22  49  63  21  45  63  19  51  73  20  56  81  23  43  64  18  46  71  19  
38  56  18  46  54  25  49  49  26  51  45  25  62  64  28  54  54  22  68  57  30  72  68  34  48  62  20  46  62  20  47  59  23  53  66  26  44  58  19  45  59  17  33  40  13  35  49  13  38  59  14  51  75  20  43  66  18  60  83  21  49  70  15  58  78  30  154 152 146 85  99  62  41  65  11  46  69  17  35  50  13  38  57  15  40  59  16  52  77  21  54  66  21  67  90  25  49  65  20  54  74  23  48  59  23  51  54  24  43  40  20  48  45  22  57  67  21  57  78  20  43  63  15  64  74  36  86  102 54  86  98  67  101 107 82  99  107 80  109 120 89  77  86  54  48  65  19  52  75  24  46  71  17  43  58  22  34  49  14  46  66  17  46  68  19  38  53  15  60  69  23  58  60  22  50  52  20  45  64  19  49  74  19  47  68  17  42  61  17  36  56  16  
45  68  19  48  67  22  51  71  28  45  61  26  44  63  21  47  58  24  52  44  25  68  60  31  70  60  29  43  42  16  54  70  22  54  76  23  49  68  19  44  64  17  38  55  16  36  52  13  42  56  16  46  52  18  43  62  16  53  75  20  45  66  11  101 107 86  161 158 153 61  79  36  28  51  6   45  60  26  40  60  17  50  75  19  44  65  16  40  61  16  55  75  20  59  74  23  52  71  20  51  70  20  57  64  22  53  56  21  43  32  18  44  41  19  52  61  23  43  57  19  41  62  12  108 109 92  145 145 132 151 147 143 170 165 164 133 127 125 119 110 110 144 140 132 51  65  26  40  62  15  48  70  17  49  74  18  38  55  15  47  66  19  44  66  19  46  66  18  44  58  18  52  66  20  52  65  22  39  59  18  41  62  17  45  66  18  48  72  19  45  66  17  
45  66  17  52  78  20  48  70  20  42  63  19  48  75  20  49  69  20  58  60  27  60  65  31  56  55  27  61  48  27  63  56  26  65  64  26  49  54  20  41  56  17  51  68  19  48  67  17  41  52  16  44  42  19  43  47  17  51  70  18  39  55  15  129 124 119 152 151 144 45  67  16  54  66  32  132 130 124 68  77  51  39  60  9   49  70  19  46  71  18  64  91  24  61  74  22  53  75  20  64  68  25  57  59  23  57  57  24  49  41  20  50  61  24  47  61  25  48  64  21  64  84  24  60  68  24  50  63  25  47  60  22  54  67  34  56  67  35  59  70  29  74  81  49  68  74  39  46  62  15  50  69  17  44  64  18  54  75  19  57  81  20  49  73  17  61  87  24  49  72  19  35  51  14  38  58  18  33  47  15  44  56  18  52  75  21  50  73  19  48  71  19  
43  60  15  52  77  20  41  62  16  37  58  15  36  57  15  41  58  17  56  78  25  58  76  30  55  65  27  66  72  33  62  62  30  43  40  20  45  42  18  49  50  21  53  68  19  43  63  16  41  50  17  43  48  20  44  44  20  42  47  12  87  93  67  182 178 177 124 122 114 52  64  25  128 127 113 164 159 159 95  99  82  36  59  5   54  77  22  57  84  20  80  109 29  67  92  25  54  68  22  57  58  21  47  46  20  49  53  20  45  60  20  42  58  24  52  69  22  58  70  22  48  59  19  36  47  15  39  56  18  37  52  14  38  50  13  54  71  17  59  80  21  51  64  17  49  55  16  64  74  34  56  73  24  43  61  13  54  74  21  54  77  21  52  70  18  57  84  23  44  64  17  40  59  16  46  64  20  49  68  20  45  58  18  42  57  15  36  54  14  40  53  16  
41  50  18  41  56  16  48  73  19  43  64  17  38  57  15  46  64  19  45  65  20  51  73  22  51  73  23  58  77  27  59  74  28  60  64  29  59  45  27  44  34  19  49  47  22  55  55  21  54  47  21  45  35  19  42  51  20  49  62  22  74  73  54  137 133 128 115 111 100 139 135 127 143 138 135 139 135 131 70  84  48  50  79  16  49  69  20  45  67  17  62  69  24  58  63  24  56  62  23  57  51  22  54  51  22  57  49  24  45  61  20  35  49  16  46  66  18  52  67  19  47  56  21  40  54  21  47  63  22  62  63  25  58  50  24  41  45  18  47  63  20  58  70  25  41  47  17  68  78  45  135 138 117 55  70  30  34  55  8   48  66  20  52  69  20  43  62  17  32  45  13  42  63  18  45  63  20  46  61  20  41  56  17  34  50  13  35  50  13  39  53  17  
41  38  18  43  47  18  46  67  19  47  64  18  39  54  15  51  72  20  43  61  17  39  56  16  39  60  15  53  73  23  69  92  31  56  62  26  58  48  28  57  46  27  56  43  26  56  46  25  67  68  30  49  51  25  42  45  20  49  74  19  66  87  34  93  94  78  120 117 107 106 106 91  136 136 125 118 118 107 52  69  28  48  75  18  51  73  19  51  74  18  52  63  20  49  58  23  52  68  22  57  68  25  43  41  20  52  55  21  52  70  25  38  55  17  46  67  18  53  72  20  49  62  22  51  65  25  48  64  23  60  67  24  53  52  24  41  42  22  47  65  22  56  79  23  51  74  21  59  75  25  94  97  78  61  78  34  57  68  40  42  61  14  39  56  12  36  49  16  33  50  13  41  64  16  36  54  16  37  56  15  49  72  19  43  63  18  48  60  25  46  50  21  
40  46  21  46  59  24  40  54  18  39  52  14  37  52  14  45  67  18  35  51  13  45  66  18  33  49  13  43  59  18  55  75  24  63  80  29  53  55  27  52  46  25  55  55  27  63  79  31  65  79  30  64  78  28  53  61  23  45  64  20  59  85  21  71  80  50  119 112 109 84  92  66  129 132 114 141 141 133 49  71  18  50  72  18  48  68  18  67  99  24  50  76  20  49  69  24  52  75  22  57  84  24  52  75  23  56  73  26  59  76  27  38  52  16  46  69  18  46  66  20  33  47  17  50  69  21  58  64  25  52  53  21  53  62  25  53  62  25  59  78  26  67  99  26  61  91  23  57  79  23  51  65  18  61  71  35  157 155 150 130 134 115 44  54  21  31  49  7   46  65  19  37  56  15  36  55  14  50  70  20  39  56  16  47  71  19  54  73  26  54  61  27  
46  57  22  39  52  18  37  52  18  38  55  17  43  65  17  45  69  18  44  65  17  45  66  17  46  64  17  34  48  13  42  57  18  53  68  21  59  76  27  50  64  25  56  78  26  53  75  23  50  69  22  50  69  21  45  59  21  36  52  17  47  67  17  44  68  13  97  101 80  112 109 103 70  87  38  83  96  60  42  62  16  53  72  20  50  71  18  40  59  15  48  70  19  54  79  21  52  77  22  49  76  17  44  64  15  47  66  20  51  73  22  36  53  15  41  58  16  54  70  22  47  61  22  49  68  19  44  50  18  52  57  23  58  74  26  51  71  21  51  69  23  50  71  20  41  60  14  48  66  17  44  58  15  62  69  40  131 126 123 142 139 134 149 149 138 87  98  71  26  42  4   41  62  14  40  61  18  50  72  19  38  53  15  44  65  17  47  65  19  58  72  27  
41  55  15  34  50  12  32  47  13  36  54  16  48  73  20  39  58  15  42  60  17  47  58  17  36  49  14  48  66  20  58  84  25  47  65  20  40  58  17  51  74  22  49  69  19  50  71  18  48  71  17  43  59  15  36  51  14  47  67  19  58  82  22  40  62  14  59  86  33  130 127 119 97  106 75  37  63  6   61  86  23  55  73  22  43  61  17  39  57  15  43  62  17  41  60  15  31  51  5   68  86  41  92  98  79  52  76  19  49  74  19  43  66  17  38  56  15  46  61  18  49  68  20  49  71  21  35  53  15  49  68  22  52  69  22  43  62  18  50  70  19  51  75  21  43  63  16  51  66  19  42  67  17  58  77  25  131 130 120 152 151 144 151 147 142 172 168 165 124 127 112 46  62  21  34  57  8   47  66  18  51  69  21  56  79  22  47  70  19  38  50  18  
42  61  17  39  58  14  43  56  15  37  44  14  40  61  15  40  58  15  42  54  16  44  50  16  30  43  13  48  68  20  59  85  24  47  70  20  33  50  14  41  60  16  49  70  19  42  59  15  51  74  18  63  87  22  48  70  18  50  69  19  53  79  19  37  57  16  35  59  10  75  89  56  128 127 116 63  81  27  54  72  17  53  76  22  43  61  18  49  70  18  49  75  15  43  65  17  83  89  68  145 140 137 102 107 88  42  66  10  51  74  21  44  69  18  45  66  18  42  57  17  43  65  18  45  69  19  50  74  21  52  77  20  46  65  19  49  68  21  53  75  20  48  69  19  42  60  16  56  79  20  43  66  18  43  62  12  100 100 82  145 141 139 125 121 115 140 136 129 176 174 170 153 149 144 73  79  57  37  52  6   34  49  10  40  57  18  39  55  18  41  56  16  
54  73  18  56  62  21  40  40  16  39  40  17  43  59  16  50  74  21  44  62  17  46  68  19  42  65  17  40  63  17  42  63  18  41  60  16  35  54  14  38  54  16  41  58  16  42  64  17  46  65  17  49  71  18  48  71  18  44  67  14  56  84  21  48  73  20  46  68  17  46  73  14  76  84  60  62  75  30  53  70  19  48  69  18  50  70  21  52  72  20  69  85  49  177 183 165 199 195 196 104 102 88  53  73  26  38  59  13  50  73  19  46  69  18  48  68  20  55  72  22  46  71  18  42  65  17  48  70  18  46  63  17  50  74  20  54  81  22  47  68  18  55  77  19  49  68  18  56  78  20  37  55  16  33  50  10  69  81  48  135 129 127 144 141 136 166 164 158 169 170 160 179 178 173 177 174 170 126 130 113 57  73  36  33  53  10  35  50  12  40  53  11  
88  93  65  51  52  22  47  42  20  43  47  20  43  59  18  37  52  16  48  69  23  50  73  20  48  73  19  41  62  16  36  53  14  36  51  14  46  66  18  56  77  20  32  46  13  42  62  16  43  63  16  40  60  15  50  67  23  59  75  34  43  67  9   42  63  15  54  77  22  69  78  27  46  50  19  52  57  21  47  59  21  48  67  15  38  57  8   59  74  32  104 101 90  166 159 160 116 123 102 45  67  15  47  72  16  44  66  16  56  78  21  48  64  18  47  68  18  50  72  20  44  63  18  45  65  17  48  68  17  37  55  15  41  63  16  46  69  18  59  80  21  64  88  23  52  73  19  52  74  18  61  83  22  55  69  18  59  76  34  132 129 124 136 132 127 171 168 163 195 195 189 160 158 153 169 165 163 170 165 164 176 175 166 92  103 75  47  59  21  79  83  59  
60  67  43  46  60  22  43  48  21  45  43  22  43  59  18  40  55  15  45  64  20  35  53  13  42  60  16  50  72  19  44  63  17  47  67  18  61  83  21  46  63  17  41  58  15  45  65  17  45  65  17  51  69  19  52  64  22  102 101 89  108 120 89  55  77  21  40  54  11  65  68  27  56  58  22  43  35  18  39  34  13  75  87  47  92  113 55  35  58  7   54  75  13  58  71  28  47  70  15  52  76  13  45  63  18  36  40  16  56  74  21  45  68  19  40  61  15  40  58  17  39  57  17  47  68  17  52  75  18  43  68  18  35  55  14  41  63  16  51  71  19  51  72  18  47  68  17  53  75  19  52  75  19  54  78  20  43  60  12  125 124 114 131 125 123 96  88  79  120 117 105 104 104 92  90  93  69  72  77  54  62  65  47  68  81  43  49  58  25  60  62  40  
39  58  13  45  66  17  45  62  19  54  70  24  43  62  17  43  58  16  46  64  17  47  69  18  49  73  17  45  67  17  39  60  16  53  76  20  62  84  21  54  77  19  43  64  17  32  52  13  32  50  12  46  62  17  59  78  19  56  71  28  119 111 106 154 155 140 75  89  52  47  65  17  55  69  26  53  67  26  31  44  4   108 111 93  195 195 184 145 152 130 96  105 74  40  54  13  50  72  16  73  90  44  92  97  76  56  67  30  53  70  17  42  63  17  44  68  19  44  66  17  42  65  16  47  69  18  39  60  15  43  61  17  39  61  15  42  61  16  44  63  17  40  59  16  51  72  19  33  48  13  41  62  16  50  73  19  41  61  14  51  55  25  64  70  37  57  70  24  51  67  16  50  72  18  55  76  17  44  64  13  43  68  13  56  82  19  53  75  22  46  63  16  
38  50  16  50  63  19  45  60  19  44  67  19  42  58  16  40  44  16  43  57  16  50  70  18  53  76  19  43  67  17  41  59  14  55  81  20  51  74  19  59  85  20  47  70  18  39  55  15  36  56  14  38  55  15  49  68  18  41  64  14  56  65  26  112 106 102 91  101 64  44  61  8   125 128 111 171 175 158 54  75  26  76  72  59  142 134 132 171 167 168 149 147 136 53  67  25  37  52  12  56  77  27  62  81  28  50  69  18  51  59  20  45  59  17  37  54  16  55  81  22  57  88  21  46  67  18  48  70  19  52  74  21  42  59  16  50  71  20  50  65  20  44  62  17  44  67  18  41  61  17  39  56  14  48  69  17  50  75  18  37  51  13  49  64  18  49  66  19  45  65  18  48  66  18  39  58  14  47  68  17  61  89  28  52  73  22  51  66  22  56  71  23  
43  62  18  55  69  22  41  55  16  40  54  16  38  55  15  35  44  15  48  63  18  47  66  18  47  64  18  41  61  17  38  55  14  41  59  15  53  76  21  40  59  15  47  69  18  42  60  16  40  61  16  56  78  20  47  69  17  45  69  17  47  70  19  45  61  23  37  53  13  49  62  26  111 107 96  151 143 144 119 120 103 98  102 80  62  64  42  52  50  30  49  43  22  50  58  25  37  44  16  36  48  12  48  66  17  48  66  17  47  65  17  45  64  17  54  74  20  40  58  15  53  80  19  49  68  16  54  67  20  51  66  19  49  62  18  44  58  17  57  69  23  51  74  20  41  62  16  39  59  14  50  76  19  43  65  16  40  61  16  36  54  14  48  60  19  46  46  20  46  61  20  42  63  15  55  75  35  62  75  42  52  76  20  61  87  26  53  75  24  61  91  25  
50  73  18  45  67  18  33  48  13  45  63  20  50  65  22  33  49  16  46  63  17  42  62  15  39  59  16  33  52  8   34  53  10  39  58  16  50  75  19  43  62  16  39  59  16  50  73  20  50  72  20  56  77  20  48  73  18  43  64  15  44  67  17  39  59  16  36  53  15  48  66  21  42  61  14  45  61  17  89  87  76  126 129 111 115 122 95  90  83  62  67  58  37  58  51  30  41  42  17  44  64  19  40  59  17  48  69  19  67  96  25  47  65  17  56  78  19  45  65  17  50  76  19  53  77  20  51  71  19  51  69  19  53  69  20  41  59  16  51  74  19  44  67  18  46  67  16  44  66  16  40  62  17  50  74  19  47  69  18  41  59  15  44  59  15  42  51  13  47  64  20  36  53  13  58  68  41  55  73  29  37  54  12  36  58  11  37  62  9   58  84  21  
51  67  31  66  72  39  50  61  27  29  46  5   31  47  6   36  49  15  35  51  13  39  58  14  34  50  13  62  77  43  67  88  37  29  48  8   39  58  11  49  74  18  55  77  20  43  63  17  39  57  16  45  66  18  41  62  16  45  68  18  41  61  16  39  59  16  49  73  21  38  57  9   49  65  23  107 115 93  82  86  69  95  92  85  173 170 167 177 177 168 152 151 140 94  94  74  40  48  16  40  56  20  39  59  15  53  74  18  46  64  17  47  62  18  45  63  18  39  59  15  43  65  17  48  71  18  41  61  16  46  67  17  39  58  15  45  70  18  49  72  18  43  64  18  39  61  17  43  64  16  40  60  16  43  64  16  50  75  19  46  68  17  53  65  32  64  77  43  51  71  25  47  68  17  38  55  12  40  56  13  39  52  19  56  69  41  105 111 88  144 144 136 
54  66  30  88  87  67  135 131 124 140 145 122 99  113 77  56  74  23  46  61  17  24  34  9   45  66  20  81  92  62  100 109 81  86  95  68  58  75  31  49  72  15  53  74  21  50  71  19  33  51  14  46  65  17  40  60  15  36  55  15  44  64  17  52  77  20  33  56  7   76  92  53  136 136 126 152 148 146 78  77  61  68  63  50  105 102 92  173 174 163 183 183 176 143 147 127 60  77  28  51  71  23  55  81  20  52  73  20  59  73  20  51  64  18  53  69  21  54  73  18  60  89  21  42  66  17  46  69  18  54  78  21  34  52  14  37  57  15  47  71  18  42  63  16  42  64  16  44  67  18  43  64  16  41  63  15  47  68  18  37  56  14  55  71  27  103 102 86  149 151 137 115 127 90  36  54  10  56  69  33  127 126 117 137 135 125 110 109 98  103 112 84  
48  59  24  54  66  26  72  75  51  122 117 110 84  90  67  48  65  21  44  58  18  29  42  11  34  48  11  32  54  7   29  41  9   57  67  29  43  59  22  41  59  15  51  66  18  40  57  14  38  58  16  44  62  17  45  68  17  41  65  10  52  79  19  45  66  15  95  103 75  184 182 179 176 174 169 161 160 153 79  77  58  48  44  28  90  86  78  121 117 110 184 181 178 177 181 166 78  104 33  57  85  20  60  87  22  56  72  20  52  58  19  61  71  22  46  64  17  43  62  17  51  75  18  49  74  19  42  63  17  53  77  21  49  70  20  40  58  17  43  64  17  44  67  17  39  58  14  39  58  16  43  68  18  43  64  16  47  70  18  33  47  15  43  60  15  75  84  49  113 109 104 112 110 96  34  45  12  59  70  35  85  87  71  60  69  40  46  60  20  40  62  12  
93  98  79  125 130 111 41  52  13  35  41  10  45  53  18  44  57  22  48  69  20  47  60  25  65  70  39  48  66  19  43  56  18  32  42  10  31  43  10  42  57  15  51  71  19  40  63  16  40  62  15  41  62  16  51  70  25  91  100 72  57  72  36  46  72  17  114 112 101 129 124 118 147 147 139 144 143 135 72  85  51  32  37  11  101 97  89  109 106 97  89  80  71  139 135 127 72  92  42  43  65  12  50  67  17  55  74  17  49  66  16  43  57  15  43  52  18  36  49  15  49  72  18  38  58  15  39  58  16  46  70  19  47  63  19  38  51  16  41  61  17  43  64  17  41  59  16  34  50  14  44  65  17  43  61  16  45  65  16  44  64  19  48  65  17  46  53  17  81  79  65  105 106 85  37  47  15  43  56  21  33  46  10  43  61  13  41  56  15  45  68  19  
